<svg width="522" height="261" viewBox="0 0 522 261" fill="none" xmlns="http://www.w3.org/2000/svg">
<path d="M261 200C371.457 200 461 110.457 461 0H261H61C61 110.457 150.543 200 261 200Z" fill="#C83F3A"/>
<path d="M481 0C481 121.503 382.503 220 261 220C139.497 220 41 121.503 41 0" stroke="#C83F3A"/>
<path d="M501 0C501 132.548 393.548 240 261 240C128.452 240 21 132.548 21 0" stroke="#C83F3A" stroke-opacity="0.8"/>
<path d="M521 0C521 143.594 404.594 260 261 260C117.406 260 1 143.594 1 0" stroke="#C83F3A" stroke-opacity="0.4"/>
<path d="M136.701 89.32V93.912H134.657V91H127.307V81.004H129.421V89.236H133.103V81.004H135.217V89.32H136.701ZM143.998 91H138.244V81.004H143.998V82.74H140.358V84.938H143.746V86.674H140.358V89.25H143.998V91ZM154.268 91H152.154V86.688H148.192V91H146.078V81.004H148.192V84.924H152.154V81.004H154.268V91ZM160.633 91H158.519V82.768H155.803V81.004H163.349V82.768H160.633V91ZM168.083 81.004C169.371 81.004 170.309 81.284 170.897 81.844C171.494 82.3947 171.793 83.1553 171.793 84.126C171.793 84.7047 171.672 85.2507 171.429 85.764C171.186 86.268 170.78 86.674 170.211 86.982C169.651 87.29 168.886 87.444 167.915 87.444H167.005V91H164.891V81.004H168.083ZM167.971 82.74H167.005V85.708H167.705C168.302 85.708 168.774 85.5913 169.119 85.358C169.474 85.1153 169.651 84.728 169.651 84.196C169.651 83.2253 169.091 82.74 167.971 82.74ZM181.561 82.628C180.749 82.628 180.128 82.9313 179.699 83.538C179.269 84.1447 179.055 84.9753 179.055 86.03C179.055 87.094 179.251 87.92 179.643 88.508C180.044 89.0867 180.683 89.376 181.561 89.376C181.971 89.376 182.377 89.3293 182.779 89.236C183.189 89.1427 183.633 89.012 184.109 88.844V90.622C183.67 90.7993 183.236 90.93 182.807 91.014C182.377 91.098 181.897 91.14 181.365 91.14C180.338 91.14 179.489 90.93 178.817 90.51C178.154 90.0807 177.664 89.4833 177.347 88.718C177.029 87.9433 176.871 87.0427 176.871 86.016C176.871 85.008 177.053 84.1167 177.417 83.342C177.781 82.5673 178.308 81.9607 178.999 81.522C179.699 81.0833 180.553 80.864 181.561 80.864C182.055 80.864 182.55 80.9293 183.045 81.06C183.549 81.1813 184.029 81.3493 184.487 81.564L183.801 83.286C183.427 83.1087 183.049 82.9547 182.667 82.824C182.293 82.6933 181.925 82.628 181.561 82.628ZM190.083 91H187.969V82.768H185.253V81.004H192.799V82.768H190.083V91ZM197.532 81.004C198.82 81.004 199.758 81.284 200.346 81.844C200.943 82.3947 201.242 83.1553 201.242 84.126C201.242 84.7047 201.121 85.2507 200.878 85.764C200.635 86.268 200.229 86.674 199.66 86.982C199.1 87.29 198.335 87.444 197.364 87.444H196.454V91H194.34V81.004H197.532ZM197.42 82.74H196.454V85.708H197.154C197.751 85.708 198.223 85.5913 198.568 85.358C198.923 85.1153 199.1 84.728 199.1 84.196C199.1 83.2253 198.54 82.74 197.42 82.74ZM212.203 85.988C212.203 87.024 212.03 87.9293 211.685 88.704C211.349 89.4693 210.831 90.0667 210.131 90.496C209.431 90.9253 208.535 91.14 207.443 91.14C206.36 91.14 205.464 90.9253 204.755 90.496C204.055 90.0667 203.532 89.4647 203.187 88.69C202.851 87.9153 202.683 87.01 202.683 85.974C202.683 84.938 202.851 84.0373 203.187 83.272C203.532 82.5067 204.055 81.914 204.755 81.494C205.464 81.0647 206.365 80.85 207.457 80.85C208.54 80.85 209.431 81.0647 210.131 81.494C210.831 81.914 211.349 82.5113 211.685 83.286C212.03 84.0513 212.203 84.952 212.203 85.988ZM204.909 85.988C204.909 87.0333 205.11 87.8593 205.511 88.466C205.912 89.0633 206.556 89.362 207.443 89.362C208.348 89.362 208.997 89.0633 209.389 88.466C209.781 87.8593 209.977 87.0333 209.977 85.988C209.977 84.9333 209.781 84.1073 209.389 83.51C208.997 82.9127 208.353 82.614 207.457 82.614C206.561 82.614 205.912 82.9127 205.511 83.51C205.11 84.1073 204.909 84.9333 204.909 85.988ZM214.274 81.004H216.178V85.834C216.178 86.0673 216.173 86.3287 216.164 86.618C216.154 86.9073 216.145 87.192 216.136 87.472C216.126 87.7427 216.117 87.9807 216.108 88.186C216.098 88.382 216.089 88.5173 216.08 88.592H216.122L220.742 81.004H223.276V91H221.386V86.198C221.386 85.946 221.39 85.6707 221.4 85.372C221.409 85.064 221.418 84.77 221.428 84.49C221.446 84.21 221.46 83.9673 221.47 83.762C221.488 83.5473 221.502 83.4073 221.512 83.342H221.456L216.822 91H214.274V81.004ZM229.649 91H227.535V82.768H224.819V81.004H232.365V82.768H229.649V91ZM239.66 91H233.906V81.004H239.66V82.74H236.02V84.938H239.408V86.674H236.02V89.25H239.66V91ZM249.65 91H247.536V82.768H245.086C245.03 83.1973 244.97 83.664 244.904 84.168C244.848 84.672 244.783 85.1853 244.708 85.708C244.643 86.2213 244.573 86.7113 244.498 87.178C244.424 87.6353 244.349 88.0413 244.274 88.396C244.153 88.9747 243.99 89.4693 243.784 89.88C243.588 90.2907 243.313 90.6033 242.958 90.818C242.613 91.0327 242.16 91.14 241.6 91.14C241.236 91.14 240.9 91.0887 240.592 90.986V89.25C240.714 89.2873 240.83 89.32 240.942 89.348C241.064 89.376 241.194 89.39 241.334 89.39C241.605 89.39 241.81 89.25 241.95 88.97C242.1 88.6807 242.249 88.144 242.398 87.36C242.454 87.0613 242.534 86.5947 242.636 85.96C242.739 85.3253 242.851 84.5833 242.972 83.734C243.103 82.8753 243.224 81.9653 243.336 81.004H249.65V91ZM252.172 91V81.004H254.286V84.84H255.126C256.069 84.84 256.839 84.9707 257.436 85.232C258.043 85.4933 258.491 85.8527 258.78 86.31C259.069 86.7673 259.214 87.29 259.214 87.878C259.214 88.8673 258.883 89.6373 258.22 90.188C257.567 90.7293 256.521 91 255.084 91H252.172ZM255 89.264C255.644 89.264 256.148 89.1613 256.512 88.956C256.885 88.7507 257.072 88.3913 257.072 87.878C257.072 87.346 256.871 86.996 256.47 86.828C256.069 86.66 255.523 86.576 254.832 86.576H254.286V89.264H255ZM269.29 91H267.176V86.688H263.214V91H261.1V81.004H263.214V84.924H267.176V81.004H269.29V91ZM271.805 91V81.004H273.919V84.84H274.605C275.529 84.84 276.29 84.9707 276.887 85.232C277.484 85.4933 277.923 85.8527 278.203 86.31C278.492 86.7673 278.637 87.29 278.637 87.878C278.637 88.8673 278.31 89.6373 277.657 90.188C277.004 90.7293 275.963 91 274.535 91H271.805ZM279.855 91V81.004H281.969V91H279.855ZM274.479 89.264C275.104 89.264 275.594 89.1613 275.949 88.956C276.313 88.7507 276.495 88.3913 276.495 87.878C276.495 87.346 276.308 86.996 275.935 86.828C275.571 86.66 275.053 86.576 274.381 86.576H273.919V89.264H274.479ZM292.57 91H290.148L287.824 87.22L285.5 91H283.232L286.55 85.848L283.442 81.004H285.78L287.936 84.602L290.05 81.004H292.332L289.196 85.96L292.57 91ZM301.695 91L299.287 83.16H299.231C299.24 83.3467 299.254 83.6267 299.273 84C299.292 84.3733 299.31 84.7747 299.329 85.204C299.348 85.624 299.357 86.0067 299.357 86.352V91H297.467V81.004H300.351L302.717 88.648H302.759L305.265 81.004H308.149V91H306.175V86.268C306.175 85.9507 306.18 85.5867 306.189 85.176C306.208 84.7653 306.222 84.378 306.231 84.014C306.25 83.6407 306.264 83.3607 306.273 83.174H306.217L303.641 91H301.695ZM316.792 91L316.064 88.62H312.424L311.696 91H309.414L312.942 80.962H315.532L319.074 91H316.792ZM314.832 84.518C314.785 84.3593 314.725 84.1587 314.65 83.916C314.575 83.6733 314.501 83.426 314.426 83.174C314.351 82.922 314.291 82.7027 314.244 82.516C314.197 82.7027 314.132 82.936 314.048 83.216C313.973 83.4867 313.899 83.748 313.824 84C313.759 84.2427 313.707 84.4153 313.67 84.518L312.956 86.842H315.56L314.832 84.518ZM323.206 91H321.092V82.768H318.376V81.004H325.922V82.768H323.206V91ZM333.217 91H327.463V81.004H333.217V82.74H329.577V84.938H332.965V86.674H329.577V89.25H333.217V91ZM338.489 81.004C339.777 81.004 340.715 81.284 341.303 81.844C341.9 82.3947 342.199 83.1553 342.199 84.126C342.199 84.7047 342.078 85.2507 341.835 85.764C341.592 86.268 341.186 86.674 340.617 86.982C340.057 87.29 339.292 87.444 338.321 87.444H337.411V91H335.297V81.004H338.489ZM338.377 82.74H337.411V85.708H338.111C338.708 85.708 339.18 85.5913 339.525 85.358C339.88 85.1153 340.057 84.728 340.057 84.196C340.057 83.2253 339.497 82.74 338.377 82.74ZM344.088 81.004H345.992V85.834C345.992 86.0673 345.987 86.3287 345.978 86.618C345.969 86.9073 345.959 87.192 345.95 87.472C345.941 87.7427 345.931 87.9807 345.922 88.186C345.913 88.382 345.903 88.5173 345.894 88.592H345.936L350.556 81.004H353.09V91H351.2V86.198C351.2 85.946 351.205 85.6707 351.214 85.372C351.223 85.064 351.233 84.77 351.242 84.49C351.261 84.21 351.275 83.9673 351.284 83.762C351.303 83.5473 351.317 83.4073 351.326 83.342H351.27L346.636 91H344.088V81.004ZM361.732 91L361.004 88.62H357.364L356.636 91H354.354L357.882 80.962H360.472L364.014 91H361.732ZM359.772 84.518C359.725 84.3593 359.664 84.1587 359.59 83.916C359.515 83.6733 359.44 83.426 359.366 83.174C359.291 82.922 359.23 82.7027 359.184 82.516C359.137 82.7027 359.072 82.936 358.988 83.216C358.913 83.4867 358.838 83.748 358.764 84C358.698 84.2427 358.647 84.4153 358.61 84.518L357.896 86.842H360.5L359.772 84.518ZM373.19 91H371.076V82.768H368.626C368.57 83.1973 368.509 83.664 368.444 84.168C368.388 84.672 368.322 85.1853 368.248 85.708C368.182 86.2213 368.112 86.7113 368.038 87.178C367.963 87.6353 367.888 88.0413 367.814 88.396C367.692 88.9747 367.529 89.4693 367.324 89.88C367.128 90.2907 366.852 90.6033 366.498 90.818C366.152 91.0327 365.7 91.14 365.14 91.14C364.776 91.14 364.44 91.0887 364.132 90.986V89.25C364.253 89.2873 364.37 89.32 364.482 89.348C364.603 89.376 364.734 89.39 364.874 89.39C365.144 89.39 365.35 89.25 365.49 88.97C365.639 88.6807 365.788 88.144 365.938 87.36C365.994 87.0613 366.073 86.5947 366.176 85.96C366.278 85.3253 366.39 84.5833 366.512 83.734C366.642 82.8753 366.764 81.9653 366.876 81.004H373.19V91ZM384.783 85.988C384.783 87.024 384.611 87.9293 384.265 88.704C383.929 89.4693 383.411 90.0667 382.711 90.496C382.011 90.9253 381.115 91.14 380.023 91.14C378.941 91.14 378.045 90.9253 377.335 90.496C376.635 90.0667 376.113 89.4647 375.767 88.69C375.431 87.9153 375.263 87.01 375.263 85.974C375.263 84.938 375.431 84.0373 375.767 83.272C376.113 82.5067 376.635 81.914 377.335 81.494C378.045 81.0647 378.945 80.85 380.037 80.85C381.12 80.85 382.011 81.0647 382.711 81.494C383.411 81.914 383.929 82.5113 384.265 83.286C384.611 84.0513 384.783 84.952 384.783 85.988ZM377.489 85.988C377.489 87.0333 377.69 87.8593 378.091 88.466C378.493 89.0633 379.137 89.362 380.023 89.362C380.929 89.362 381.577 89.0633 381.969 88.466C382.361 87.8593 382.557 87.0333 382.557 85.988C382.557 84.9333 382.361 84.1073 381.969 83.51C381.577 82.9127 380.933 82.614 380.037 82.614C379.141 82.614 378.493 82.9127 378.091 83.51C377.69 84.1073 377.489 84.9333 377.489 85.988ZM389.962 81.004C391.296 81.004 392.304 81.1907 392.986 81.564C393.667 81.9373 394.008 82.5953 394.008 83.538C394.008 84.1073 393.872 84.588 393.602 84.98C393.34 85.372 392.962 85.61 392.468 85.694V85.764C392.804 85.8293 393.107 85.946 393.378 86.114C393.648 86.282 393.863 86.5247 394.022 86.842C394.18 87.1593 394.26 87.5793 394.26 88.102C394.26 89.0073 393.933 89.7167 393.28 90.23C392.626 90.7433 391.73 91 390.592 91H386.854V81.004H389.962ZM390.2 84.966C390.816 84.966 391.24 84.868 391.474 84.672C391.716 84.476 391.838 84.1913 391.838 83.818C391.838 83.4353 391.698 83.16 391.418 82.992C391.138 82.824 390.694 82.74 390.088 82.74H388.968V84.966H390.2ZM388.968 86.646V89.25H390.354C390.988 89.25 391.432 89.1287 391.684 88.886C391.936 88.634 392.062 88.3027 392.062 87.892C392.062 87.5187 391.931 87.22 391.67 86.996C391.418 86.7627 390.956 86.646 390.284 86.646H388.968Z" fill="white"/>
<path d="M147.876 106.004C149.126 106.004 150.069 106.191 150.704 106.564C151.348 106.928 151.67 107.567 151.67 108.482C151.67 109.07 151.506 109.56 151.18 109.952C150.853 110.335 150.382 110.582 149.766 110.694V110.764C150.186 110.829 150.564 110.951 150.9 111.128C151.245 111.305 151.516 111.557 151.712 111.884C151.908 112.211 152.006 112.635 152.006 113.158C152.006 114.063 151.693 114.763 151.068 115.258C150.452 115.753 149.607 116 148.534 116H145.02V106.004H147.876ZM148.128 110.26C148.986 110.26 149.574 110.125 149.892 109.854C150.209 109.574 150.368 109.163 150.368 108.622C150.368 108.071 150.172 107.679 149.78 107.446C149.397 107.203 148.781 107.082 147.932 107.082H146.28V110.26H148.128ZM146.28 111.31V114.936H148.296C149.182 114.936 149.798 114.763 150.144 114.418C150.489 114.073 150.662 113.62 150.662 113.06C150.662 112.537 150.48 112.117 150.116 111.8C149.761 111.473 149.122 111.31 148.198 111.31H146.28ZM156.967 116.14C156.304 116.14 155.712 116.005 155.189 115.734C154.676 115.463 154.27 115.043 153.971 114.474C153.682 113.905 153.537 113.177 153.537 112.29C153.537 111.366 153.691 110.615 153.999 110.036C154.307 109.457 154.722 109.033 155.245 108.762C155.777 108.491 156.379 108.356 157.051 108.356C157.434 108.356 157.802 108.398 158.157 108.482C158.512 108.557 158.801 108.65 159.025 108.762L158.647 109.784C158.423 109.7 158.162 109.621 157.863 109.546C157.564 109.471 157.284 109.434 157.023 109.434C155.548 109.434 154.811 110.381 154.811 112.276C154.811 113.181 154.988 113.877 155.343 114.362C155.707 114.838 156.244 115.076 156.953 115.076C157.364 115.076 157.723 115.034 158.031 114.95C158.348 114.866 158.638 114.763 158.899 114.642V115.734C158.647 115.865 158.367 115.963 158.059 116.028C157.76 116.103 157.396 116.14 156.967 116.14ZM163.582 108.356C164.226 108.356 164.776 108.496 165.234 108.776C165.7 109.056 166.055 109.453 166.298 109.966C166.55 110.47 166.676 111.063 166.676 111.744V112.486H161.538C161.556 113.335 161.771 113.984 162.182 114.432C162.602 114.871 163.185 115.09 163.932 115.09C164.408 115.09 164.828 115.048 165.192 114.964C165.565 114.871 165.948 114.74 166.34 114.572V115.65C165.957 115.818 165.579 115.939 165.206 116.014C164.832 116.098 164.389 116.14 163.876 116.14C163.166 116.14 162.536 115.995 161.986 115.706C161.444 115.417 161.02 114.987 160.712 114.418C160.413 113.839 160.264 113.135 160.264 112.304C160.264 111.483 160.399 110.778 160.67 110.19C160.95 109.602 161.337 109.149 161.832 108.832C162.336 108.515 162.919 108.356 163.582 108.356ZM163.568 109.364C162.98 109.364 162.513 109.555 162.168 109.938C161.832 110.311 161.631 110.834 161.566 111.506H165.388C165.378 110.871 165.229 110.358 164.94 109.966C164.65 109.565 164.193 109.364 163.568 109.364ZM177.795 108.496V114.964H178.887V118.604H177.697V116H172.475V118.604H171.299V114.964H171.901C172.545 114.077 173.025 113.069 173.343 111.94C173.669 110.801 173.837 109.653 173.847 108.496H177.795ZM174.939 109.462C174.901 110.097 174.803 110.755 174.645 111.436C174.486 112.108 174.281 112.752 174.029 113.368C173.786 113.984 173.501 114.516 173.175 114.964H176.605V109.462H174.939ZM186.069 116H184.823V109.518H182.611C182.49 111.095 182.322 112.369 182.107 113.34C181.893 114.301 181.608 115.001 181.253 115.44C180.899 115.879 180.451 116.098 179.909 116.098C179.788 116.098 179.667 116.089 179.545 116.07C179.433 116.061 179.34 116.037 179.265 116V115.076C179.321 115.095 179.382 115.109 179.447 115.118C179.513 115.127 179.578 115.132 179.643 115.132C180.147 115.132 180.549 114.595 180.847 113.522C181.155 112.449 181.389 110.773 181.547 108.496H186.069V116ZM188.913 116H187.485L189.627 112.85C189.338 112.775 189.058 112.659 188.787 112.5C188.517 112.332 188.297 112.103 188.129 111.814C187.961 111.515 187.877 111.147 187.877 110.708C187.877 109.989 188.12 109.443 188.605 109.07C189.091 108.687 189.735 108.496 190.537 108.496H193.897V116H192.665V113.018H190.845L188.913 116ZM189.067 110.722C189.067 111.151 189.226 111.473 189.543 111.688C189.87 111.893 190.323 111.996 190.901 111.996H192.665V109.518H190.663C190.094 109.518 189.683 109.63 189.431 109.854C189.189 110.078 189.067 110.367 189.067 110.722ZM203.478 108.356C204.402 108.356 205.144 108.678 205.704 109.322C206.274 109.966 206.558 110.937 206.558 112.234C206.558 113.513 206.274 114.483 205.704 115.146C205.144 115.809 204.398 116.14 203.464 116.14C202.886 116.14 202.405 116.033 202.022 115.818C201.649 115.594 201.355 115.337 201.14 115.048H201.056C201.075 115.207 201.094 115.407 201.112 115.65C201.131 115.893 201.14 116.103 201.14 116.28V119.36H199.908V108.496H200.916L201.084 109.518H201.14C201.364 109.191 201.658 108.916 202.022 108.692C202.386 108.468 202.872 108.356 203.478 108.356ZM203.254 109.392C202.489 109.392 201.948 109.607 201.63 110.036C201.322 110.465 201.159 111.119 201.14 111.996V112.234C201.14 113.158 201.29 113.872 201.588 114.376C201.896 114.871 202.461 115.118 203.282 115.118C203.74 115.118 204.113 114.992 204.402 114.74C204.701 114.488 204.92 114.147 205.06 113.718C205.21 113.279 205.284 112.78 205.284 112.22C205.284 111.361 205.116 110.675 204.78 110.162C204.454 109.649 203.945 109.392 203.254 109.392ZM211.42 108.356C212.064 108.356 212.614 108.496 213.072 108.776C213.538 109.056 213.893 109.453 214.136 109.966C214.388 110.47 214.514 111.063 214.514 111.744V112.486H209.376C209.394 113.335 209.609 113.984 210.02 114.432C210.44 114.871 211.023 115.09 211.77 115.09C212.246 115.09 212.666 115.048 213.03 114.964C213.403 114.871 213.786 114.74 214.178 114.572V115.65C213.795 115.818 213.417 115.939 213.044 116.014C212.67 116.098 212.227 116.14 211.714 116.14C211.004 116.14 210.374 115.995 209.824 115.706C209.282 115.417 208.858 114.987 208.55 114.418C208.251 113.839 208.102 113.135 208.102 112.304C208.102 111.483 208.237 110.778 208.508 110.19C208.788 109.602 209.175 109.149 209.67 108.832C210.174 108.515 210.757 108.356 211.42 108.356ZM211.406 109.364C210.818 109.364 210.351 109.555 210.006 109.938C209.67 110.311 209.469 110.834 209.404 111.506H213.226C213.216 110.871 213.067 110.358 212.778 109.966C212.488 109.565 212.031 109.364 211.406 109.364ZM224.474 108.496V116H223.368V111.212C223.368 111.016 223.373 110.811 223.382 110.596C223.401 110.381 223.419 110.171 223.438 109.966H223.396L220.946 116H219.91L217.53 109.966H217.488C217.516 110.386 217.53 110.815 217.53 111.254V116H216.424V108.496H218.062L220.428 114.53L222.836 108.496H224.474ZM233.393 112.234C233.393 113.475 233.076 114.437 232.441 115.118C231.816 115.799 230.967 116.14 229.893 116.14C229.231 116.14 228.638 115.991 228.115 115.692C227.602 115.384 227.196 114.941 226.897 114.362C226.599 113.774 226.449 113.065 226.449 112.234C226.449 110.993 226.762 110.036 227.387 109.364C228.013 108.692 228.862 108.356 229.935 108.356C230.617 108.356 231.214 108.51 231.727 108.818C232.25 109.117 232.656 109.555 232.945 110.134C233.244 110.703 233.393 111.403 233.393 112.234ZM227.723 112.234C227.723 113.121 227.896 113.825 228.241 114.348C228.596 114.861 229.156 115.118 229.921 115.118C230.677 115.118 231.233 114.861 231.587 114.348C231.942 113.825 232.119 113.121 232.119 112.234C232.119 111.347 231.942 110.652 231.587 110.148C231.233 109.644 230.673 109.392 229.907 109.392C229.142 109.392 228.587 109.644 228.241 110.148C227.896 110.652 227.723 111.347 227.723 112.234ZM236.578 108.496V111.618H240.652V108.496H241.884V116H240.652V112.654H236.578V116H235.346V108.496H236.578ZM249.44 109.532H246.99V116H245.772V109.532H243.35V108.496H249.44V109.532ZM253.76 108.37C254.675 108.37 255.351 108.571 255.79 108.972C256.229 109.373 256.448 110.013 256.448 110.89V116H255.552L255.314 114.936H255.258C254.931 115.347 254.586 115.65 254.222 115.846C253.867 116.042 253.373 116.14 252.738 116.14C252.057 116.14 251.492 115.963 251.044 115.608C250.596 115.244 250.372 114.679 250.372 113.914C250.372 113.167 250.666 112.593 251.254 112.192C251.842 111.781 252.747 111.557 253.97 111.52L255.244 111.478V111.03C255.244 110.405 255.109 109.971 254.838 109.728C254.567 109.485 254.185 109.364 253.69 109.364C253.298 109.364 252.925 109.425 252.57 109.546C252.215 109.658 251.884 109.789 251.576 109.938L251.198 109.014C251.525 108.837 251.912 108.687 252.36 108.566C252.808 108.435 253.275 108.37 253.76 108.37ZM254.124 112.374C253.191 112.411 252.542 112.561 252.178 112.822C251.823 113.083 251.646 113.452 251.646 113.928C251.646 114.348 251.772 114.656 252.024 114.852C252.285 115.048 252.617 115.146 253.018 115.146C253.653 115.146 254.18 114.973 254.6 114.628C255.02 114.273 255.23 113.732 255.23 113.004V112.332L254.124 112.374ZM263.564 113.074C263.564 113.186 263.56 113.354 263.55 113.578C263.541 113.802 263.527 114.026 263.508 114.25C263.499 114.474 263.49 114.651 263.48 114.782L267.498 108.496H269.01V116H267.862V111.576C267.862 111.427 267.862 111.231 267.862 110.988C267.872 110.745 267.881 110.507 267.89 110.274C267.9 110.031 267.909 109.849 267.918 109.728L263.928 116H262.402V108.496H263.564V113.074ZM278.045 116.14C277.383 116.14 276.79 116.005 276.267 115.734C275.754 115.463 275.348 115.043 275.049 114.474C274.76 113.905 274.615 113.177 274.615 112.29C274.615 111.366 274.769 110.615 275.077 110.036C275.385 109.457 275.801 109.033 276.323 108.762C276.855 108.491 277.457 108.356 278.129 108.356C278.512 108.356 278.881 108.398 279.235 108.482C279.59 108.557 279.879 108.65 280.103 108.762L279.725 109.784C279.501 109.7 279.24 109.621 278.941 109.546C278.643 109.471 278.363 109.434 278.101 109.434C276.627 109.434 275.889 110.381 275.889 112.276C275.889 113.181 276.067 113.877 276.421 114.362C276.785 114.838 277.322 115.076 278.031 115.076C278.442 115.076 278.801 115.034 279.109 114.95C279.427 114.866 279.716 114.763 279.977 114.642V115.734C279.725 115.865 279.445 115.963 279.137 116.028C278.839 116.103 278.475 116.14 278.045 116.14ZM286.942 109.532H284.492V116H283.274V109.532H280.852V108.496H286.942V109.532ZM291.99 108.356C292.914 108.356 293.656 108.678 294.216 109.322C294.785 109.966 295.07 110.937 295.07 112.234C295.07 113.513 294.785 114.483 294.216 115.146C293.656 115.809 292.909 116.14 291.976 116.14C291.397 116.14 290.917 116.033 290.534 115.818C290.161 115.594 289.867 115.337 289.652 115.048H289.568C289.587 115.207 289.605 115.407 289.624 115.65C289.643 115.893 289.652 116.103 289.652 116.28V119.36H288.42V108.496H289.428L289.596 109.518H289.652C289.876 109.191 290.17 108.916 290.534 108.692C290.898 108.468 291.383 108.356 291.99 108.356ZM291.766 109.392C291.001 109.392 290.459 109.607 290.142 110.036C289.834 110.465 289.671 111.119 289.652 111.996V112.234C289.652 113.158 289.801 113.872 290.1 114.376C290.408 114.871 290.973 115.118 291.794 115.118C292.251 115.118 292.625 114.992 292.914 114.74C293.213 114.488 293.432 114.147 293.572 113.718C293.721 113.279 293.796 112.78 293.796 112.22C293.796 111.361 293.628 110.675 293.292 110.162C292.965 109.649 292.457 109.392 291.766 109.392ZM303.557 112.234C303.557 113.475 303.24 114.437 302.605 115.118C301.98 115.799 301.131 116.14 300.057 116.14C299.395 116.14 298.802 115.991 298.279 115.692C297.766 115.384 297.36 114.941 297.061 114.362C296.763 113.774 296.613 113.065 296.613 112.234C296.613 110.993 296.926 110.036 297.551 109.364C298.177 108.692 299.026 108.356 300.099 108.356C300.781 108.356 301.378 108.51 301.891 108.818C302.414 109.117 302.82 109.555 303.109 110.134C303.408 110.703 303.557 111.403 303.557 112.234ZM297.887 112.234C297.887 113.121 298.06 113.825 298.405 114.348C298.76 114.861 299.32 115.118 300.085 115.118C300.841 115.118 301.397 114.861 301.751 114.348C302.106 113.825 302.283 113.121 302.283 112.234C302.283 111.347 302.106 110.652 301.751 110.148C301.397 109.644 300.837 109.392 300.071 109.392C299.306 109.392 298.751 109.644 298.405 110.148C298.06 110.652 297.887 111.347 297.887 112.234ZM306.672 113.074C306.672 113.186 306.667 113.354 306.658 113.578C306.648 113.802 306.634 114.026 306.616 114.25C306.606 114.474 306.597 114.651 306.588 114.782L310.606 108.496H312.118V116H310.97V111.576C310.97 111.427 310.97 111.231 310.97 110.988C310.979 110.745 310.988 110.507 310.998 110.274C311.007 110.031 311.016 109.849 311.026 109.728L307.036 116H305.51V108.496H306.672V113.074ZM319.686 109.532H317.236V116H316.018V109.532H313.596V108.496H319.686V109.532ZM323.925 108.356C324.569 108.356 325.12 108.496 325.577 108.776C326.044 109.056 326.399 109.453 326.641 109.966C326.893 110.47 327.019 111.063 327.019 111.744V112.486H321.881C321.9 113.335 322.115 113.984 322.525 114.432C322.945 114.871 323.529 115.09 324.275 115.09C324.751 115.09 325.171 115.048 325.535 114.964C325.909 114.871 326.291 114.74 326.683 114.572V115.65C326.301 115.818 325.923 115.939 325.549 116.014C325.176 116.098 324.733 116.14 324.219 116.14C323.51 116.14 322.88 115.995 322.329 115.706C321.788 115.417 321.363 114.987 321.055 114.418C320.757 113.839 320.607 113.135 320.607 112.304C320.607 111.483 320.743 110.778 321.013 110.19C321.293 109.602 321.681 109.149 322.175 108.832C322.679 108.515 323.263 108.356 323.925 108.356ZM323.911 109.364C323.323 109.364 322.857 109.555 322.511 109.938C322.175 110.311 321.975 110.834 321.909 111.506H325.731C325.722 110.871 325.573 110.358 325.283 109.966C324.994 109.565 324.537 109.364 323.911 109.364ZM334.642 116H333.396V109.518H331.184C331.062 111.095 330.894 112.369 330.68 113.34C330.465 114.301 330.18 115.001 329.826 115.44C329.471 115.879 329.023 116.098 328.482 116.098C328.36 116.098 328.239 116.089 328.118 116.07C328.006 116.061 327.912 116.037 327.838 116V115.076C327.894 115.095 327.954 115.109 328.02 115.118C328.085 115.127 328.15 115.132 328.216 115.132C328.72 115.132 329.121 114.595 329.42 113.522C329.728 112.449 329.961 110.773 330.12 108.496H334.642V116ZM340.481 111.576C342.432 111.576 343.407 112.285 343.407 113.704C343.407 114.404 343.169 114.964 342.693 115.384C342.217 115.795 341.461 116 340.425 116H337.023V108.496H338.255V111.576H340.481ZM342.175 113.774C342.175 113.317 342.012 113.009 341.685 112.85C341.368 112.682 340.92 112.598 340.341 112.598H338.255V115.006H340.369C340.892 115.006 341.321 114.913 341.657 114.726C342.003 114.539 342.175 114.222 342.175 113.774ZM348.346 116.14C347.683 116.14 347.091 116.005 346.568 115.734C346.055 115.463 345.649 115.043 345.35 114.474C345.061 113.905 344.916 113.177 344.916 112.29C344.916 111.366 345.07 110.615 345.378 110.036C345.686 109.457 346.101 109.033 346.624 108.762C347.156 108.491 347.758 108.356 348.43 108.356C348.813 108.356 349.181 108.398 349.536 108.482C349.891 108.557 350.18 108.65 350.404 108.762L350.026 109.784C349.802 109.7 349.541 109.621 349.242 109.546C348.943 109.471 348.663 109.434 348.402 109.434C346.927 109.434 346.19 110.381 346.19 112.276C346.19 113.181 346.367 113.877 346.722 114.362C347.086 114.838 347.623 115.076 348.332 115.076C348.743 115.076 349.102 115.034 349.41 114.95C349.727 114.866 350.017 114.763 350.278 114.642V115.734C350.026 115.865 349.746 115.963 349.438 116.028C349.139 116.103 348.775 116.14 348.346 116.14ZM357.243 109.532H354.793V116H353.575V109.532H351.153V108.496H357.243V109.532ZM364.755 110.386C364.755 110.853 364.615 111.217 364.335 111.478C364.055 111.739 363.695 111.917 363.257 112.01V112.066C363.723 112.131 364.129 112.299 364.475 112.57C364.82 112.831 364.993 113.242 364.993 113.802C364.993 114.437 364.755 114.964 364.279 115.384C363.812 115.795 363.037 116 361.955 116H358.721V108.496H361.941C362.473 108.496 362.949 108.557 363.369 108.678C363.798 108.79 364.134 108.986 364.377 109.266C364.629 109.537 364.755 109.91 364.755 110.386ZM363.509 110.54C363.509 110.185 363.378 109.929 363.117 109.77C362.865 109.602 362.449 109.518 361.871 109.518H359.953V111.576H361.647C362.888 111.576 363.509 111.231 363.509 110.54ZM363.719 113.802C363.719 113.373 363.555 113.065 363.229 112.878C362.902 112.691 362.421 112.598 361.787 112.598H359.953V115.006H361.815C362.431 115.006 362.902 114.917 363.229 114.74C363.555 114.553 363.719 114.241 363.719 113.802ZM369.629 108.37C370.544 108.37 371.22 108.571 371.659 108.972C372.098 109.373 372.317 110.013 372.317 110.89V116H371.421L371.183 114.936H371.127C370.8 115.347 370.455 115.65 370.091 115.846C369.736 116.042 369.242 116.14 368.607 116.14C367.926 116.14 367.361 115.963 366.913 115.608C366.465 115.244 366.241 114.679 366.241 113.914C366.241 113.167 366.535 112.593 367.123 112.192C367.711 111.781 368.616 111.557 369.839 111.52L371.113 111.478V111.03C371.113 110.405 370.978 109.971 370.707 109.728C370.436 109.485 370.054 109.364 369.559 109.364C369.167 109.364 368.794 109.425 368.439 109.546C368.084 109.658 367.753 109.789 367.445 109.938L367.067 109.014C367.394 108.837 367.781 108.687 368.229 108.566C368.677 108.435 369.144 108.37 369.629 108.37ZM369.993 112.374C369.06 112.411 368.411 112.561 368.047 112.822C367.692 113.083 367.515 113.452 367.515 113.928C367.515 114.348 367.641 114.656 367.893 114.852C368.154 115.048 368.486 115.146 368.887 115.146C369.522 115.146 370.049 114.973 370.469 114.628C370.889 114.273 371.099 113.732 371.099 113.004V112.332L369.993 112.374Z" fill="white"/>
<path d="M245.503 51.5039C245.797 51.7902 246.135 52.0261 246.506 52.2018C246.631 54.6751 247.163 57.111 248.08 59.4113C248.467 60.3305 248.669 61.3171 248.674 62.3144V64.9428C248.674 65.5336 248.909 66.1002 249.326 66.5179C249.744 66.9356 250.311 67.1703 250.901 67.1703H259.811C260.402 67.1703 260.968 66.9356 261.386 66.5179C261.804 66.1002 262.039 65.5336 262.039 64.9428C262.04 63.6709 262.474 62.4373 263.271 61.4457L268.12 55.4019C268.201 55.3128 268.276 55.2163 268.35 55.1272C268.424 55.0381 268.498 54.9713 268.565 54.8822C268.632 54.7931 268.706 54.6817 268.773 54.5777L268.959 54.3105C269.025 54.1991 269.07 54.0877 269.129 53.9838C269.189 53.8798 269.233 53.7907 269.278 53.6942C269.322 53.5977 269.374 53.4566 269.419 53.3378L269.53 53.0482C269.53 52.922 269.597 52.7958 269.627 52.6621C269.657 52.5285 269.679 52.4765 269.701 52.38C269.723 52.2835 269.701 52.1053 269.753 51.9716C269.805 51.838 269.753 51.786 269.798 51.6895C269.842 51.593 269.798 51.3776 269.798 51.2217C269.798 51.0658 269.798 51.0732 269.798 50.9915C269.79 50.7577 269.768 50.5246 269.731 50.2936L269.671 49.9372L268.929 45.1259C268.846 44.6136 268.696 44.1143 268.483 43.6409C268.472 43.6098 268.457 43.58 268.439 43.5518C267.775 42.1493 266.59 41.062 265.135 40.5225L262.818 39.6983L265.395 37.1739L267.979 34.501C268.066 34.4167 268.172 34.355 268.289 34.3213C268.405 34.2877 268.528 34.2831 268.647 34.3079C270.466 34.6925 272.364 34.3802 273.964 33.4329C275.565 32.4857 276.751 30.9723 277.289 29.1922C277.583 28.2313 277.676 27.2206 277.564 26.2222C277.532 25.9429 277.422 25.6784 277.246 25.4593C277.07 25.2402 276.835 25.0756 276.569 24.9846C276.303 24.8936 276.017 24.88 275.743 24.9453C275.47 25.0106 275.221 25.1522 275.025 25.3535L272.961 27.4622C272.892 27.5318 272.809 27.587 272.719 27.6247C272.628 27.6624 272.531 27.6818 272.433 27.6818C272.335 27.6818 272.238 27.6624 272.148 27.6247C272.057 27.587 271.975 27.5318 271.906 27.4622L269.827 25.3907C269.757 25.3195 269.701 25.2348 269.664 25.1417C269.627 25.0485 269.609 24.9489 269.612 24.8487C269.611 24.7492 269.631 24.6506 269.669 24.5587C269.707 24.4669 269.764 24.3837 269.835 24.3141L271.906 22.2054C272.104 22.0071 272.242 21.7569 272.304 21.4836C272.365 21.2103 272.349 20.9252 272.255 20.661C272.161 20.4024 271.996 20.1751 271.78 20.0046C271.563 19.8342 271.304 19.7273 271.03 19.6958C270.031 19.5912 269.022 19.6871 268.06 19.978C266.288 20.5235 264.785 21.712 263.845 23.31C262.905 24.9079 262.597 26.7995 262.982 28.613C263.009 28.7357 263.006 28.8634 262.971 28.9842C262.935 29.105 262.87 29.2149 262.781 29.3036L258.46 33.5357C258.117 33.0847 257.653 32.7409 257.121 32.5451C256.59 32.3493 256.014 32.3095 255.46 32.4305C254.907 32.5514 254.4 32.8281 253.999 33.2278C253.597 33.6276 253.319 34.1337 253.196 34.6866C252.754 34.5614 252.289 34.5405 251.838 34.6253C251.386 34.7101 250.961 34.8984 250.595 35.1754C250.228 35.4525 249.931 35.8106 249.727 36.2218C249.523 36.633 249.416 37.0859 249.416 37.5451C249.414 37.8977 249.477 38.2476 249.602 38.5772H249.424C248.96 38.6514 248.52 38.8347 248.14 39.1121C247.761 39.3894 247.453 39.7529 247.241 40.1725C247.029 40.5922 246.92 41.0561 246.923 41.5261C246.925 41.9962 247.04 42.4589 247.256 42.8762C246.519 43.1064 245.902 43.614 245.533 44.2916C245.164 44.9693 245.074 45.7638 245.281 46.5069C244.695 47.2163 244.393 48.118 244.434 49.0371C244.476 49.9563 244.857 50.8274 245.503 51.4816V51.5039ZM246.12 47.9177L246.253 48.0142C246.325 48.0823 246.402 48.1444 246.484 48.1998C246.629 48.2995 246.783 48.3864 246.944 48.4597L249.914 49.7367C250.046 49.7948 250.182 49.8419 250.322 49.8778L249.721 50.4718C249.626 50.5619 249.525 50.6439 249.416 50.7168L249.312 50.7836L249.067 50.9099L248.934 50.9693L248.652 51.0509H248.436H248.318C248.031 51.0673 247.745 51.0321 247.471 50.947C247.144 50.8428 246.846 50.6621 246.602 50.4198C246.275 50.0941 246.057 49.6749 245.979 49.22C245.9 48.7651 245.965 48.297 246.164 47.8805L246.12 47.9177ZM266.078 42.8168C266.798 43.4924 267.273 44.3883 267.429 45.3635L268.268 50.5609C268.296 50.7354 268.314 50.9114 268.32 51.0881C268.343 51.7007 268.242 52.3117 268.021 52.8837C267.8 53.4556 267.465 53.9765 267.036 54.4144L266.984 54.4664L262.113 60.4879C261.097 61.7498 260.546 63.3229 260.554 64.9428C260.554 65.1398 260.475 65.3286 260.336 65.4678C260.197 65.6071 260.008 65.6853 259.811 65.6853H250.901C250.704 65.6853 250.516 65.6071 250.376 65.4678C250.237 65.3286 250.159 65.1398 250.159 64.9428V62.3144C250.145 61.1183 249.893 59.9369 249.416 58.8396C248.617 56.8398 248.131 54.7285 247.976 52.5805H248.102C248.257 52.5767 248.41 52.5618 248.563 52.5359C248.624 52.5396 248.686 52.5396 248.748 52.5359C248.925 52.5037 249.099 52.4566 249.268 52.3948L249.454 52.3429C249.641 52.2647 249.822 52.1729 249.996 52.0681L250.114 52.0087C250.325 51.8722 250.521 51.7156 250.701 51.541L254.866 47.4499C255.346 47.3195 255.782 47.0631 256.128 46.7074L256.173 46.6703C256.282 46.5581 256.384 46.4391 256.477 46.3139C256.72 45.9826 256.887 45.6026 256.967 45.2002C257.199 45.2041 257.431 45.1817 257.658 45.1333C258.197 45.6606 258.846 46.0613 259.559 46.3065L261.326 46.9821C261.523 47.0511 261.697 47.1739 261.828 47.3366C261.96 47.4993 262.043 47.6954 262.068 47.9028C262.096 48.1573 262.038 48.4138 261.904 48.6316C261.769 48.8495 261.566 49.0163 261.326 49.1056C257.346 50.5906 255.096 53.1447 254.643 56.6716C254.614 56.8654 254.662 57.0633 254.777 57.2219C254.892 57.3805 255.066 57.4869 255.26 57.518H255.356C255.538 57.5195 255.713 57.4547 255.85 57.3357C255.987 57.2167 256.075 57.0518 256.099 56.872C256.5 53.9021 258.378 51.8083 261.846 50.5089C262.393 50.2973 262.855 49.9098 263.159 49.4072C263.463 48.9046 263.591 48.3154 263.524 47.732C263.464 47.2676 263.28 46.8278 262.991 46.4593C262.703 46.0907 262.319 45.807 261.883 45.6382L260.093 44.8957C259.448 44.671 258.878 44.2728 258.445 43.7449C258.35 43.6315 258.266 43.5097 258.193 43.3811C258.148 43.3142 258.103 43.2474 258.066 43.1806C257.987 43.0423 257.917 42.8984 257.858 42.75C257.821 42.6534 257.784 42.5569 257.754 42.453C257.725 42.349 257.703 42.2673 257.68 42.1782C257.658 42.0891 257.643 41.9555 257.628 41.8441C257.621 41.7477 257.621 41.6509 257.628 41.5546C257.625 41.525 257.625 41.495 257.628 41.4655C257.617 41.3296 257.617 41.193 257.628 41.0571C257.625 41.0077 257.625 40.958 257.628 40.9086C257.624 40.8691 257.624 40.8293 257.628 40.7898C257.658 40.5832 257.705 40.3794 257.769 40.181C257.832 39.9971 257.964 39.8451 258.138 39.7576C258.311 39.6702 258.512 39.6542 258.697 39.7132L264.578 41.9258C265.13 42.1237 265.64 42.4262 266.078 42.8168ZM263.798 30.3282C264.059 30.0666 264.25 29.7444 264.355 29.3906C264.46 29.0368 264.475 28.6624 264.4 28.3012C264.204 27.4059 264.225 26.477 264.459 25.5911C264.708 24.6083 265.207 23.7063 265.906 22.9727C266.606 22.239 267.484 21.6985 268.454 21.4035C269.228 21.1611 270.046 21.0852 270.852 21.1808L268.78 23.2894C268.573 23.4964 268.408 23.7423 268.296 24.013C268.183 24.2838 268.125 24.574 268.125 24.8672C268.125 25.1604 268.183 25.4507 268.296 25.7214C268.408 25.9922 268.573 26.2381 268.78 26.445L270.882 28.5611C271.307 28.9664 271.872 29.1925 272.459 29.1925C273.047 29.1925 273.612 28.9664 274.037 28.5611L276.146 26.4153C276.233 27.2137 276.16 28.0215 275.931 28.7912C275.639 29.7755 275.093 30.6659 274.349 31.3734C273.605 32.0809 272.689 32.5807 271.691 32.8229C270.798 33.0613 269.861 33.0817 268.959 32.8823C268.596 32.8055 268.22 32.8203 267.865 32.9253C267.51 33.0303 267.187 33.2222 266.924 33.4838L261.653 38.6811V38.6366C261.587 38.4417 261.5 38.2549 261.393 38.0797L259.291 34.8054L263.798 30.3282ZM255.304 34.0406C255.469 33.9363 255.653 33.8654 255.845 33.832C256.037 33.7987 256.234 33.8035 256.424 33.8463C256.615 33.889 256.795 33.9689 256.954 34.0812C257.113 34.1935 257.249 34.3362 257.354 34.501L257.717 35.0727L259.945 38.592L259.202 38.3173C258.926 38.2209 258.633 38.1811 258.341 38.2003C258.049 38.2194 257.764 38.2971 257.502 38.4287C257.43 38.4664 257.361 38.5085 257.294 38.5549L254.658 35.6221C254.593 35.3263 254.62 35.0176 254.736 34.7376C254.851 34.4576 255.05 34.2196 255.304 34.0555V34.0406ZM251.339 36.4834C251.478 36.3431 251.642 36.2317 251.824 36.1556C252.006 36.0795 252.201 36.0404 252.397 36.0404C252.594 36.0404 252.789 36.0795 252.971 36.1556C253.153 36.2317 253.317 36.3431 253.456 36.4834L256.366 39.728C256.329 39.8468 256.299 39.9656 256.262 40.0919C255.971 41.2398 256.081 42.4527 256.574 43.5296L252.527 39.7503L251.339 38.5623C251.063 38.2841 250.908 37.9078 250.908 37.5154C250.908 37.1231 251.063 36.7468 251.339 36.4685V36.4834ZM248.674 40.6636C248.905 40.3448 249.252 40.1306 249.641 40.068C250.029 40.0054 250.426 40.0994 250.745 40.3295L251.488 40.8937L255.534 44.6581C255.512 44.9259 255.417 45.1826 255.26 45.4006C255.211 45.4674 255.156 45.5296 255.096 45.5863C254.887 45.7727 254.63 45.8962 254.354 45.9426C254.086 45.997 253.809 45.9764 253.552 45.8832L249.535 43.0618L248.978 42.6534C248.687 42.4206 248.494 42.0866 248.437 41.718C248.381 41.3493 248.465 40.9729 248.674 40.6636ZM246.751 45.1185C246.867 44.8529 247.058 44.627 247.301 44.4686C247.543 44.3103 247.827 44.2265 248.117 44.2275C248.321 44.2259 248.523 44.2663 248.711 44.3463H248.77L252.527 46.9821C252.528 47.1782 252.491 47.3725 252.416 47.5538C252.351 47.7389 252.249 47.9087 252.116 48.053C251.984 48.1973 251.823 48.3129 251.644 48.3928C251.28 48.5434 250.872 48.5434 250.508 48.3928L247.538 47.1083C247.451 47.0703 247.369 47.023 247.293 46.9673C247.105 46.8173 246.952 46.627 246.847 46.4104L246.803 46.3287C246.715 46.144 246.667 45.9431 246.66 45.7386C246.654 45.5342 246.69 45.3307 246.766 45.1408L246.751 45.1185Z" fill="white"/>
<path d="M253.501 22.4612C253.46 22.5501 253.454 22.6517 253.486 22.7445C253.518 22.8373 253.585 22.9141 253.672 22.9587L255.157 23.7012C255.208 23.7249 255.264 23.7376 255.32 23.7383C255.405 23.7387 255.486 23.7104 255.552 23.6582C255.618 23.6059 255.665 23.5328 255.684 23.4508C255.703 23.3688 255.693 23.2828 255.657 23.2069C255.621 23.131 255.56 23.0696 255.484 23.033L253.999 22.2905C253.91 22.2489 253.808 22.2435 253.716 22.2754C253.623 22.3073 253.546 22.3739 253.501 22.4612Z" fill="white"/>
<path d="M256.063 21.5111C256.112 21.5117 256.16 21.5021 256.205 21.4829C256.249 21.4637 256.29 21.4354 256.323 21.3997C256.358 21.3664 256.387 21.3261 256.406 21.2814C256.425 21.2367 256.435 21.1885 256.435 21.1398C256.435 21.0911 256.425 21.0429 256.406 20.9982C256.387 20.9536 256.358 20.9133 256.323 20.88L254.838 19.395C254.769 19.3261 254.675 19.2874 254.578 19.2874C254.48 19.2874 254.387 19.3261 254.318 19.395C254.249 19.4639 254.21 19.5574 254.21 19.6549C254.21 19.7523 254.249 19.8458 254.318 19.9147L255.803 21.3997C255.836 21.4354 255.876 21.4637 255.921 21.4829C255.966 21.5021 256.014 21.5117 256.063 21.5111Z" fill="white"/>
<path d="M258.662 21.1399V20.3974C258.662 20.2989 258.622 20.2045 258.553 20.1349C258.483 20.0652 258.389 20.0261 258.29 20.0261C258.192 20.0261 258.097 20.0652 258.028 20.1349C257.958 20.2045 257.919 20.2989 257.919 20.3974V21.1399C257.919 21.2383 257.958 21.3327 258.028 21.4024C258.097 21.472 258.192 21.5111 258.29 21.5111C258.389 21.5111 258.483 21.472 258.553 21.4024C258.622 21.3327 258.662 21.2383 258.662 21.1399Z" fill="white"/>
</svg>
