<svg width="72" height="76" viewBox="0 0 72 76" fill="none" xmlns="http://www.w3.org/2000/svg">
<path d="M65.1089 73.7822H50.8515C50.3762 73.7822 49.901 74.1387 49.901 74.7327C49.901 75.3268 50.2574 75.6832 50.8515 75.6832H65.1089C65.5842 75.6832 66.0594 75.3268 66.0594 74.7327C66.0594 74.1387 65.5842 73.7822 65.1089 73.7822Z" fill="#C83F3A"/>
<path d="M71.0495 73.7822H68.6733C68.198 73.7822 67.7228 74.1387 67.7228 74.7327C67.7228 75.3268 68.0792 75.6832 68.6733 75.6832H71.0495C71.5248 75.6832 72 75.3268 72 74.7327C72 74.1387 71.5248 73.7822 71.0495 73.7822Z" fill="#C83F3A"/>
<path d="M2.13863 16.1584C2.61388 16.1584 3.08912 15.8019 3.08912 15.2079V5.70294C3.08912 5.22769 2.73269 4.75244 2.13863 4.75244C1.54457 4.75244 1.30695 5.22769 1.30695 5.70294V15.2079C1.30695 15.6831 1.66338 16.1584 2.13863 16.1584Z" fill="#C83F3A"/>
<path d="M2.13863 3.08911C2.61388 3.08911 3.08912 2.73267 3.08912 2.13861V0.950495C3.08912 0.475248 2.73269 0 2.13863 0C1.54457 0 1.30695 0.475248 1.30695 0.950495V2.13861C1.30695 2.61386 1.66338 3.08911 2.13863 3.08911Z" fill="#C83F3A"/>
<path d="M5.70297 44.6732C6.17822 44.6732 6.65347 44.3168 6.65347 43.7227C6.65347 43.1287 6.17822 42.891 5.70297 42.891H4.27723V41.3465C4.27723 40.8712 3.92079 40.396 3.32673 40.396C2.73267 40.396 2.37624 40.7524 2.37624 41.3465V42.891H0.950495C0.475247 42.891 0 43.2475 0 43.8415C0 44.4356 0.356436 44.792 0.950495 44.792H2.49505V46.3366C2.49505 46.8118 2.85149 47.2871 3.44554 47.2871C4.0396 47.2871 4.39604 46.9306 4.39604 46.3366V44.792H5.70297V44.6732Z" fill="#C83F3A"/>
<path d="M66.4159 4.87127H64.8713V3.32672C64.8713 2.85147 64.5149 2.37622 63.9208 2.37622C63.3268 2.37622 62.9703 2.73266 62.9703 3.32672V4.87127H61.4258C60.9505 4.87127 60.4753 5.22771 60.4753 5.82177C60.4753 6.41582 60.8317 6.77226 61.4258 6.77226H62.9703V8.31681C62.9703 8.79206 63.3268 9.26731 63.9208 9.26731C64.5149 9.26731 64.8713 8.91087 64.8713 8.31681V6.65345H66.4159C66.8911 6.65345 67.3664 6.29701 67.3664 5.70295C67.3664 5.10889 66.8911 4.87127 66.4159 4.87127Z" fill="#C83F3A"/>
<path d="M47.6436 53.3467C53.3465 53.3467 57.9802 48.713 57.9802 42.8913C57.9802 40.6338 58.9307 38.3764 60.4753 36.8318C64.5149 32.7922 64.5149 26.1388 60.4753 22.0992C58.8119 20.4358 57.9802 18.2972 57.9802 16.0398C57.9802 10.3368 53.3465 5.58432 47.5248 5.58432C45.2673 5.58432 43.0099 4.63383 41.4653 3.08927C37.4257 -0.950331 30.7723 -0.950331 26.7327 3.08927C25.0693 4.75264 22.9307 5.58432 20.6733 5.58432C14.9703 5.58432 10.2178 10.218 10.2178 16.0398C10.2178 18.2972 9.26733 20.5546 7.72278 22.0992C5.70297 24.119 4.63367 26.614 4.63367 29.4655C4.63367 32.1982 5.70297 34.812 7.72278 36.8318C9.38614 38.4952 10.2178 40.6338 10.2178 42.8913C10.2178 48.5942 14.8515 53.3467 20.6733 53.3467C22.9307 53.3467 25.1881 54.2972 26.7327 55.8418C28.7525 57.8616 31.3663 58.9309 34.099 58.9309C36.7129 58.9309 39.4455 57.8616 41.4653 55.8418C43.2475 54.1784 45.3861 53.3467 47.6436 53.3467ZM28.1584 54.5348C26.1386 52.515 23.5248 51.4457 20.7921 51.4457C16.0396 51.4457 12.1188 47.5249 12.1188 42.7724C12.1188 40.0398 11.0495 37.4259 9.02971 35.4061C7.36634 33.7427 6.53466 31.6041 6.53466 29.3467C6.53466 27.0893 7.48515 24.8318 9.02971 23.2873C11.0495 21.2675 12.1188 18.6536 12.1188 15.921C12.1188 11.1685 16.0396 7.24769 20.7921 7.24769C23.5248 7.24769 26.1386 6.17838 28.1584 4.15858C29.8218 2.73284 31.9604 1.90115 34.2178 1.90115C36.4753 1.90115 38.6139 2.73284 40.2772 4.3962C42.297 6.29719 44.9109 7.3665 47.6436 7.3665C52.396 7.3665 56.198 11.2873 56.198 16.0398C56.198 18.7724 57.2673 21.3863 59.2871 23.4061C62.6139 26.7328 62.6139 32.1982 59.2871 35.6437C57.2673 37.6635 56.198 40.2774 56.198 43.0101C56.198 47.7625 52.2772 51.6833 47.5248 51.6833C44.7921 51.6833 42.1782 52.7526 40.1584 54.7724C36.9505 57.9804 31.4852 57.9804 28.1584 54.5348Z" fill="#C83F3A"/>
<path d="M55.2476 29.4655C55.2476 28.9902 54.8911 28.515 54.2971 28.515C53.8218 28.515 53.3466 28.8714 53.3466 29.4655C53.3466 40.0398 44.6733 48.713 33.9802 48.8318C23.406 48.8318 14.7327 40.1586 14.6139 29.4655C14.6139 26.4952 15.2079 23.7625 16.5149 21.1487C19.9604 14.4952 26.8515 10.218 34.2178 10.218C42.2971 10.218 49.6634 15.3269 52.3961 23.0497C52.5149 23.5249 53.1089 23.7625 53.5842 23.6437C53.8218 23.5249 53.9406 23.4061 54.0594 23.1685C54.1782 22.9308 54.1782 22.6932 54.0594 22.4556C51.0891 14.1388 43.1287 8.43579 34.2178 8.43579C30.1782 8.43579 26.2574 9.62391 22.8119 11.7625C19.4852 13.9011 16.8713 16.8714 15.2079 20.4358C13.901 23.2873 13.1881 26.3764 13.1881 29.5843C13.1881 41.2279 22.6931 50.7328 34.3367 50.7328C45.9802 50.7328 55.2476 41.1091 55.2476 29.4655Z" fill="#C83F3A"/>
<path d="M53.3465 25.5445C53.2277 25.7821 53.2277 26.0197 53.2277 26.2574C53.3465 26.7326 53.703 26.9702 54.0594 26.9702H54.1782C54.4158 26.9702 54.6535 26.8514 54.7723 26.6138C54.8911 26.3762 55.0099 26.1386 54.8911 25.9009C54.7723 25.4257 54.297 25.0693 53.8218 25.1881C53.703 25.3069 53.5842 25.4257 53.3465 25.5445Z" fill="#C83F3A"/>
<path d="M48.5941 24.8317C48.4752 24.4753 48.2376 24.2377 47.8812 24.2377L38.9703 22.9308L35.0495 14.8516C34.6931 14.2575 33.7426 14.2575 33.505 14.8516L29.4653 22.9308L20.6733 24.2377C20.3168 24.2377 20.0792 24.4753 19.9604 24.8317C19.8416 25.1882 19.9604 25.5446 20.198 25.7822L26.6139 32.0793L24.9505 40.7525C24.9505 41.109 25.0693 41.4654 25.3069 41.5842C25.5446 41.8218 25.901 41.8218 26.2574 41.703L34.2178 37.5446L42.1782 41.703C42.297 41.8218 42.4158 41.8219 42.5347 41.8219C42.7723 41.8219 42.8911 41.8218 43.0099 41.703C43.2475 41.4654 43.3663 41.109 43.3663 40.8714L41.8218 32.0793L48.2376 25.7822C48.5941 25.5446 48.5941 25.1882 48.5941 24.8317ZM40.2772 31.01C40.0396 31.2476 39.9208 31.4852 40.0396 31.8417L41.3465 39.3268L34.5743 35.7624C34.4554 35.6436 34.3366 35.6436 34.2178 35.6436C34.099 35.6436 33.9802 35.6436 33.8614 35.7624L27.0891 39.3268L28.396 31.8417C28.396 31.604 28.396 31.2476 28.1584 31.01L22.6931 25.6634L30.1782 24.5941C30.4158 24.5941 30.7723 24.3565 30.8911 24.1189L34.2178 17.3466L37.5446 24.1189C37.6634 24.3565 37.901 24.5941 38.2574 24.5941L45.7426 25.6634L40.2772 31.01Z" fill="#C83F3A"/>
<path d="M28.2772 60.4754C27.802 60.2377 27.3267 60.4754 27.0891 60.9506L21.7426 72.3565L18.4158 63.0892C18.297 62.8516 18.1782 62.7328 17.9406 62.614C17.703 62.4952 17.4653 62.4952 17.2277 62.614L7.9604 65.9407L13.0693 54.8912C13.3069 54.416 13.0693 53.9407 12.5941 53.7031C12.1188 53.4655 11.6436 53.7031 11.4059 54.1783L5.34654 67.2476C5.22772 67.6041 5.22772 67.9605 5.46535 68.1981C5.70297 68.4358 6.05941 68.5546 6.41584 68.4358L16.8713 64.6338L20.6733 75.0892C20.7921 75.4457 21.1485 75.6833 21.505 75.6833C21.8614 75.6833 22.2178 75.4457 22.3366 75.208L28.5149 61.9011C28.9901 61.1882 28.7525 60.713 28.2772 60.4754Z" fill="#C83F3A"/>
<path d="M61.0693 68.0794C61.307 67.8417 61.4258 67.4853 61.1881 67.1289L55.4852 55.01C55.2476 54.5348 54.7723 54.416 54.2971 54.5348C53.8218 54.7724 53.703 55.2477 53.8218 55.7229L58.5743 65.9407L49.307 62.614C49.0693 62.4952 48.8317 62.4952 48.5941 62.614C48.3565 62.7328 48.2376 62.8516 48.1188 63.0893L44.9109 72.2378L39.9208 61.4259C39.6832 60.9506 39.2079 60.8318 38.7327 60.9506C38.2575 61.1883 38.1386 61.6635 38.2575 62.1388L44.198 74.8516C44.3169 75.2081 44.6733 75.3269 45.0297 75.3269C45.3862 75.3269 45.7426 75.0893 45.8614 74.7328L49.6634 64.2774L60.1188 68.0794C60.4753 68.4358 60.8317 68.317 61.0693 68.0794Z" fill="#C83F3A"/>
</svg>
