<svg width="96" height="79" viewBox="0 0 96 79" fill="none" xmlns="http://www.w3.org/2000/svg">
<path d="M15.472 18.8226L16.8941 21.5647C17.0972 22.0217 17.5713 22.3482 18.113 22.4134L21.228 22.8705C22.5147 23.0663 23.0564 24.568 22.1083 25.4821L19.8737 27.5713C19.4674 27.8977 19.3319 28.42 19.3996 28.9423L19.9414 31.9456C20.1445 33.1861 18.7902 34.1654 17.639 33.5779L14.8626 32.1415C14.3885 31.8804 13.8468 31.8804 13.3728 32.1415L10.5963 33.5779C9.44513 34.1654 8.09078 33.1861 8.29394 31.9456L8.83566 28.9423C8.90338 28.42 8.76796 27.963 8.36165 27.5713L6.12696 25.4821C5.17891 24.568 5.72066 23.0663 7.0073 22.8705L10.1223 22.4134C10.664 22.3482 11.0704 22.0217 11.3412 21.5647L12.7633 18.8226C13.2373 17.6474 14.8626 17.6474 15.472 18.8226Z" stroke="#C83F3A" stroke-width="2" stroke-miterlimit="10"/>
<path d="M83.2367 18.8226L84.6588 21.5647C84.8619 22.0217 85.336 22.3482 85.8777 22.4134L88.9927 22.8705C90.2794 23.0663 90.8211 24.568 89.873 25.4821L87.6384 27.5713C87.2321 27.8977 87.0966 28.42 87.1643 28.9423L87.7061 31.9456C87.9092 33.1861 86.5549 34.1654 85.4037 33.5779L82.6273 32.1415C82.1532 31.8804 81.6115 31.8804 81.1375 32.1415L78.361 33.5779C77.2098 34.1654 75.8555 33.1861 76.0586 31.9456L76.6004 28.9423C76.6681 28.42 76.5327 27.963 76.1264 27.5713L73.8917 25.4821C72.9436 24.568 73.4854 23.0663 74.772 22.8705L77.887 22.4134C78.4287 22.3482 78.8351 22.0217 79.1059 21.5647L80.528 18.8226C81.002 17.6474 82.6273 17.6474 83.2367 18.8226Z" stroke="#C83F3A" stroke-width="2" stroke-miterlimit="10"/>
<path d="M49.6023 2.38506L51.8776 6.69414C52.2026 7.41231 52.9611 7.92528 53.8279 8.02788L58.8119 8.74607C60.8705 9.05386 61.7373 11.4136 60.2204 12.85L56.6449 16.133C55.9948 16.646 55.7781 17.4668 55.8865 18.2876L56.7533 23.007C57.0783 24.9564 54.9113 26.4953 53.0694 25.572L48.6271 23.3148C47.8687 22.9044 47.0019 22.9044 46.2435 23.3148L41.8012 25.572C39.9593 26.4953 37.7923 24.9564 38.1173 23.007L38.9841 18.2876C39.0925 17.4668 38.8758 16.7486 38.2257 16.133L34.6502 12.85C33.1333 11.4136 34.0001 9.05386 36.0587 8.74607L41.0427 8.02788C41.9095 7.92528 42.5596 7.41231 42.993 6.69414L45.2683 2.38506C46.0268 0.538314 48.6271 0.538314 49.6023 2.38506Z" stroke="#C83F3A" stroke-width="2" stroke-miterlimit="10"/>
<path d="M52.6871 58.1482C56.3576 55.8894 58.7294 51.4282 58.7294 47.3059C58.7294 41.4329 53.9294 34.8823 47.4353 34.8823C40.9412 34.8823 36.1412 41.4329 36.1412 47.3059C36.1412 51.4282 38.5129 55.8894 42.1835 58.1482C33.4871 60.4635 27.1059 68.4258 27.1059 77.8C27.1059 78.4211 27.6141 78.9294 28.2353 78.9294H66.6353C67.2565 78.9294 67.7647 78.4211 67.7647 77.8C67.7647 68.4258 61.3835 60.4635 52.6871 58.1482ZM38.4 47.3059C38.4 41.4894 43.2 37.1411 47.4353 37.1411C51.6706 37.1411 56.4706 41.4894 56.4706 47.3059C56.4706 53.1223 51.6706 57.4706 47.4353 57.4706C43.2 57.4706 38.4 53.1223 38.4 47.3059ZM29.4212 76.6706C29.9859 67.24 37.8918 59.7294 47.4353 59.7294C56.9788 59.7294 64.8847 67.24 65.4494 76.6706H29.4212Z" fill="#C83F3A"/>
<path d="M85.5294 54.4274C88.0784 52.8587 89.7255 49.7607 89.7255 46.898C89.7255 42.8195 86.3922 38.2705 81.8824 38.2705C77.3726 38.2705 74.0392 42.8195 74.0392 46.898C74.0392 49.7607 75.6863 52.8587 78.2353 54.4274C72.1961 56.0352 67.7647 61.5646 67.7647 68.0744C67.7647 68.5058 68.1177 68.8587 68.549 68.8587H95.2157C95.6471 68.8587 96 68.5058 96 68.0744C96 61.5646 91.5686 56.0352 85.5294 54.4274ZM75.6078 46.898C75.6078 42.8587 78.9412 39.8391 81.8824 39.8391C84.8235 39.8391 88.1569 42.8587 88.1569 46.898C88.1569 50.9372 84.8235 53.9568 81.8824 53.9568C78.9412 53.9568 75.6078 50.9372 75.6078 46.898ZM69.3726 67.2901C69.7647 60.7411 75.2549 55.5254 81.8824 55.5254C88.5098 55.5254 94 60.7411 94.3922 67.2901H69.3726Z" fill="#C83F3A"/>
<path d="M17.7647 54.4274C20.3137 52.8587 21.9608 49.7607 21.9608 46.898C21.9608 42.8195 18.6275 38.2705 14.1176 38.2705C9.60784 38.2705 6.27451 42.8195 6.27451 46.898C6.27451 49.7607 7.92157 52.8587 10.4706 54.4274C4.43137 56.0352 0 61.5646 0 68.0744C0 68.5058 0.352941 68.8587 0.784314 68.8587H27.451C27.8824 68.8587 28.2353 68.5058 28.2353 68.0744C28.2353 61.5646 23.8039 56.0352 17.7647 54.4274ZM7.84314 46.898C7.84314 42.8587 11.1765 39.8391 14.1176 39.8391C17.0588 39.8391 20.3922 42.8587 20.3922 46.898C20.3922 50.9372 17.0588 53.9568 14.1176 53.9568C11.1765 53.9568 7.84314 50.9372 7.84314 46.898ZM1.60784 67.2901C2 60.7411 7.4902 55.5254 14.1176 55.5254C20.7451 55.5254 26.2353 60.7411 26.6275 67.2901H1.60784Z" fill="#C83F3A"/>
</svg>
