<svg width="30" height="29" viewBox="0 0 30 29" fill="none" xmlns="http://www.w3.org/2000/svg">
<path d="M26.2009 19.106H10.4894C10.2287 19.1064 9.97558 19.0262 9.77167 18.8785C9.56776 18.7307 9.42516 18.5244 9.36728 18.2932L6.72176 7.81201C6.68306 7.65891 6.68283 7.49983 6.72109 7.34664C6.75934 7.19344 6.83509 7.05006 6.9427 6.92716C7.05032 6.80427 7.18702 6.70502 7.34264 6.63682C7.49826 6.56861 7.6688 6.53319 7.84155 6.53321H28.8487C29.0217 6.53288 29.1924 6.56806 29.3484 6.63613C29.5043 6.70421 29.6413 6.80341 29.7491 6.92634C29.857 7.04928 29.933 7.19277 29.9713 7.34613C30.0097 7.49948 30.0095 7.65873 29.9708 7.81201L27.3207 18.2932C27.2629 18.524 27.1206 18.7301 26.9172 18.8778C26.7137 19.0255 26.4612 19.106 26.2009 19.106ZM11.4039 17.0165H25.2864L27.4057 8.62485H9.2838L11.4039 17.0165Z" fill="#101820"/>
<path d="M12.7374 28.4395C11.8667 28.4395 11.0155 28.2047 10.2915 27.7648C9.56747 27.3249 9.00319 26.6996 8.66997 25.9681C8.33675 25.2365 8.24956 24.4315 8.41944 23.6549C8.58931 22.8783 9.00861 22.1649 9.62432 21.605C10.24 21.0451 11.0245 20.6638 11.8785 20.5093C12.7325 20.3548 13.6177 20.4341 14.4222 20.7371C15.2267 21.0402 15.9142 21.5533 16.398 22.2117C16.8818 22.8701 17.14 23.6441 17.14 24.436C17.1388 25.4974 16.6745 26.5151 15.8492 27.2657C15.0238 28.0163 13.9047 28.4384 12.7374 28.4395ZM12.7374 22.5226C12.3211 22.5226 11.9141 22.6349 11.568 22.8452C11.2218 23.0556 10.9521 23.3546 10.7928 23.7043C10.6335 24.0541 10.5919 24.439 10.6731 24.8103C10.7544 25.1816 10.9549 25.5227 11.2494 25.7903C11.5438 26.058 11.9189 26.2402 12.3273 26.314C12.7356 26.3878 13.1588 26.3498 13.5434 26.2048C13.928 26.0598 14.2567 25.8144 14.4878 25.4995C14.719 25.1847 14.8423 24.8145 14.8422 24.436C14.8416 23.9286 14.6196 23.4421 14.225 23.0834C13.8304 22.7247 13.2954 22.523 12.7374 22.5226Z" fill="#101820"/>
<path d="M23.9522 28.4395C23.0814 28.4395 22.2303 28.2047 21.5063 27.7648C20.7823 27.3249 20.218 26.6996 19.8847 25.9681C19.5515 25.2365 19.4643 24.4315 19.6342 23.6549C19.8041 22.8783 20.2234 22.1649 20.8391 21.605C21.4548 21.0451 22.2393 20.6638 23.0933 20.5093C23.9473 20.3548 24.8325 20.4341 25.637 20.7371C26.4414 21.0402 27.129 21.5533 27.6128 22.2117C28.0965 22.8701 28.3547 23.6441 28.3547 24.436C28.3535 25.4974 27.8893 26.5151 27.0639 27.2657C26.2385 28.0163 25.1194 28.4384 23.9522 28.4395ZM23.9522 22.5226C23.5359 22.5226 23.1289 22.6349 22.7828 22.8452C22.4366 23.0556 22.1668 23.3546 22.0076 23.7043C21.8483 24.0541 21.8066 24.439 21.8879 24.8103C21.9692 25.1816 22.1697 25.5227 22.4642 25.7903C22.7586 26.058 23.1337 26.2402 23.542 26.314C23.9504 26.3878 24.3736 26.3498 24.7582 26.2048C25.1428 26.0598 25.4714 25.8144 25.7026 25.4995C25.9338 25.1847 26.0571 24.8145 26.057 24.436C26.0564 23.9286 25.8344 23.4421 25.4398 23.0834C25.0452 22.7247 24.5102 22.523 23.9522 22.5226Z" fill="#101820"/>
<path d="M7.84158 8.62284C7.60042 8.62282 7.36538 8.55379 7.16977 8.42553C6.97415 8.29726 6.82787 8.11628 6.75167 7.90821L4.78246 2.52901H1.14889C0.844188 2.52901 0.551963 2.41893 0.336503 2.223C0.121044 2.02706 0 1.76132 0 1.48423C0 1.20714 0.121044 0.941394 0.336503 0.745461C0.551963 0.549527 0.844188 0.439453 1.14889 0.439453H5.61426C5.85542 0.439473 6.09046 0.508504 6.28608 0.636764C6.4817 0.765025 6.62797 0.946011 6.70418 1.15408L8.93533 7.24791C8.99285 7.40495 9.00851 7.57216 8.98103 7.73578C8.95356 7.8994 8.88373 8.05475 8.77729 8.18901C8.67085 8.32328 8.53086 8.43263 8.36885 8.50806C8.20683 8.58348 8.02743 8.62282 7.84541 8.62284H7.84158Z" fill="#101820"/>
</svg>
