<svg width="22" height="25" viewBox="0 0 22 25" fill="none" xmlns="http://www.w3.org/2000/svg">
<path d="M0.833447 15.5092C0.742676 15.4183 0.616699 15.3666 0.488281 15.3666C0.359863 15.3666 0.233887 15.4183 0.143066 15.5092C0.0522461 15.6005 0 15.726 0 15.8549C0 15.9833 0.0521973 16.1088 0.143066 16.2001C0.233936 16.2909 0.359912 16.3431 0.488281 16.3431C0.616699 16.3431 0.742676 16.2909 0.833447 16.2001C0.924268 16.1088 0.976562 15.9833 0.976562 15.8549C0.976562 15.726 0.924316 15.6005 0.833447 15.5092Z" fill="black"/>
<path d="M19.8241 0H1.46484C0.657129 0 0 0.657129 0 1.46484V10.9626C0 10.9634 0 10.9643 0 10.9651V14.1438C0 14.4135 0.218652 14.6321 0.488281 14.6321C0.75791 14.6321 0.976562 14.4135 0.976562 14.1438V11.8885L0.981934 11.8921C2.95034 13.2312 4.42837 15.1188 5.25605 17.3512C6.33311 20.2558 8.43423 22.6169 11.1419 24.0233H5.53462L5.1207 23.5836C4.11797 22.5185 3.56572 21.1263 3.56572 19.6634C3.56572 19.3937 3.34707 19.1751 3.07744 19.1751C2.80781 19.1751 2.58916 19.3937 2.58916 19.6634C2.58916 21.2728 3.1602 22.8091 4.20322 24.0232H1.46484C1.19561 24.0232 0.976562 23.8042 0.976562 23.535V17.7387C0.976562 17.469 0.75791 17.2504 0.488281 17.2504C0.218652 17.2504 0 17.469 0 17.7387V23.535C0 24.3427 0.657129 24.9999 1.46484 24.9999H13.6208C13.622 24.9999 13.6231 25 13.6242 25C13.6254 25 13.6267 24.9999 13.6279 24.9999H19.8241C20.6318 24.9999 21.289 24.3427 21.289 23.535V1.46484C21.289 0.657129 20.6318 0 19.8241 0ZM20.3124 6.01084C19.8247 5.73413 19.2787 5.58686 18.7107 5.58686C17.7828 5.58686 16.9128 5.97827 16.2609 6.68897C14.9416 8.12744 14.9416 10.4681 16.2609 11.9065C16.9128 12.6172 17.7828 13.0087 18.7107 13.0087C19.2787 13.0087 19.8247 12.8614 20.3124 12.5847V17.2918C19.9303 17.8027 19.5133 18.2605 19.0708 18.6526C18.8689 18.8314 18.8502 19.14 19.0291 19.3418C19.1256 19.4508 19.2599 19.5063 19.3948 19.5063C19.5099 19.5063 19.6254 19.4659 19.7184 19.3835C19.9218 19.2034 20.12 19.0109 20.3124 18.8076V23.535C20.3124 23.8042 20.0934 24.0233 19.8241 24.0233H13.7083L13.0452 23.7881C9.8541 22.6562 7.34888 20.1862 6.17173 17.0116C5.2731 14.5879 3.66836 12.5385 1.5312 11.0846L0.976611 10.7074V1.46484C0.976611 1.19561 1.19565 0.976562 1.46489 0.976562H2.20986C2.7981 2.23086 3.10879 3.61831 3.10879 5.00342V6.30078C3.10879 6.57046 3.32744 6.78906 3.59707 6.78906C3.8667 6.78906 4.08535 6.57046 4.08535 6.30078V5.00342C4.08535 3.62681 3.80688 2.2481 3.27729 0.976562H8.45708C6.85566 3.22554 5.97446 6.18267 5.97446 9.31997C5.97446 12.5021 6.88052 15.4994 8.52563 17.7599C10.2048 20.0671 12.4521 21.3378 14.8537 21.3378C15.1233 21.3378 15.342 21.1192 15.342 20.8495C15.342 20.5798 15.1233 20.3612 14.8537 20.3612C12.7727 20.3612 10.8058 19.2333 9.31523 17.1853C6.15884 12.8483 6.15884 5.79155 9.31528 1.45459C9.43496 1.29014 9.55918 1.13013 9.68584 0.976514H19.8242C20.0934 0.976514 20.3124 1.19556 20.3124 1.46479V6.01084ZM20.3124 7.21953V11.3762C19.8657 11.8001 19.3036 12.0322 18.7107 12.0322C18.0597 12.0322 17.4453 11.7532 16.9806 11.2466C15.9951 10.1721 15.9951 8.42368 16.9806 7.34912C17.4453 6.84248 18.0597 6.56348 18.7107 6.56348C19.3036 6.56353 19.8657 6.79556 20.3124 7.21953Z" fill="black"/>
<path d="M15.2644 2.49915C15.1721 2.24578 14.8918 2.11512 14.6385 2.2074C13.6485 2.56795 12.7371 3.21102 12.0029 4.06702C11.8273 4.27171 11.851 4.57996 12.0557 4.75555C12.1478 4.83455 12.2608 4.87317 12.3733 4.87317C12.5109 4.87317 12.6476 4.81536 12.7442 4.70276C13.3694 3.97381 14.14 3.4282 14.9726 3.12503C15.226 3.03274 15.3566 2.75252 15.2644 2.49915Z" fill="black"/>
<path d="M17.3815 16.2088C17.3661 15.9395 17.1371 15.7342 16.866 15.7493L16.8573 15.7497C16.588 15.7652 16.3823 15.9959 16.3978 16.2652C16.4127 16.5249 16.628 16.7255 16.8849 16.7255C16.8942 16.7255 16.9037 16.7252 16.9133 16.7247L16.922 16.7242C17.1912 16.7088 17.397 16.478 17.3815 16.2088Z" fill="black"/>
<path d="M15.2603 15.5654C14.3135 15.2866 13.4434 14.7082 12.7442 13.893C11.158 12.0434 10.6797 9.27645 11.5258 6.84369C11.6143 6.589 11.4797 6.31068 11.225 6.22211C10.9699 6.13353 10.692 6.2682 10.6034 6.52294C9.64534 9.27782 10.1947 12.4203 12.003 14.5288C12.8253 15.4876 13.8563 16.17 14.9845 16.5022C15.0305 16.5158 15.077 16.5223 15.1226 16.5223C15.3336 16.5223 15.5282 16.3844 15.5908 16.1718C15.667 15.913 15.519 15.6415 15.2603 15.5654Z" fill="black"/>
</svg>
