<svg width="21" height="23" viewBox="0 0 21 23" fill="none" xmlns="http://www.w3.org/2000/svg">
<path d="M5.73214 0.456482L4.28019 4.44574L0.666664 2.95773L0 4.57706L3.68083 6.09271L0.49201 14.8531C0.254608 15.5077 0.286552 16.2298 0.580835 16.8609C0.875118 17.492 1.40771 17.9805 2.06177 18.2194L12.1689 21.8981C12.493 22.0161 12.8372 22.0691 13.1818 22.054C13.5264 22.039 13.8646 21.9562 14.1772 21.8105C14.4898 21.6647 14.7706 21.4588 15.0036 21.2045C15.2366 20.9502 15.4173 20.6525 15.5352 20.3284L20.7754 5.93184L5.73214 0.456482ZM13.8904 19.7296C13.851 19.8376 13.7908 19.9368 13.7132 20.0216C13.6355 20.1064 13.5419 20.175 13.4377 20.2236C13.3335 20.2722 13.2207 20.2998 13.1059 20.3048C12.991 20.3098 12.8763 20.2921 12.7682 20.2528L2.6608 16.5741C2.44262 16.4947 2.26492 16.3319 2.16679 16.1215C2.06866 15.911 2.05815 15.6702 2.13755 15.4521L3.04469 12.9596H16.3543L13.8904 19.7296ZM3.68198 11.2087L5.30125 6.75965L7.28926 7.57826C7.34982 7.96847 7.53798 8.32762 7.82432 8.59955C8.11066 8.87148 8.47905 9.04085 8.87187 9.08118C9.26469 9.12151 9.65981 9.03053 9.99543 8.82246C10.3311 8.6144 10.5883 8.30097 10.7269 7.9312C10.8654 7.56143 10.8776 7.15616 10.7614 6.77876C10.6452 6.40135 10.4072 6.0731 10.0846 5.84531C9.76205 5.61753 9.37309 5.50306 8.97856 5.5198C8.58403 5.53655 8.20616 5.68356 7.90406 5.93786L5.90062 5.1129L6.77859 2.70073L18.5311 6.97829L16.9671 11.2754V11.2087H3.68198Z" fill="#101820"/>
</svg>
