<svg width="25" height="22" viewBox="0 0 25 22" fill="none" xmlns="http://www.w3.org/2000/svg">
<path d="M8.91465 5.91143C8.86329 5.91143 8.81125 5.8972 8.76477 5.8674C8.63557 5.78456 8.59799 5.61256 8.68083 5.48336L10.7008 2.33311C10.7836 2.20402 10.9556 2.16633 11.0848 2.24916C11.214 2.33199 11.2516 2.504 11.1687 2.6332L9.14881 5.78345C9.09578 5.86617 9.00616 5.91143 8.91465 5.91143Z" fill="#101820"/>
<path d="M10.1933 5.91143C10.142 5.91143 10.0899 5.8972 10.0435 5.8674C9.91426 5.78456 9.87668 5.61256 9.95951 5.48336L11.9794 2.33311C12.0623 2.20402 12.2343 2.16633 12.3635 2.24916C12.4927 2.33199 12.5303 2.504 12.4474 2.6332L10.4275 5.78345C10.3745 5.86617 10.2848 5.91143 10.1933 5.91143Z" fill="#101820"/>
<path d="M13.4216 5.91143C13.3702 5.91143 13.3182 5.8972 13.2717 5.8674C13.1425 5.78456 13.105 5.61256 13.1878 5.48336L15.2077 2.33311C15.2906 2.20402 15.4626 2.16633 15.5918 2.24916C15.721 2.33199 15.7585 2.504 15.6757 2.6332L13.6558 5.78345C13.6027 5.86617 13.5131 5.91143 13.4216 5.91143Z" fill="#101820"/>
<path d="M2.7152 16.444C2.64404 16.444 2.57299 16.4169 2.51862 16.3626L0.998586 14.8426C0.889957 14.734 0.889957 14.558 0.998586 14.4495C1.10722 14.3409 1.28311 14.3409 1.39163 14.4495L2.91166 15.9696C3.02029 16.0781 3.02029 16.2541 2.91166 16.3626C2.8574 16.4169 2.78636 16.444 2.7152 16.444Z" fill="#101820"/>
<path d="M3.50122 15.6578C3.43006 15.6578 3.35901 15.6306 3.30464 15.5764L1.78472 14.0563C1.67609 13.9478 1.67609 13.7718 1.78472 13.6632C1.89324 13.5547 2.06925 13.5547 2.17776 13.6632L3.69769 15.1832C3.8062 15.2917 3.8062 15.4677 3.69769 15.5764C3.64354 15.6306 3.57238 15.6578 3.50122 15.6578Z" fill="#101820"/>
<path d="M13.4272 14.1414C13.0909 13.8052 12.5794 13.7494 12.1837 13.9725L8.17934 9.96802C7.85412 9.64291 7.32498 9.64302 7.00009 9.96813L5.3155 11.6527C5.09747 11.5097 4.84274 11.4326 4.57589 11.4326C4.21453 11.4326 3.87475 11.5733 3.61935 11.8288L0.0813887 15.3668C0.0292421 15.419 0 15.4897 0 15.5634C0 15.6371 0.0293533 15.7078 0.0813887 15.76L1.60142 17.2799C1.65568 17.3341 1.72684 17.3613 1.798 17.3613C1.86916 17.3613 1.94021 17.3341 1.99447 17.2799L5.53243 13.7419C5.99241 13.2818 6.05089 12.5702 5.70844 12.0459L7.39303 10.3613C7.50132 10.253 7.67778 10.2529 7.78618 10.3612L11.7906 14.3656C11.5675 14.7612 11.6231 15.2726 11.9596 15.6092C11.9756 15.6251 13.4305 16.8655 14.2218 16.8655C14.358 16.8655 14.4745 16.8287 14.5607 16.7426C14.5607 16.7425 14.5607 16.7425 14.5608 16.7425C15.1472 16.156 13.4459 14.1602 13.4272 14.1414ZM5.13938 13.3488L1.79789 16.6902L0.670901 15.5633L4.01239 12.2219C4.16294 12.0713 4.36297 11.9885 4.57578 11.9885C4.78859 11.9885 4.98884 12.0715 5.13927 12.2219C5.45004 12.5325 5.45004 13.0381 5.13938 13.3488ZM12.3527 15.216C12.165 15.0282 12.165 14.7225 12.3527 14.5347C12.4467 14.4407 12.5701 14.3938 12.6934 14.3938C12.8167 14.3938 12.9402 14.4407 13.0341 14.5347C13.3185 14.8191 14.0329 15.9037 14.1262 16.3082C13.7218 16.2149 12.6371 15.5005 12.3527 15.216Z" fill="#101820"/>
<path d="M14.8719 15.2548C14.8008 15.2548 14.7297 15.2277 14.6753 15.1734C14.5667 15.0649 14.5667 14.8889 14.6753 14.7804L15.2158 14.2399C15.3245 14.1313 15.5003 14.1313 15.6089 14.2399C15.7175 14.3484 15.7175 14.5244 15.6089 14.633L15.0684 15.1734C15.0141 15.2277 14.9431 15.2548 14.8719 15.2548Z" fill="#101820"/>
<path d="M11.6975 18.4292C11.6263 18.4292 11.5553 18.4021 11.5009 18.3478C11.3923 18.2393 11.3923 18.0633 11.5009 17.9547L12.5983 16.8572C12.7069 16.7486 12.8828 16.7486 12.9914 16.8572C13.1 16.9657 13.1 17.1418 12.9914 17.2503L11.894 18.3478C11.8398 18.4021 11.7686 18.4292 11.6975 18.4292Z" fill="#101820"/>
<path d="M16.4993 18.959C16.4281 18.959 16.357 18.9319 16.3027 18.8776L14.6753 17.2504C14.5667 17.1419 14.5667 16.9659 14.6753 16.8574C14.784 16.7487 14.9599 16.7487 15.0684 16.8574L16.6957 18.4846C16.8043 18.5931 16.8043 18.7691 16.6957 18.8776C16.6415 18.9318 16.5703 18.959 16.4993 18.959Z" fill="#101820"/>
<path d="M17.1983 16.2934H15.302C15.1485 16.2934 15.024 16.1689 15.024 16.0154C15.024 15.8618 15.1485 15.7374 15.302 15.7374H17.1983C17.3519 15.7374 17.4763 15.8618 17.4763 16.0154C17.4763 16.1688 17.3519 16.2934 17.1983 16.2934Z" fill="#101820"/>
<path d="M13.8334 18.959C13.6798 18.959 13.5554 18.8346 13.5554 18.681V17.4839C13.5554 17.3304 13.6798 17.2059 13.8334 17.2059C13.9869 17.2059 14.1114 17.3304 14.1114 17.4839V18.681C14.1114 18.8345 13.9869 18.959 13.8334 18.959Z" fill="#101820"/>
<path d="M11.3023 15.9033C11.437 15.9033 11.5552 15.8054 11.5766 15.6683C11.6004 15.5166 11.4966 15.3744 11.3449 15.3507C9.31321 15.0333 7.62817 13.6282 6.94749 11.6841C6.89679 11.5393 6.73835 11.4631 6.59336 11.5137C6.44848 11.5644 6.37221 11.7229 6.42291 11.8679C7.17142 14.0059 9.02457 15.5509 11.2592 15.9002C11.2738 15.9022 11.2882 15.9033 11.3023 15.9033Z" fill="#101820"/>
<path d="M6.63565 9.84002V1.94577C6.63565 1.17936 7.25907 0.555934 8.02548 0.555934H16.4015C17.1679 0.555934 17.7913 1.17936 17.7913 1.94577V9.84002C17.7913 11.3863 17.141 12.8766 16.0071 13.9291C15.8946 14.0335 15.8882 14.2094 15.9926 14.322C16.0473 14.381 16.1216 14.4108 16.1964 14.4108C16.264 14.4108 16.3319 14.3862 16.3854 14.3365C17.6321 13.1792 18.3473 11.5403 18.3473 9.83991V1.94577C18.3473 0.872927 17.4745 0 16.4015 0H8.02548C6.95264 0 6.07971 0.872927 6.07971 1.94577V9.84002C6.07971 9.99357 6.20413 10.118 6.35768 10.118C6.51123 10.118 6.63565 9.99357 6.63565 9.84002Z" fill="#101820"/>
<path d="M16.3829 5.63342V2.48317C16.3829 2.32962 16.2585 2.2052 16.105 2.2052H8.32191C8.16836 2.2052 8.04395 2.32962 8.04395 2.48317V5.63342C8.04395 5.78697 8.16836 5.91139 8.32191 5.91139H16.105C16.2585 5.91139 16.3829 5.78697 16.3829 5.63342ZM15.827 5.35545H8.59988V2.76113H15.827V5.35545Z" fill="#101820"/>
<path d="M24.722 16.5853H16.8647C16.7112 16.5853 16.5868 16.7097 16.5868 16.8633C16.5868 17.0168 16.7112 17.1413 16.8647 17.1413H24.444V19.1612H11.2128V17.1413H11.9336C12.0872 17.1413 12.2116 17.0168 12.2116 16.8633C12.2116 16.7097 12.0872 16.5853 11.9336 16.5853H10.9348C10.7813 16.5853 10.6569 16.7097 10.6569 16.8633V19.4392C10.6569 19.5927 10.7813 19.7171 10.9348 19.7171H24.722C24.8755 19.7171 24.9999 19.5927 24.9999 19.4392V16.8633C24.9999 16.7097 24.8755 16.5853 24.722 16.5853Z" fill="#101820"/>
<path d="M13.8334 7.28272C13.6798 7.28272 13.5554 7.1583 13.5554 7.00475V6.37477C13.5554 6.22122 13.6798 6.0968 13.8334 6.0968C13.9869 6.0968 14.1114 6.22122 14.1114 6.37477V7.00475C14.1114 7.1583 13.9869 7.28272 13.8334 7.28272Z" fill="#101820"/>
<path d="M13.8334 9.89559C13.6798 9.89559 13.5554 9.77117 13.5554 9.61762V7.83864C13.5554 7.68509 13.6798 7.56067 13.8334 7.56067C13.9869 7.56067 14.1114 7.68509 14.1114 7.83864V9.61762C14.1114 9.77117 13.9869 9.89559 13.8334 9.89559Z" fill="#101820"/>
<path d="M13.8334 13.6275C13.6798 13.6275 13.5554 13.503 13.5554 13.3495V10.47C13.5554 10.3164 13.6798 10.192 13.8334 10.192C13.9869 10.192 14.1114 10.3164 14.1114 10.47V13.3495C14.1114 13.503 13.9869 13.6275 13.8334 13.6275Z" fill="#101820"/>
<path d="M13.8334 21.6814C13.6798 21.6814 13.5554 21.5569 13.5554 21.4034V20.2915C13.5554 20.138 13.6798 20.0135 13.8334 20.0135C13.9869 20.0135 14.1114 20.138 14.1114 20.2915V21.4034C14.1114 21.5569 13.9869 21.6814 13.8334 21.6814Z" fill="#101820"/>
<path d="M23.9438 16.2934H21.6644C21.5109 16.2934 21.3865 16.1689 21.3865 16.0154C21.3865 15.8618 21.5109 15.7374 21.6644 15.7374H23.9438C24.0973 15.7374 24.2217 15.8618 24.2217 16.0154C24.2217 16.1688 24.0973 16.2934 23.9438 16.2934Z" fill="#101820"/>
<path d="M19.8298 16.2934H18.0137C17.8601 16.2934 17.7357 16.1689 17.7357 16.0154C17.7357 15.8618 17.8601 15.7374 18.0137 15.7374H19.8298C19.9834 15.7374 20.1078 15.8618 20.1078 16.0154C20.1078 16.1688 19.9834 16.2934 19.8298 16.2934Z" fill="#101820"/>
<path d="M8.91496 16.2934H7.69191C7.53836 16.2934 7.41394 16.1689 7.41394 16.0154C7.41394 15.8618 7.53836 15.7374 7.69191 15.7374H8.91496C9.06851 15.7374 9.19293 15.8618 9.19293 16.0154C9.19293 16.1688 9.06851 16.2934 8.91496 16.2934Z" fill="#101820"/>
<path d="M19.0205 11.1063C18.9493 11.1063 18.8783 11.0792 18.8239 11.0249C18.7153 10.9164 18.7153 10.7404 18.8239 10.6319L20.7859 8.66985C20.8945 8.56122 21.0704 8.56122 21.1789 8.66985C21.2876 8.77837 21.2876 8.95438 21.1789 9.0629L19.2171 11.0249C19.1628 11.0792 19.0916 11.1063 19.0205 11.1063Z" fill="#101820"/>
<path d="M9.77182 20.3548C9.70066 20.3548 9.62962 20.3277 9.57525 20.2734C9.46662 20.1649 9.46662 19.9889 9.57525 19.8804L9.9197 19.5359C10.0283 19.4273 10.2042 19.4273 10.3127 19.5359C10.4214 19.6445 10.4214 19.8205 10.3127 19.929L9.96829 20.2734C9.91403 20.3277 9.84287 20.3548 9.77182 20.3548Z" fill="#101820"/>
<path d="M18.7565 21.2165C18.6853 21.2165 18.6143 21.1893 18.5599 21.1351L17.8169 20.3921C17.7083 20.2836 17.7083 20.1076 17.8169 19.9991C17.9256 19.8904 18.1015 19.8904 18.21 19.9991L18.9529 20.742C19.0616 20.8505 19.0616 21.0266 18.9529 21.1351C18.8988 21.1893 18.8276 21.2165 18.7565 21.2165Z" fill="#101820"/>
<path d="M6.85805 16.2147H4.33778C4.18423 16.2147 4.05981 16.0903 4.05981 15.9368C4.05981 15.7832 4.18423 15.6588 4.33778 15.6588H6.85805C7.0116 15.6588 7.13601 15.7832 7.13601 15.9368C7.13601 16.0903 7.0116 16.2147 6.85805 16.2147Z" fill="#101820"/>
</svg>
