<svg width="25" height="26" viewBox="0 0 25 26" fill="none" xmlns="http://www.w3.org/2000/svg">
<path d="M0 8.24878V8.65201V13.6923H7.66129C8.54839 13.6923 9.27419 14.4181 9.27419 15.3052V21.9585C9.27419 23.7327 10.7258 25.1843 12.5 25.1843C14.2742 25.1843 15.7258 23.7327 15.7258 21.9585V15.3052C15.7258 14.4181 16.4516 13.6923 17.3387 13.6923H25V8.65201V8.24878V0.184265H0V8.24878ZM24.1935 12.8859H17.3387C16.0081 12.8859 14.9194 13.9746 14.9194 15.3052V21.9585C14.9194 23.2891 13.8306 24.3778 12.5 24.3778C11.1694 24.3778 10.0806 23.2891 10.0806 21.9585V15.3052C10.0806 13.9746 8.99194 12.8859 7.66129 12.8859H0.806452V9.05523H24.1935V12.8859ZM24.1935 0.990717V8.24878H0.806452V0.990717H24.1935Z" fill="#101820"/>
</svg>
