<svg width="27" height="22" viewBox="0 0 27 22" fill="none" xmlns="http://www.w3.org/2000/svg">
<path d="M4.98718 14.5889L5.57601 13.6905L5.06457 12.708" stroke="#101820" stroke-miterlimit="10" stroke-linecap="round" stroke-linejoin="round"/>
<path d="M16.3196 18.3086L15.9865 19.2019L15.184 19.2373L14.7533 19.9153L13.9609 19.7807L13.3973 20.3544L12.6503 20.0599L11.9807 20.5041L11.3112 20.0599L10.5642 20.3544L10.0023 19.7807L9.20989 19.9153L8.7792 19.2373L7.97671 19.2019L7.69576 18.4499L6.91851 18.2497L6.79906 17.454L6.08069 17.0973L6.12779 16.3301" stroke="#101820" stroke-miterlimit="10" stroke-linecap="round" stroke-linejoin="round"/>
<path d="M13.071 15.0701C13.4024 14.7655 13.6161 14.175 13.6161 13.6888C13.6161 12.7686 12.8691 12.0216 11.9488 12.0216C11.0286 12.0216 10.2816 12.7686 10.2816 13.6888C10.2816 14.1498 10.497 14.7689 10.7981 15.0701" stroke="#101820" stroke-miterlimit="10" stroke-linecap="round" stroke-linejoin="round"/>
<path d="M3.27124 10.2669V16.3302" stroke="#101820" stroke-miterlimit="10" stroke-linecap="round" stroke-linejoin="round"/>
<path d="M14.8004 10.8557C14.072 10.1222 13.0626 9.66797 11.9471 9.66797C10.2967 9.66797 8.87851 10.6622 8.2594 12.0855" stroke="#101820" stroke-miterlimit="10" stroke-linecap="round" stroke-linejoin="round"/>
<path d="M15.6602 12.1394C15.6501 12.1175 15.6417 12.0957 15.6316 12.0738C15.4751 11.7171 15.2682 11.3874 15.0192 11.093L14.994 11.0627C14.9772 11.0425 14.9587 11.0223 14.9418 11.0038C14.9334 10.9937 14.9233 10.9836 14.9149 10.9735C14.8981 10.955 14.8796 10.9348 14.8611 10.9163" stroke="#101820" stroke-miterlimit="10" stroke-linecap="round" stroke-linejoin="round"/>
<path d="M15.6938 12.2235C15.6887 12.2117 15.6837 12.1982 15.6786 12.1865C15.6736 12.1747 15.6685 12.1629 15.6652 12.1511" stroke="#101820" stroke-miterlimit="10" stroke-linecap="round" stroke-linejoin="round"/>
<path d="M15.7358 12.3362C15.7325 12.3278 15.7291 12.3194 15.7274 12.311" stroke="#101820" stroke-miterlimit="10" stroke-linecap="round" stroke-linejoin="round"/>
<path d="M15.7746 12.4523C15.7679 12.4321 15.7611 12.4136 15.7544 12.3934" stroke="#101820" stroke-miterlimit="10" stroke-linecap="round" stroke-linejoin="round"/>
<path d="M15.7931 12.5079C15.788 12.4893 15.7813 12.4708 15.7762 12.4523" stroke="#101820" stroke-miterlimit="10" stroke-linecap="round" stroke-linejoin="round"/>
<path d="M15.8115 12.57C15.8065 12.5515 15.7997 12.5313 15.7947 12.5128" stroke="#101820" stroke-miterlimit="10" stroke-linecap="round" stroke-linejoin="round"/>
<path d="M3.48657 12.708L6.44417 9.17841" stroke="#101820" stroke-miterlimit="10" stroke-linecap="round" stroke-linejoin="round"/>
<path d="M9.85938 6.88534L11.1447 4.65789L11.9472 3.26825L13.0508 1.35708C13.5269 0.880973 14.2991 0.880973 14.7736 1.35708C14.7736 1.35708 16.7672 0.849007 20.8991 2.21845C23.5252 3.08992 25.1588 4.27935 26 5.03137L19.0905 11.9358" stroke="#101820" stroke-miterlimit="10" stroke-linecap="round" stroke-linejoin="round"/>
<path d="M15.0528 6.88534L15.8318 5.53777C16.1952 4.90856 15.7409 4.12122 15.0141 4.12122H14.141C13.9492 4.12122 13.7726 4.22384 13.6767 4.38871L12.4822 6.45634" stroke="#101820" stroke-miterlimit="10" stroke-linecap="round" stroke-linejoin="round"/>
<path d="M9.26033 4.65285C8.96255 5.16933 8.30138 5.34598 7.78658 5.0482C7.27009 4.75042 7.09345 4.08926 7.39123 3.57445L8.11464 2.32277C8.41242 1.80629 9.07359 1.62964 9.58839 1.92742C10.0578 2.19828 10.2462 2.77028 10.0527 3.25985C10.0342 3.30864 10.0107 3.35575 9.98375 3.40285L9.26033 4.65285Z" stroke="#101820" stroke-miterlimit="10" stroke-linecap="round" stroke-linejoin="round"/>
<path d="M10.0764 3.26825H11.9472" stroke="#101820" stroke-miterlimit="10" stroke-linecap="round" stroke-linejoin="round"/>
<path d="M9.2605 4.65283H11.1347" stroke="#101820" stroke-miterlimit="10" stroke-linecap="round" stroke-linejoin="round"/>
<path d="M16.1749 7.92167L18.1214 4.55189C18.1214 4.55189 18.9828 4.48123 20.3909 4.89845C21.9572 5.36279 22.6554 5.87759 22.6554 5.87759L18.2173 10.3157L18.2156 10.3174" stroke="#101820" stroke-miterlimit="10" stroke-linecap="round" stroke-linejoin="round"/>
<path d="M14.8711 13.6888C14.9838 13.9748 15.2631 14.1784 15.5911 14.1784C15.6921 14.1784 15.7896 14.1582 15.8788 14.1229L19.0147 12.8847L19.7819 12.5818C19.8526 12.5532 19.9131 12.5044 19.9552 12.4422C19.9972 12.38 20.0225 12.3042 20.0225 12.2235C20.0225 12.0098 19.8492 11.8365 19.6355 11.8365C19.6069 11.8365 19.58 11.8399 19.5531 11.845L19.0938 11.9341L18.8583 11.9795L15.8115 12.5717L15.4448 12.6424C15.4397 12.6424 15.4347 12.6441 15.4296 12.6458H15.4263C15.078 12.7215 14.8156 13.031 14.8156 13.4011C14.8156 13.4348 14.8172 13.4684 14.8223 13.5021" stroke="#101820" stroke-miterlimit="10" stroke-linecap="round" stroke-linejoin="round"/>
<path d="M14.824 13.5054C14.8324 13.5694 14.8475 13.6316 14.8711 13.6888" stroke="#101820" stroke-miterlimit="10" stroke-linecap="round" stroke-linejoin="round"/>
<path d="M14.824 13.5054L14.8711 13.6888L15.2277 15.07L15.5524 16.3301" stroke="#101820" stroke-miterlimit="10" stroke-linecap="round" stroke-linejoin="round"/>
<path d="M3.48657 12.708H7.27526C7.36443 12.708 7.45023 12.698 7.53266 12.6778C7.854 12.6004 8.11981 12.3783 8.25776 12.0856" stroke="#101820" stroke-miterlimit="10" stroke-linecap="round" stroke-linejoin="round"/>
<path d="M16.9792 8.65684C16.7234 8.40112 16.4459 8.16391 16.1531 7.94856C14.9738 7.08383 13.5202 6.57239 11.9472 6.57239C11.2204 6.57239 10.5189 6.68174 9.85771 6.88363C8.5034 7.29917 7.3207 8.10839 6.4425 9.17669" stroke="#101820" stroke-miterlimit="10" stroke-linecap="round" stroke-linejoin="round"/>
<path d="M17.1927 8.88062C17.1793 8.86716 17.1675 8.8537 17.1541 8.83856" stroke="#101820" stroke-miterlimit="10" stroke-linecap="round" stroke-linejoin="round"/>
<path d="M17.361 9.06904C17.3459 9.05053 17.3291 9.03203 17.3139 9.01352C17.2988 8.99501 17.2819 8.97651 17.2651 8.95968C17.25 8.94286 17.2332 8.92436 17.218 8.90753" stroke="#101820" stroke-miterlimit="10" stroke-linecap="round" stroke-linejoin="round"/>
<path d="M18.4175 10.7228C18.3536 10.5849 18.2863 10.4503 18.2156 10.3174C17.975 9.87155 17.689 9.45264 17.361 9.07074" stroke="#101820" stroke-miterlimit="10" stroke-linecap="round" stroke-linejoin="round"/>
<path d="M18.4748 10.849C18.4664 10.8288 18.458 10.8103 18.4496 10.7901" stroke="#101820" stroke-miterlimit="10" stroke-linecap="round" stroke-linejoin="round"/>
<path d="M18.5471 11.0223C18.5269 10.9718 18.505 10.9213 18.4832 10.8708" stroke="#101820" stroke-miterlimit="10" stroke-linecap="round" stroke-linejoin="round"/>
<path d="M18.8583 11.9812C18.7776 11.6549 18.6749 11.3386 18.5521 11.0307" stroke="#101820" stroke-miterlimit="10" stroke-linecap="round" stroke-linejoin="round"/>
<path d="M7.6958 15.07C7.65711 14.9337 7.61673 14.7756 7.57972 14.6107C7.51074 14.3029 7.45691 13.9664 7.45691 13.6905C7.45691 13.4196 7.4956 12.9671 7.54103 12.7097" stroke="#101820" stroke-miterlimit="10" stroke-linecap="round" stroke-linejoin="round"/>
<path d="M15.0444 16.9442C15.0259 16.961 15.0074 16.9795 14.9889 16.9964C14.1898 17.7332 13.1215 18.1824 11.9489 18.1824C10.5054 18.1824 9.0821 17.3883 8.26111 16.3301" stroke="#101820" stroke-miterlimit="10" stroke-linecap="round" stroke-linejoin="round"/>
<path d="M18.8566 11.9812C18.7776 11.6599 18.6749 11.3419 18.5504 11.0307C18.5487 11.0273 18.5471 11.024 18.5471 11.0206C18.5269 10.9701 18.505 10.9197 18.4831 10.8692C18.4798 10.8625 18.4764 10.854 18.473 10.8473C18.4646 10.8271 18.4562 10.8086 18.4478 10.7884C18.4377 10.7666 18.4276 10.743 18.4175 10.7211C18.3553 10.5832 18.288 10.4486 18.2156 10.314C17.9801 9.87658 17.6958 9.45936 17.361 9.06737C17.361 9.06737 17.361 9.06568 17.3593 9.06568C17.3442 9.04718 17.3273 9.02867 17.3122 9.01017C17.2971 8.99166 17.2802 8.97315 17.2634 8.95633C17.2483 8.93951 17.2315 8.921 17.2163 8.90418C17.2079 8.89408 17.1995 8.88567 17.1911 8.87726C17.1776 8.8638 17.1658 8.84866 17.1524 8.8352C17.0952 8.77463 17.038 8.71407 16.9774 8.6535" stroke="#101820" stroke-miterlimit="10" stroke-linecap="round" stroke-linejoin="round"/>
<path d="M18.5588 16.3301C18.7826 15.7682 18.9323 15.1828 19.008 14.5889C19.0787 14.0303 19.0837 13.4651 19.0215 12.9048" stroke="#101820" stroke-miterlimit="10" stroke-linecap="round" stroke-linejoin="round"/>
<path d="M14.3109 16.3301L14.9872 16.9964L16.3197 18.3086L16.7403 18.7225C17.4452 18.0176 17.9717 17.2016 18.3183 16.3301" stroke="#101820" stroke-miterlimit="10" stroke-linecap="round" stroke-linejoin="round"/>
<path d="M14.792 10.8456C14.7954 10.849 14.7987 10.8524 14.8004 10.8557C14.8206 10.8759 14.8408 10.8961 14.8593 10.9163C14.8778 10.9348 14.8946 10.9533 14.9131 10.9735C14.9215 10.9836 14.9316 10.9937 14.94 11.0038C14.9585 11.024 14.9754 11.0442 14.9922 11.0627L15.0174 11.0929C15.2731 11.3958 15.4784 11.7255 15.6298 12.0738C15.6399 12.0956 15.65 12.1175 15.6584 12.1394C15.6601 12.1427 15.6618 12.1461 15.6635 12.1512C15.6685 12.1629 15.6736 12.1747 15.6769 12.1865C15.682 12.1983 15.687 12.2117 15.6921 12.2235C15.7038 12.2538 15.7139 12.2824 15.7257 12.3127C15.7291 12.3211 15.7324 12.3295 15.7341 12.3379L15.7543 12.3934C15.761 12.4136 15.7678 12.4321 15.7745 12.4523V12.454C15.7795 12.4725 15.7863 12.491 15.7913 12.5095C15.7913 12.5112 15.7913 12.5129 15.793 12.5145C15.798 12.533 15.8048 12.5532 15.8098 12.5717" stroke="#101820" stroke-miterlimit="10" stroke-linecap="round" stroke-linejoin="round"/>
<path d="M19.0081 14.5889H20.5525L21.7116 16.3301H1L2.16083 14.5889L3.27119 14.5939L4.98721 14.6023L5.20423 14.604L7.55113 14.6175" stroke="#101820" stroke-miterlimit="10" stroke-linecap="round" stroke-linejoin="round"/>
<path d="M15.2278 15.07H5.20422V14.6175" stroke="#101820" stroke-miterlimit="10" stroke-linecap="round" stroke-linejoin="round"/>
</svg>
