<svg width="25" height="25" viewBox="0 0 25 25" fill="none" xmlns="http://www.w3.org/2000/svg">
<path fill-rule="evenodd" clip-rule="evenodd" d="M0 0.78125C0 0.57405 0.08231 0.375336 0.228823 0.228823C0.375336 0.08231 0.57405 0 0.78125 0L24.2188 0C24.426 0 24.6247 0.08231 24.7712 0.228823C24.9177 0.375336 25 0.57405 25 0.78125V5.46875C25 5.67595 24.9177 5.87466 24.7712 6.02118C24.6247 6.16769 24.426 6.25 24.2188 6.25H21.875V9.375H24.2188C24.426 9.375 24.6247 9.45731 24.7712 9.60382C24.9177 9.75034 25 9.94905 25 10.1562V14.8438C25 15.051 24.9177 15.2497 24.7712 15.3962C24.6247 15.5427 24.426 15.625 24.2188 15.625H21.875V18.75H24.2188C24.426 18.75 24.6247 18.8323 24.7712 18.9788C24.9177 19.1253 25 19.324 25 19.5312V24.2188C25 24.426 24.9177 24.6247 24.7712 24.7712C24.6247 24.9177 24.426 25 24.2188 25H0.78125C0.57405 25 0.375336 24.9177 0.228823 24.7712C0.08231 24.6247 0 24.426 0 24.2188V19.5312C0 19.324 0.08231 19.1253 0.228823 18.9788C0.375336 18.8323 0.57405 18.75 0.78125 18.75H3.125V15.625H0.78125C0.57405 15.625 0.375336 15.5427 0.228823 15.3962C0.08231 15.2497 0 15.051 0 14.8438V10.1562C0 9.94905 0.08231 9.75034 0.228823 9.60382C0.375336 9.45731 0.57405 9.375 0.78125 9.375H3.125V6.25H0.78125C0.57405 6.25 0.375336 6.16769 0.228823 6.02118C0.08231 5.87466 0 5.67595 0 5.46875V0.78125ZM4.6875 6.25V9.375H11.7188V6.25H4.6875ZM13.2812 6.25V9.375H20.3125V6.25H13.2812ZM4.6875 15.625V18.75H11.7188V15.625H4.6875ZM13.2812 15.625V18.75H20.3125V15.625H13.2812ZM1.5625 1.5625V4.6875H7.03125V1.5625H1.5625ZM8.59375 1.5625V4.6875H23.4375V1.5625H8.59375ZM1.5625 10.9375V14.0625H7.03125V10.9375H1.5625ZM8.59375 10.9375V14.0625H16.4062V10.9375H8.59375ZM17.9688 10.9375V14.0625H23.4375V10.9375H17.9688ZM1.5625 20.3125V23.4375H7.03125V20.3125H1.5625ZM8.59375 20.3125V23.4375H16.4062V20.3125H8.59375ZM17.9688 20.3125V23.4375H23.4375V20.3125H17.9688Z" fill="#101820"/>
</svg>
