<svg width="25" height="15" viewBox="0 0 25 15" fill="none" xmlns="http://www.w3.org/2000/svg">
<path d="M4.43157 14.2436C4.53075 14.5435 4.81113 14.746 5.12698 14.746L19.873 14.746C20.1889 14.746 20.4691 14.5435 20.5684 14.2436L24.9629 0.962446C25.0368 0.739287 24.999 0.494194 24.8613 0.30346C24.7236 0.112917 24.5027 1.90735e-06 24.2675 1.90735e-06L0.732471 1.90735e-06C0.497297 1.90735e-06 0.276426 0.112917 0.138718 0.30346C0.00100708 0.494194 -0.0367584 0.739287 0.037056 0.962446L4.43157 14.2436ZM4.1859 8.83785L11.7676 8.83785V13.2812H5.65608L4.1859 8.83785ZM19.3439 13.2812L13.2324 13.2812V8.83785H20.8141L19.3439 13.2812ZM21.2988 7.37302L13.2324 7.37302L13.2324 1.46484L23.2538 1.46484L21.2988 7.37302ZM11.7676 1.46484L11.7676 7.37302L3.70125 7.37302L1.74622 1.46484H11.7676Z" fill="#101820"/>
</svg>
