<svg width="26" height="12" viewBox="0 0 26 12" fill="none" xmlns="http://www.w3.org/2000/svg">
<path d="M1.33217 0.184265L1.43465 0.184265V1.00406H1.33217C1.04524 1.00406 0.819798 1.22951 0.819798 1.51644C0.819798 1.80336 1.04524 2.02881 1.33217 2.02881L3.07424 2.02881V0.184265L20.29 0.184265V1.45495L25.0448 2.02881V2.84861L20.29 3.42246V4.69315L4.95977 4.69315L7.95203 10.8621L7.21421 11.2105L4.0375 4.69315H3.89404L3.89404 11.4565H3.07424L3.07424 4.69315V4.28325V2.84861L1.33217 2.84861C0.594355 2.84861 0 2.25425 0 1.51644C0 0.778618 0.594355 0.184265 1.33217 0.184265ZM3.89404 2.02881H4.50888V1.41396L5.32868 1.41396V2.02881L5.94353 2.02881V1.00406L3.89404 1.00406V2.02881ZM5.94353 2.84861L5.32868 2.84861V3.38147L5.02126 3.87335L5.94353 3.87335V2.84861ZM21.5607 2.43871L20.29 2.29524V2.60267L21.5607 2.43871ZM19.4702 3.05356V1.82386V1.00406L6.76333 1.00406V3.87335L19.4702 3.87335V3.05356ZM3.89404 3.87335H4.07849L4.50888 3.13554V2.84861H3.89404V3.87335Z" fill="#101820"/>
</svg>
