<svg width="25" height="25" viewBox="0 0 25 25" fill="none" xmlns="http://www.w3.org/2000/svg">
<path d="M24.7855 2.29312L22.7069 0.214508C22.4209 -0.0714783 21.9571 -0.0715271 21.6711 0.214508L0.214551 21.6711C0.0771484 21.8084 0 21.9947 0 22.1889C0 22.3832 0.0771484 22.5694 0.214551 22.7068L2.29316 24.7854C2.43618 24.9285 2.62363 25 2.81104 25C2.99844 25 3.18594 24.9285 3.32891 24.7854L24.7854 3.32886C24.9229 3.19151 25 3.00523 25 2.81099C25 2.61671 24.9229 2.43043 24.7855 2.29312ZM15.6271 8.33008L16.6699 9.37286L9.39126 16.6515L8.34844 15.6087L15.6271 8.33008ZM2.81104 23.2317L1.76821 22.1889L7.31265 16.6445L8.35547 17.6873L2.81104 23.2317ZM17.7057 8.33707L16.6629 7.29424L22.189 1.76822L23.2318 2.81099L17.7057 8.33707Z" fill="#101820"/>
</svg>
