<svg width="25" height="26" viewBox="0 0 25 26" fill="none" xmlns="http://www.w3.org/2000/svg">
<path d="M0 13.2922C0 13.2402 0 13.1882 0 13.1362C0.096 12.8552 0.305 12.7722 0.585 12.7732C2.519 12.7762 4.452 12.7742 6.385 12.7732C6.476 12.7732 6.567 12.7732 6.651 12.7732C6.651 11.3612 6.651 9.98724 6.651 8.60024C6.562 8.60024 6.493 8.60024 6.425 8.60024C4.491 8.60024 2.558 8.59624 0.625 8.60624C0.347 8.60724 0.137 8.53824 0 8.29224C0 8.24024 0 8.18824 0 8.13524C0.096 7.85524 0.305 7.77224 0.585 7.77324C2.467 7.77724 4.348 7.77424 6.229 7.77424C6.372 7.77424 6.516 7.77424 6.67 7.77424C6.67 7.62224 6.67 7.51024 6.67 7.39824C6.67 5.23124 6.673 3.06324 6.664 0.89624C6.663 0.61824 6.733 0.40824 6.979 0.27124C7.031 0.27124 7.083 0.27124 7.135 0.27124C7.414 0.36924 7.5 0.57624 7.499 0.85824C7.494 3.06024 7.497 5.26224 7.497 7.46424C7.497 7.56424 7.497 7.66324 7.497 7.75424C8.911 7.75424 10.284 7.75424 11.67 7.75424C11.67 7.66624 11.67 7.59724 11.67 7.52824C11.67 5.31824 11.674 3.10724 11.665 0.89624C11.664 0.61824 11.734 0.40924 11.979 0.27124C12.031 0.27124 12.083 0.27124 12.135 0.27124C12.414 0.36924 12.5 0.57524 12.499 0.85724C12.495 3.07724 12.498 5.29624 12.499 7.51524C12.499 7.59724 12.499 7.68024 12.499 7.75424C13.91 7.75424 15.283 7.75424 16.671 7.75424C16.671 7.56924 16.671 7.40524 16.671 7.24124C16.671 5.12624 16.675 3.01124 16.665 0.89624C16.664 0.61724 16.734 0.40924 16.979 0.27124C17.031 0.27124 17.083 0.27124 17.136 0.27124C17.413 0.36924 17.5 0.57524 17.499 0.85724C17.494 3.05024 17.496 5.24224 17.496 7.43524C17.496 7.54324 17.496 7.65224 17.496 7.77524C17.661 7.77524 17.781 7.77524 17.902 7.77524C20.06 7.77524 22.218 7.77924 24.376 7.76924C24.654 7.76824 24.863 7.83824 25 8.08324C25 8.13524 25 8.18824 25 8.24024C24.9 8.53624 24.675 8.60424 24.389 8.60324C22.196 8.59924 20.002 8.60124 17.809 8.60124C17.709 8.60124 17.609 8.60124 17.517 8.60124C17.517 10.0162 17.517 11.3892 17.517 12.7732C17.606 12.7732 17.675 12.7732 17.744 12.7732C19.954 12.7742 22.165 12.7782 24.376 12.7702C24.653 12.7692 24.863 12.8372 25 13.0832C25 13.1362 25 13.1882 25 13.2402C24.904 13.5202 24.695 13.6032 24.415 13.6032C22.204 13.5992 19.993 13.6022 17.782 13.6022C17.691 13.6022 17.6 13.6022 17.516 13.6022C17.516 15.0152 17.516 16.3882 17.516 17.7742C17.631 17.7742 17.725 17.7742 17.82 17.7742C20.005 17.7742 22.19 17.7782 24.375 17.7692C24.653 17.7682 24.862 17.8372 25 18.0842C25 18.1352 25 18.1882 25 18.2402C24.896 18.5522 24.653 18.6052 24.363 18.6052C22.196 18.6002 20.028 18.6012 17.861 18.6012C17.744 18.6012 17.626 18.6012 17.496 18.6012C17.496 18.7532 17.496 18.8642 17.496 18.9762C17.496 20.8662 17.492 22.7562 17.501 24.6462C17.503 24.9252 17.433 25.1332 17.188 25.2712C17.136 25.2712 17.083 25.2712 17.031 25.2712C16.753 25.1732 16.667 24.9662 16.668 24.6852C16.673 22.7522 16.67 20.8192 16.67 18.8852C16.67 18.7942 16.67 18.7032 16.67 18.6212C15.256 18.6212 13.883 18.6212 12.497 18.6212C12.497 18.7012 12.497 18.7612 12.497 18.8212C12.497 20.7622 12.492 22.7042 12.502 24.6462C12.503 24.9252 12.433 25.1332 12.188 25.2712C12.135 25.2712 12.083 25.2712 12.031 25.2712C11.754 25.1732 11.667 24.9672 11.668 24.6852C11.672 22.7432 11.669 20.8022 11.668 18.8602C11.668 18.7782 11.668 18.6962 11.668 18.6212C10.257 18.6212 8.884 18.6212 7.496 18.6212C7.496 18.8062 7.496 18.9702 7.496 19.1342C7.496 20.9722 7.491 22.8092 7.501 24.6472C7.503 24.9262 7.434 25.1342 7.188 25.2712C7.135 25.2712 7.083 25.2712 7.031 25.2712C6.755 25.1722 6.667 24.9692 6.667 24.6852C6.673 22.7702 6.67 20.8552 6.67 18.9402C6.67 18.8322 6.67 18.7242 6.67 18.6012C6.524 18.6012 6.42 18.6012 6.317 18.6012C4.419 18.6002 2.522 18.5962 0.624 18.6062C0.345 18.6072 0.138 18.5362 0 18.2922C0 18.2402 0 18.1882 0 18.1352C0.096 17.8552 0.304 17.7722 0.585 17.7722C2.518 17.7762 4.451 17.7742 6.384 17.7732C6.475 17.7732 6.566 17.7732 6.65 17.7732C6.65 16.3592 6.65 14.9862 6.65 13.6032C6.561 13.6032 6.492 13.6032 6.424 13.6032C4.491 13.6022 2.557 13.5962 0.624 13.6062C0.346 13.6072 0.138 13.5372 0 13.2922ZM11.661 8.61824C10.261 8.61824 8.887 8.61824 7.514 8.61824C7.514 10.0102 7.514 11.3832 7.514 12.7562C8.905 12.7562 10.278 12.7562 11.661 12.7562C11.661 11.3702 11.661 10.0032 11.661 8.61824ZM12.51 12.7552C13.906 12.7552 15.28 12.7552 16.648 12.7552C16.648 11.3612 16.648 9.98724 16.648 8.61624C15.258 8.61624 13.89 8.61624 12.51 8.61624C12.51 9.99924 12.51 11.3662 12.51 12.7552ZM7.51 17.7552C8.906 17.7552 10.279 17.7552 11.648 17.7552C11.648 16.3612 11.648 14.9882 11.648 13.6162C10.258 13.6162 8.891 13.6162 7.51 13.6162C7.51 14.9982 7.51 16.3662 7.51 17.7552ZM16.653 17.7662C16.653 16.3662 16.653 14.9922 16.653 13.6192C15.262 13.6192 13.889 13.6192 12.514 13.6192C12.514 15.0102 12.514 16.3842 12.514 17.7662C13.9 17.7662 15.267 17.7662 16.653 17.7662Z" fill="#101820"/>
</svg>
