<svg width="25" height="25" viewBox="0 0 25 25" fill="none" xmlns="http://www.w3.org/2000/svg">
<path d="M24.5107 6.87341H21.7337C21.464 6.87341 21.2454 7.09207 21.2454 7.36169V7.75232H19.5853V7.36169C19.5853 7.09207 19.3667 6.87341 19.097 6.87341H18.5048C18.2352 6.87341 18.0166 7.09207 18.0166 7.36169C18.0166 7.63132 18.2352 7.84998 18.5048 7.84998H18.6087V8.2406C18.6087 8.51023 18.8273 8.72888 19.097 8.72888H21.7337C22.0034 8.72888 22.222 8.51023 22.222 8.2406V7.84998H24.0224V9.50974L18.7469 12.5657V10.9282C18.7469 10.7545 18.6546 10.5939 18.5046 10.5064L16.7933 9.50818C16.7679 9.26238 16.5602 9.07063 16.3076 9.07063C16.0379 9.07063 15.8193 9.28928 15.8193 9.55891V9.79016C15.8193 9.96384 15.9116 10.1244 16.0616 10.2119L17.7703 11.2087V20.6864C17.7703 20.7702 17.7919 20.8526 17.833 20.9256L19.9835 24.7509C20.07 24.9047 20.2327 24.9999 20.4091 24.9999C20.5856 24.9999 20.7483 24.9048 20.8348 24.7509L22.9853 20.9256C23.0264 20.8526 23.0479 20.7701 23.0479 20.6864V11.2087L24.7567 10.212C24.9067 10.1245 24.999 9.96389 24.999 9.79021V7.36169C24.999 7.09207 24.7804 6.87341 24.5107 6.87341ZM22.0714 15.5663L18.7469 17.4858V16.1533L22.0714 14.2339V15.5663ZM18.7468 18.6134L22.0713 16.694V18.0264L18.7468 19.9458V18.6134ZM22.0714 11.774V13.1063L18.7469 15.0258V13.6933L22.0714 11.774ZM20.4091 23.5153L18.9654 20.9472L22.0714 19.154V20.5585L20.4091 23.5153Z" fill="#101820"/>
<path d="M14.8013 11.1581C14.7787 11.0773 14.7357 11.0038 14.6764 10.9445L7.97471 4.24282L8.47822 2.32974C8.52241 2.16182 8.47407 1.98301 8.35127 1.8602L6.63403 0.142969C6.44336 -0.0476562 6.13418 -0.0476562 5.94346 0.142969L3.97988 2.10659C3.78921 2.29727 3.78921 2.6064 3.97988 2.79712L4.2561 3.07339L3.08218 4.24731L2.80596 3.97109C2.61528 3.78047 2.3061 3.78047 2.11543 3.97109L0.143018 5.94346C0.0514649 6.03506 0 6.15923 0 6.28872C0 6.41821 0.0514649 6.54238 0.143018 6.63398L1.86025 8.35122C1.98311 8.47402 2.16182 8.52241 2.32983 8.47817L4.24287 7.97466L10.9446 14.6764C11.0039 14.7356 11.0774 14.7787 11.1581 14.8013L15.3837 15.9855C15.4272 15.9977 15.4715 16.0036 15.5154 16.0036C15.6432 16.0036 15.7679 15.9535 15.8607 15.8606C15.9855 15.7358 16.0333 15.5535 15.9856 15.3835L14.8013 11.1581ZM11.1114 13.4622L10.1692 12.52L11.1628 8.81201L12.105 9.7542L11.1114 13.4622ZM8.42978 10.7805L9.42334 7.07251L10.3655 8.01465L9.37192 11.7227L8.42978 10.7805ZM8.62598 6.2752L7.63242 9.98315L6.69023 9.04097L7.68384 5.33301L8.62598 6.2752ZM4.26553 6.95889L2.35244 7.4624L1.17881 6.28877L2.46069 5.00688L2.73691 5.2831C2.92759 5.47373 3.23677 5.47373 3.42744 5.2831L5.29185 3.41865C5.48252 3.22798 5.48257 2.9188 5.29185 2.72812L5.01562 2.45186L6.28872 1.17881L7.4624 2.35244L5.89292 8.24365L4.73506 7.08579C4.61226 6.96304 4.43355 6.9147 4.26553 6.95889ZM11.9741 14.0158L12.9023 10.5515L13.8955 11.5446L14.8108 14.8108L11.9741 14.0158Z" fill="#101820"/>
<path d="M16.3076 7.84998C16.436 7.84998 16.562 7.79778 16.6528 7.70691C16.7437 7.61604 16.7959 7.49011 16.7959 7.36169C16.7959 7.23328 16.7437 7.1073 16.6528 7.01653C16.562 6.92571 16.436 6.87341 16.3076 6.87341C16.1792 6.87341 16.0532 6.92566 15.9624 7.01653C15.8716 7.1073 15.8193 7.23328 15.8193 7.36169C15.8193 7.49011 15.8716 7.61609 15.9624 7.70691C16.0532 7.79778 16.1792 7.84998 16.3076 7.84998Z" fill="#101820"/>
</svg>
