<svg width="11" height="27" viewBox="0 0 11 27" fill="none" xmlns="http://www.w3.org/2000/svg">
<path d="M3.82258 3.41931V6.24189C3.82258 6.24189 1 10.6371 1 11.0806V25.1935C1 25.6371 1.3629 26 1.80645 26H9.06452C9.50806 26 9.87097 25.6371 9.87097 25.1935V11.0806C9.87097 10.6371 7.04839 6.24189 7.04839 6.24189V3.41931" stroke="#101820" stroke-width="2"/>
<path fill-rule="evenodd" clip-rule="evenodd" d="M7.85482 2.6129C7.85482 3.05645 7.49192 3.41935 7.04837 3.41935H3.82256C3.37902 3.41935 3.01611 3.05645 3.01611 2.6129V1.80645C3.01611 1.3629 3.37902 1 3.82256 1H7.04837C7.49192 1 7.85482 1.3629 7.85482 1.80645V2.6129Z" stroke="#101820" stroke-width="2"/>
</svg>
