<svg width="20" height="25" viewBox="0 0 20 25" fill="none" xmlns="http://www.w3.org/2000/svg">
<path d="M10.9309 5.89228V4.81084L12.8161 4.18182V0.328491H7.09924V4.18187L8.98441 4.8109V15.1001H8.54097V15.7724H8.98441V17.762H7.15051V23.4857L9.95771 25L12.7649 23.4857V17.762H10.931V15.7724H11.3745V15.1001H10.931V6.57414H10.2586V15.1H9.65687V5.0352L9.95776 5.13561L10.2586 5.0352V5.89228H10.9309ZM10.2585 17.648H9.65675V16.7276H10.2585V17.648ZM12.0924 18.4343V23.0844L9.95765 24.236L7.82285 23.0844V18.4343H8.98436H9.62145V20.4319H10.2938V18.4343H10.9309H12.0924ZM10.2585 15.7724V16.0552H9.65675V15.7724H10.2585ZM7.77164 3.69736V1.00089H12.1437V3.69736L9.95765 4.42679L7.77164 3.69736Z" fill="#101820"/>
<path d="M10.2937 21.1329H9.62134V22.0239H10.2937V21.1329Z" fill="#101820"/>
<path d="M8.34302 3.23936H11.6645V1.2749H8.34302V3.23936ZM9.01541 1.9473H10.992V2.56702H9.01541V1.9473Z" fill="#101820"/>
<path d="M0 21.1009V24.9543H5.71676V21.1009L3.83164 20.4719V19.3808H3.15925V20.2476L2.85835 20.1472L2.55745 20.2476V10.3345H3.15925V18.6733H3.83164V10.3345H4.27503V9.6621H3.83164V7.97081H5.66549V6.23362C5.66549 5.0265 5.38112 3.81726 4.84309 2.73655L4.24119 3.03621C4.7331 4.0243 4.99309 5.12988 4.99309 6.23362V7.29841H3.19455V4.85084H2.52215V7.29841H0.723441V6.23362C0.723441 4.31432 1.49798 2.47062 2.85841 1.1274C3.25658 1.52041 3.60768 1.95881 3.90432 2.43391L4.47473 2.07783C4.09029 1.46208 3.62236 0.902816 3.08394 0.415554L2.85835 0.211426L2.63276 0.415554C0.992119 1.90037 0.0511582 4.02093 0.0511582 6.23356V7.97075H1.88517V9.66205H1.44167V10.3344H1.88517V20.4718L0 21.1009ZM3.1593 8.70691H2.55751V7.97103H3.1593V8.70691ZM2.55751 9.37931H3.1593V9.6621H2.55751V9.37931ZM5.04442 21.5855V24.2819H0.672395V21.5855L2.85841 20.856L5.04442 21.5855Z" fill="#101820"/>
<path d="M3.19461 3.25891H2.52222V4.14983H3.19461V3.25891Z" fill="#101820"/>
<path d="M4.56525 22.0435H1.2439V24.008H4.56525V22.0435ZM3.89285 23.3356H1.91629V22.7159H3.89285V23.3356Z" fill="#101820"/>
<path d="M14.1062 21.101V24.9543H19.823V21.101L17.9378 20.4719V12.2449H18.3813V11.5725H17.9378V9.95402H19.2447V7.80566C19.2447 6.27866 19.0256 4.74784 18.611 3.37878L17.9675 3.57361C18.3632 4.88035 18.5723 6.34377 18.5723 7.80566V9.28163H17.3008V7.03885H16.6284V9.28163H15.3571V7.80566C15.3571 5.34616 15.9386 2.98599 16.9647 1.23491C17.2405 1.70536 17.4861 2.22311 17.6975 2.77996L18.3262 2.54132C18.0276 1.75495 17.6634 1.03963 17.2437 0.415204L16.9647 0L16.6857 0.415204C15.414 2.30744 14.6847 5.00111 14.6847 7.80572V9.95408H15.9913V11.5726H15.5478V12.245H15.9913V20.472L14.1062 21.101ZM19.1506 24.2819H14.7787V21.5855L16.9647 20.856L19.1507 21.5855V24.2819H19.1506ZM17.2655 10.6173H16.6638V10.0161H17.2655V10.6173ZM16.6638 11.2897H17.2655V11.5725H16.6638V11.2897ZM16.6638 12.2449H17.2655V20.2475L16.9646 20.1471L16.6638 20.2475V12.2449Z" fill="#101820"/>
<path d="M15.3501 24.008H18.6714V22.0435H15.3501V24.008ZM16.0225 22.7159H17.9991V23.3356H16.0225V22.7159Z" fill="#101820"/>
<path d="M17.3008 5.4469H16.6284V6.33782H17.3008V5.4469Z" fill="#101820"/>
</svg>
