<svg width="16" height="16" viewBox="0 0 16 16" fill="none" xmlns="http://www.w3.org/2000/svg">
<path d="M8 16C6.41775 16 4.87103 15.5308 3.55544 14.6518C2.23985 13.7727 1.21447 12.5233 0.608967 11.0615C0.00346628 9.59966 -0.15496 7.99113 0.153721 6.43928C0.462403 4.88743 1.22433 3.46197 2.34315 2.34315C3.46197 1.22433 4.88743 0.462403 6.43928 0.153721C7.99113 -0.15496 9.59966 0.00346628 11.0615 0.608967C12.5233 1.21447 13.7727 2.23985 14.6518 3.55544C15.5308 4.87103 16 6.41775 16 8C16 10.1217 15.1571 12.1566 13.6569 13.6569C12.1566 15.1571 10.1217 16 8 16ZM8 1.23077C6.66117 1.23077 5.35241 1.62778 4.23922 2.37159C3.12603 3.11541 2.2584 4.17262 1.74605 5.40953C1.2337 6.64644 1.09965 8.00751 1.36084 9.32061C1.62203 10.6337 2.26674 11.8399 3.21343 12.7866C4.16013 13.7333 5.36629 14.378 6.67939 14.6392C7.99249 14.9004 9.35356 14.7663 10.5905 14.254C11.8274 13.7416 12.8846 12.874 13.6284 11.7608C14.3722 10.6476 14.7692 9.33883 14.7692 8C14.7692 6.20469 14.056 4.48291 12.7866 3.21343C11.5171 1.94396 9.79531 1.23077 8 1.23077Z" fill="#101820"/>
<path d="M11.3848 12C11.3038 12.0005 11.2235 11.985 11.1485 11.9543C11.0735 11.9237 11.0054 11.8786 10.9479 11.8215L7.56324 8.43693C7.5062 8.37943 7.46108 8.31124 7.43046 8.23626C7.39983 8.16128 7.38431 8.081 7.38478 8.00001V3.07693C7.38478 2.91372 7.44961 2.7572 7.56502 2.64179C7.68042 2.52638 7.83695 2.46155 8.00016 2.46155C8.16337 2.46155 8.3199 2.52638 8.4353 2.64179C8.55071 2.7572 8.61554 2.91372 8.61554 3.07693V7.7477L11.8217 10.9477C11.8794 11.0049 11.9252 11.073 11.9564 11.148C11.9876 11.223 12.0037 11.3034 12.0037 11.3846C12.0037 11.4659 11.9876 11.5463 11.9564 11.6213C11.9252 11.6963 11.8794 11.7643 11.8217 11.8215C11.7642 11.8786 11.696 11.9237 11.621 11.9543C11.546 11.985 11.4658 12.0005 11.3848 12Z" fill="#101820"/>
</svg>
