<svg width="254" height="50" viewBox="0 0 254 50" fill="none" xmlns="http://www.w3.org/2000/svg">
<path d="M49.7861 16.8379H51.7022V22.7441H49.0742V19H39.6172V6.15039H42.3418V16.7324H47.0703V6.15039H49.7861V16.8379ZM61.0801 19H53.6797V6.15039H61.0801V8.38281H56.4043V11.2041H60.7549V13.4365H56.4043V16.75H61.0801V19ZM74.2988 19H71.583V13.4541H66.4942V19H63.7695V6.15039H66.4942V11.1865H71.583V6.15039H74.2988V19ZM82.5078 19H79.7832V8.41797H76.294V6.15039H85.9971V8.41797H82.5078V19ZM90.6992 12.1973H91.5957C92.4336 12.1973 93.0606 12.0332 93.4766 11.7051C93.8926 11.3711 94.1006 10.8877 94.1006 10.2549C94.1006 9.61621 93.9248 9.14453 93.5733 8.83984C93.2276 8.53516 92.6826 8.38281 91.9385 8.38281H90.6992V12.1973ZM96.8516 10.1582C96.8516 11.541 96.418 12.5986 95.5508 13.3311C94.6895 14.0635 93.4619 14.4297 91.8682 14.4297H90.6992V19H87.9746V6.15039H92.0791C93.6377 6.15039 94.8213 6.4873 95.6299 7.16113C96.4444 7.8291 96.8516 8.82812 96.8516 10.1582ZM109.411 8.2334C108.386 8.2334 107.592 8.62012 107.029 9.39355C106.467 10.1611 106.186 11.2334 106.186 12.6104C106.186 15.4756 107.261 16.9082 109.411 16.9082C110.313 16.9082 111.406 16.6826 112.689 16.2314V18.5166C111.635 18.9561 110.457 19.1758 109.156 19.1758C107.287 19.1758 105.857 18.6104 104.867 17.4795C103.877 16.3428 103.382 14.7139 103.382 12.5928C103.382 11.2568 103.625 10.0879 104.111 9.08594C104.598 8.07812 105.295 7.30762 106.203 6.77441C107.117 6.23535 108.187 5.96582 109.411 5.96582C110.659 5.96582 111.913 6.26758 113.173 6.87109L112.294 9.08594C111.813 8.85742 111.33 8.6582 110.844 8.48828C110.357 8.31836 109.88 8.2334 109.411 8.2334ZM120.389 19H117.664V8.41797H114.175V6.15039H123.878V8.41797H120.389V19ZM128.58 12.1973H129.477C130.314 12.1973 130.941 12.0332 131.357 11.7051C131.773 11.3711 131.981 10.8877 131.981 10.2549C131.981 9.61621 131.806 9.14453 131.454 8.83984C131.108 8.53516 130.563 8.38281 129.819 8.38281H128.58V12.1973ZM134.732 10.1582C134.732 11.541 134.299 12.5986 133.432 13.3311C132.57 14.0635 131.343 14.4297 129.749 14.4297H128.58V19H125.855V6.15039H129.96C131.519 6.15039 132.702 6.4873 133.511 7.16113C134.325 7.8291 134.732 8.82812 134.732 10.1582ZM148.821 12.5576C148.821 14.6846 148.294 16.3193 147.239 17.4619C146.185 18.6045 144.673 19.1758 142.704 19.1758C140.735 19.1758 139.224 18.6045 138.169 17.4619C137.114 16.3193 136.587 14.6787 136.587 12.54C136.587 10.4014 137.114 8.76953 138.169 7.64453C139.23 6.51367 140.747 5.94824 142.722 5.94824C144.696 5.94824 146.205 6.5166 147.248 7.65332C148.297 8.79004 148.821 10.4248 148.821 12.5576ZM139.443 12.5576C139.443 13.9932 139.716 15.0742 140.261 15.8008C140.806 16.5273 141.62 16.8906 142.704 16.8906C144.878 16.8906 145.965 15.4463 145.965 12.5576C145.965 9.66309 144.884 8.21582 142.722 8.21582C141.638 8.21582 140.82 8.58203 140.27 9.31445C139.719 10.041 139.443 11.1221 139.443 12.5576ZM151.484 6.15039H153.937V12.3555L153.901 14.0166L153.813 15.9062H153.866L159.799 6.15039H163.06V19H160.634V12.8301C160.634 12.0039 160.687 10.7793 160.792 9.15625H160.722L154.763 19H151.484V6.15039ZM171.26 19H168.535V8.41797H165.046V6.15039H174.749V8.41797H171.26V19ZM184.127 19H176.727V6.15039H184.127V8.38281H179.451V11.2041H183.802V13.4365H179.451V16.75H184.127V19ZM196.985 19H194.27V8.41797H191.123L190.982 9.5957C190.619 12.5898 190.297 14.6904 190.016 15.8975C189.74 17.0986 189.339 17.9453 188.812 18.4375C188.29 18.9297 187.566 19.1758 186.641 19.1758C186.148 19.1758 185.715 19.1113 185.34 18.9824V16.75C185.68 16.8672 185.999 16.9258 186.298 16.9258C186.608 16.9258 186.855 16.7852 187.036 16.5039C187.218 16.2168 187.388 15.6895 187.546 14.9219C187.71 14.1484 187.924 12.8857 188.188 11.1338C188.457 9.37598 188.686 7.71484 188.873 6.15039H196.985V19ZM209.281 14.9834C209.281 17.6611 207.512 19 203.973 19H200.229V6.15039H202.953V11.0811H204.025C205.701 11.0811 206.996 11.4209 207.91 12.1006C208.824 12.7803 209.281 13.7412 209.281 14.9834ZM202.953 16.7676H203.867C204.787 16.7676 205.461 16.6211 205.889 16.3281C206.316 16.0293 206.53 15.5811 206.53 14.9834C206.53 14.3916 206.313 13.9668 205.88 13.709C205.446 13.4453 204.702 13.3135 203.647 13.3135H202.953V16.7676ZM222.254 19H219.538V13.4541H214.449V19H211.725V6.15039H214.449V11.1865H219.538V6.15039H222.254V19ZM234.295 14.9834C234.295 16.3193 233.85 17.3242 232.959 17.998C232.074 18.666 230.762 19 229.021 19H225.506V6.15039H228.23V11.0811H229.109C230.756 11.0811 232.03 11.4238 232.933 12.1094C233.841 12.7891 234.295 13.7471 234.295 14.9834ZM228.23 16.7676H228.942C229.839 16.7676 230.495 16.6211 230.911 16.3281C231.327 16.0293 231.535 15.5811 231.535 14.9834C231.535 14.3857 231.333 13.958 230.929 13.7002C230.53 13.4424 229.827 13.3135 228.819 13.3135H228.23V16.7676ZM238.575 19H235.859V6.15039H238.575V19ZM252.207 19H249.096L246.107 14.1396L243.119 19H240.201L244.464 12.373L240.474 6.15039H243.48L246.248 10.7734L248.964 6.15039H251.899L247.865 12.5225L252.207 19ZM45.0576 44L41.9639 33.9189H41.8848C41.9961 35.9697 42.0518 37.3379 42.0518 38.0234V44H39.6172V31.1504H43.3262L46.3672 40.9766H46.4199L49.6455 31.1504H53.3545V44H50.8145V37.918C50.8145 37.6309 50.8174 37.2998 50.8233 36.9248C50.835 36.5498 50.876 35.5537 50.9463 33.9365H50.8672L47.5537 44H45.0576ZM64.4639 44L63.5322 40.9414H58.8477L57.916 44H54.9805L59.5156 31.0977H62.8467L67.3994 44H64.4639ZM62.8819 38.6562C62.0205 35.8848 61.5342 34.3174 61.4229 33.9541C61.3174 33.5908 61.2412 33.3037 61.1944 33.0928C61.001 33.8428 60.4473 35.6973 59.5332 38.6562H62.8819ZM73.3672 44H70.6426V33.418H67.1533V31.1504H76.8565V33.418H73.3672V44ZM86.2344 44H78.834V31.1504H86.2344V33.3828H81.5586V36.2041H85.9092V38.4365H81.5586V41.75H86.2344V44ZM91.6485 37.1973H92.5449C93.3828 37.1973 94.0098 37.0332 94.4258 36.7051C94.8418 36.3711 95.0498 35.8877 95.0498 35.2549C95.0498 34.6162 94.874 34.1445 94.5225 33.8398C94.1768 33.5352 93.6319 33.3828 92.8877 33.3828H91.6485V37.1973ZM97.8008 35.1582C97.8008 36.541 97.3672 37.5986 96.5 38.3311C95.6387 39.0635 94.4111 39.4297 92.8174 39.4297H91.6485V44H88.9238V31.1504H93.0283C94.5869 31.1504 95.7705 31.4873 96.5791 32.1611C97.3936 32.8291 97.8008 33.8281 97.8008 35.1582ZM100.227 31.1504H102.679V37.3555L102.644 39.0166L102.556 40.9062H102.608L108.541 31.1504H111.802V44H109.376V37.8301C109.376 37.0039 109.429 35.7793 109.534 34.1562H109.464L103.505 44H100.227V31.1504ZM122.911 44L121.98 40.9414H117.295L116.363 44H113.428L117.963 31.0977H121.294L125.847 44H122.911ZM121.329 38.6562C120.468 35.8848 119.981 34.3174 119.87 33.9541C119.765 33.5908 119.688 33.3037 119.642 33.0928C119.448 33.8428 118.895 35.6973 117.98 38.6562H121.329ZM137.642 44H134.926V33.418H131.779L131.639 34.5957C131.275 37.5898 130.953 39.6904 130.672 40.8975C130.396 42.0986 129.995 42.9453 129.468 43.4375C128.946 43.9297 128.223 44.1758 127.297 44.1758C126.805 44.1758 126.371 44.1113 125.996 43.9824V41.75C126.336 41.8672 126.655 41.9258 126.954 41.9258C127.265 41.9258 127.511 41.7852 127.692 41.5039C127.874 41.2168 128.044 40.6895 128.202 39.9219C128.366 39.1484 128.58 37.8857 128.844 36.1338C129.113 34.376 129.342 32.7148 129.529 31.1504H137.642V44ZM152.548 37.5576C152.548 39.6846 152.021 41.3193 150.966 42.4619C149.911 43.6045 148.399 44.1758 146.431 44.1758C144.462 44.1758 142.95 43.6045 141.896 42.4619C140.841 41.3193 140.313 39.6787 140.313 37.54C140.313 35.4014 140.841 33.7695 141.896 32.6445C142.956 31.5137 144.474 30.9482 146.448 30.9482C148.423 30.9482 149.932 31.5166 150.975 32.6533C152.023 33.79 152.548 35.4248 152.548 37.5576ZM143.17 37.5576C143.17 38.9932 143.442 40.0742 143.987 40.8008C144.532 41.5273 145.347 41.8906 146.431 41.8906C148.605 41.8906 149.691 40.4463 149.691 37.5576C149.691 34.6631 148.61 33.2158 146.448 33.2158C145.364 33.2158 144.547 33.582 143.996 34.3145C143.445 35.041 143.17 36.1221 143.17 37.5576ZM155.211 31.1504H159.21C161.032 31.1504 162.354 31.4111 163.174 31.9326C164 32.4482 164.413 33.2715 164.413 34.4023C164.413 35.1699 164.231 35.7998 163.868 36.292C163.511 36.7842 163.033 37.0801 162.436 37.1797V37.2676C163.25 37.4492 163.836 37.7891 164.193 38.2871C164.557 38.7852 164.738 39.4473 164.738 40.2734C164.738 41.4453 164.313 42.3594 163.464 43.0156C162.62 43.6719 161.472 44 160.019 44H155.211V31.1504ZM157.936 36.2393H159.518C160.256 36.2393 160.789 36.125 161.117 35.8965C161.451 35.668 161.618 35.29 161.618 34.7627C161.618 34.2705 161.437 33.9189 161.073 33.708C160.716 33.4912 160.147 33.3828 159.368 33.3828H157.936V36.2393ZM157.936 38.4014V41.75H159.711C160.461 41.75 161.015 41.6064 161.372 41.3193C161.73 41.0322 161.908 40.5928 161.908 40.001C161.908 38.9346 161.146 38.4014 159.623 38.4014H157.936Z" fill="#E7E7E7"/>
<path d="M1.85282 34.3762C2.14291 34.6595 2.47791 34.8927 2.84422 35.0665C2.96782 37.5128 3.49384 39.9221 4.4011 42.1973C4.7841 43.1064 4.98375 44.0822 4.9886 45.0687V47.6684C4.9886 48.2527 5.22071 48.8131 5.63388 49.2262C6.04704 49.6394 6.60742 49.8715 7.19172 49.8715H16.0042C16.5885 49.8715 17.1489 49.6394 17.5621 49.2262C17.9752 48.8131 18.2073 48.2527 18.2073 47.6684C18.2084 46.4103 18.6384 45.1902 19.4264 44.2095L24.2219 38.2317C24.3027 38.1435 24.3761 38.0481 24.4495 37.9599C24.523 37.8718 24.5964 37.8057 24.6625 37.7176C24.7286 37.6295 24.802 37.5193 24.8681 37.4165L25.0517 37.1521C25.1178 37.042 25.1619 36.9318 25.2206 36.829C25.2794 36.7262 25.3234 36.6381 25.3675 36.5426C25.4116 36.4471 25.463 36.3076 25.507 36.1901L25.6172 35.9037C25.6172 35.7789 25.6833 35.654 25.7127 35.5218C25.742 35.3896 25.7641 35.3382 25.7861 35.2428C25.8081 35.1473 25.7861 34.971 25.8375 34.8389C25.8889 34.7067 25.8375 34.6553 25.8816 34.5598C25.9256 34.4643 25.8816 34.2514 25.8816 34.0971C25.8816 33.9429 25.8816 33.9503 25.8816 33.8695C25.8741 33.6382 25.852 33.4076 25.8155 33.1792L25.7567 32.8267L25.0223 28.0679C24.9403 27.5612 24.7921 27.0674 24.5817 26.5992C24.57 26.5684 24.5553 26.5389 24.5377 26.511C23.8815 25.1238 22.7085 24.0484 21.2697 23.5148L18.9784 22.6996L21.5267 20.2028L24.0823 17.559C24.1686 17.4756 24.2739 17.4146 24.3891 17.3814C24.5043 17.3481 24.6259 17.3435 24.7433 17.3681C26.5429 17.7484 28.4198 17.4396 30.0026 16.5027C31.5855 15.5657 32.7591 14.0689 33.2914 12.3082C33.5816 11.3579 33.674 10.3582 33.5631 9.37073C33.5318 9.09448 33.4227 8.83279 33.2485 8.6161C33.0743 8.3994 32.8422 8.2366 32.5792 8.1466C32.3161 8.05661 32.0329 8.04313 31.7625 8.10773C31.4921 8.17232 31.2456 8.31234 31.0516 8.51151L29.01 10.5971C28.9417 10.666 28.8605 10.7206 28.771 10.7579C28.6815 10.7952 28.5855 10.8144 28.4886 10.8144C28.3917 10.8144 28.2957 10.7952 28.2062 10.7579C28.1167 10.7206 28.0355 10.666 27.9672 10.5971L25.9109 8.54823C25.8411 8.47787 25.7862 8.3941 25.7496 8.30197C25.713 8.20983 25.6954 8.11124 25.698 8.01214C25.6974 7.91374 25.7166 7.81623 25.7545 7.72539C25.7923 7.63456 25.848 7.55226 25.9183 7.48339L27.9672 5.39776C28.163 5.20164 28.2993 4.95414 28.3603 4.68385C28.4214 4.41356 28.4048 4.1315 28.3123 3.87026C28.2188 3.61441 28.0559 3.38962 27.8419 3.22103C27.6279 3.05243 27.3713 2.94667 27.1006 2.91557C26.1127 2.81212 25.114 2.90699 24.1631 3.19464C22.4108 3.73421 20.9237 4.90979 19.9942 6.49024C19.0646 8.0707 18.7599 9.9417 19.14 11.7354C19.1675 11.8567 19.1637 11.983 19.1291 12.1025C19.0944 12.222 19.0299 12.3307 18.9417 12.4184L14.6677 16.6043C14.3289 16.1582 13.8696 15.8182 13.3439 15.6245C12.8182 15.4308 12.2482 15.3915 11.7009 15.5111C11.1536 15.6308 10.652 15.9044 10.2551 16.2998C9.85821 16.6952 9.58266 17.1958 9.46094 17.7426C9.02395 17.6188 8.56421 17.5981 8.11784 17.682C7.67148 17.7659 7.25065 17.9521 6.88841 18.2261C6.52618 18.5001 6.23242 18.8544 6.0302 19.2611C5.82798 19.6677 5.72282 20.1158 5.72297 20.5699C5.72071 20.9186 5.78295 21.2647 5.90657 21.5907H5.73032C5.27126 21.6641 4.83618 21.8454 4.46084 22.1198C4.08551 22.3941 3.78064 22.7535 3.5713 23.1686C3.36196 23.5837 3.25414 24.0426 3.25668 24.5075C3.25923 24.9723 3.37207 25.43 3.58594 25.8428C2.85772 26.0704 2.24666 26.5725 1.88207 27.2428C1.51748 27.913 1.42798 28.6988 1.6325 29.4339C1.05299 30.1355 0.754659 31.0273 0.795365 31.9364C0.836071 32.8455 1.21291 33.7071 1.85282 34.3542V34.3762ZM2.46235 30.8292L2.59454 30.9246C2.66525 30.992 2.74139 31.0534 2.82219 31.1082C2.9663 31.2068 3.11863 31.2928 3.2775 31.3653L6.215 32.6284C6.34563 32.6858 6.48071 32.7324 6.61891 32.7679L6.02407 33.3554C5.93071 33.4445 5.82998 33.5256 5.72297 33.5978L5.62016 33.6639L5.37782 33.7887L5.24563 33.8474L4.96657 33.9282H4.7536H4.6361C4.35313 33.9444 4.06956 33.9096 3.79891 33.8254C3.47513 33.7224 3.18057 33.5436 2.93969 33.304C2.61612 32.9819 2.40063 32.5672 2.32301 32.1172C2.24539 31.6673 2.30948 31.2044 2.50641 30.7924L2.46235 30.8292ZM22.2023 25.784C22.9148 26.4523 23.3849 27.3383 23.5389 28.3029L24.3688 33.4435C24.3968 33.6161 24.4139 33.7902 24.4202 33.9649C24.4433 34.5709 24.3426 35.1752 24.1241 35.7409C23.9057 36.3066 23.5741 36.8218 23.1497 37.2549L23.0983 37.3064L18.2808 43.2621C17.276 44.5102 16.7314 46.0661 16.7386 47.6684C16.7386 47.8632 16.6612 48.0499 16.5235 48.1877C16.3858 48.3254 16.199 48.4028 16.0042 48.4028H7.19172C6.99696 48.4028 6.81016 48.3254 6.67244 48.1877C6.53472 48.0499 6.45735 47.8632 6.45735 47.6684V45.0687C6.44381 43.8856 6.19414 42.7171 5.72297 41.6318C4.93229 39.6539 4.45174 37.5657 4.29829 35.441H4.42313C4.57576 35.4373 4.72792 35.4226 4.87844 35.397C4.93959 35.4006 5.00089 35.4006 5.06204 35.397C5.23705 35.3652 5.40902 35.3185 5.5761 35.2574L5.75969 35.206C5.94482 35.1288 6.12401 35.0379 6.29579 34.9343L6.41329 34.8756C6.62123 34.7406 6.81553 34.5856 6.99344 34.4129L11.1133 30.3665C11.5875 30.2375 12.0186 29.9839 12.3617 29.6321L12.4058 29.5954C12.5136 29.4845 12.6142 29.3668 12.7069 29.2429C12.9464 28.9152 13.1118 28.5394 13.1916 28.1414C13.421 28.1452 13.6501 28.1231 13.8745 28.0753C14.4073 28.5968 15.0495 28.9931 15.7545 29.2356L17.5023 29.9039C17.6975 29.9721 17.8696 30.0935 17.9994 30.2544C18.1292 30.4154 18.2114 30.6093 18.2367 30.8145C18.2641 31.0662 18.2067 31.3199 18.0737 31.5354C17.9407 31.7508 17.7396 31.9158 17.5023 32.0042C13.5661 33.4729 11.3409 35.9992 10.893 39.4874C10.8634 39.6792 10.9108 39.8749 11.0251 40.0318C11.1393 40.1886 11.3109 40.2939 11.5025 40.3246H11.598C11.7773 40.3262 11.9509 40.262 12.0862 40.1443C12.2215 40.0266 12.309 39.8635 12.3323 39.6857C12.7289 36.7482 14.5869 34.6773 18.0164 33.3921C18.5582 33.1828 19.0152 32.7996 19.3156 32.3025C19.616 31.8053 19.7428 31.2226 19.6761 30.6456C19.6173 30.1862 19.4354 29.7512 19.1497 29.3867C18.864 29.0222 18.4851 28.7416 18.0531 28.5746L16.2833 27.8403C15.6455 27.618 15.0814 27.2241 14.653 26.702C14.5591 26.5898 14.4755 26.4694 14.4033 26.3421C14.3592 26.276 14.3152 26.2099 14.2784 26.1439C14.1996 26.0071 14.1309 25.8647 14.0728 25.7179C14.0361 25.6224 13.9994 25.527 13.97 25.4242C13.9406 25.3214 13.9186 25.2406 13.8966 25.1524C13.8745 25.0643 13.8598 24.9321 13.8452 24.822C13.8379 24.7266 13.8379 24.6309 13.8452 24.5356C13.8415 24.5063 13.8415 24.4767 13.8452 24.4474C13.8342 24.313 13.8342 24.178 13.8452 24.0435C13.8416 23.9946 13.8416 23.9456 13.8452 23.8967C13.8411 23.8576 13.8411 23.8182 13.8452 23.7792C13.8742 23.5748 13.9209 23.3733 13.9847 23.177C14.0467 22.9951 14.1776 22.8448 14.3492 22.7583C14.5209 22.6718 14.7195 22.656 14.9027 22.7143L20.7189 24.9028C21.2654 25.0984 21.7691 25.3977 22.2023 25.784ZM19.9478 13.4318C20.2053 13.1731 20.3944 12.8544 20.4983 12.5045C20.6021 12.1545 20.6174 11.7843 20.5427 11.427C20.3494 10.5415 20.3695 9.62269 20.6014 8.74651C20.8476 7.77437 21.3407 6.88229 22.0329 6.15665C22.7251 5.43101 23.5929 4.89642 24.5523 4.60464C25.3187 4.36491 26.127 4.28983 26.9244 4.38432L24.8755 6.46995C24.6701 6.67463 24.5071 6.91783 24.3959 7.18563C24.2847 7.45342 24.2275 7.74053 24.2275 8.03049C24.2275 8.32046 24.2847 8.60757 24.3959 8.87536C24.5071 9.14315 24.6701 9.38636 24.8755 9.59104L26.9538 11.684C27.3744 12.0849 27.9332 12.3086 28.5143 12.3086C29.0954 12.3086 29.6542 12.0849 30.0749 11.684L32.1605 9.56167C32.2467 10.3514 32.1743 11.1503 31.9475 11.9117C31.6587 12.8852 31.1194 13.7658 30.3835 14.4656C29.6477 15.1654 28.741 15.6598 27.7542 15.8993C26.8711 16.1351 25.9443 16.1552 25.0517 15.9581C24.6933 15.8821 24.3216 15.8967 23.9703 16.0006C23.6189 16.1044 23.299 16.2943 23.0395 16.5529L17.8255 21.6935V21.6495C17.761 21.4567 17.6747 21.272 17.5684 21.0987L15.4902 17.8601L19.9478 13.4318ZM11.5466 17.1037C11.7095 17.0005 11.8913 16.9304 12.0813 16.8974C12.2714 16.8644 12.4661 16.8692 12.6543 16.9115C12.8425 16.9538 13.0206 17.0327 13.1783 17.1438C13.336 17.2549 13.4703 17.396 13.5734 17.559L13.9333 18.1245L16.1364 21.6054L15.402 21.3337C15.1287 21.2384 14.8389 21.199 14.55 21.2179C14.2611 21.2368 13.9789 21.3137 13.7203 21.4439C13.6492 21.4811 13.5806 21.5228 13.5147 21.5687L10.9077 18.6679C10.8434 18.3753 10.8702 18.07 10.9844 17.7931C11.0986 17.5161 11.2948 17.2807 11.5466 17.1184V17.1037ZM7.62501 19.5198C7.76167 19.381 7.92457 19.2708 8.10423 19.1956C8.28389 19.1204 8.47672 19.0816 8.67149 19.0816C8.86626 19.0816 9.05909 19.1204 9.23875 19.1956C9.41841 19.2708 9.58131 19.381 9.71797 19.5198L12.5967 22.729C12.56 22.8465 12.5306 22.964 12.4939 23.0889C12.2064 24.2243 12.3152 25.4239 12.8023 26.489L8.80001 22.751L7.62501 21.576C7.35145 21.3009 7.1979 20.9286 7.1979 20.5406C7.1979 20.1525 7.35145 19.7803 7.62501 19.5051V19.5198ZM4.9886 23.6543C5.21668 23.3391 5.56054 23.1272 5.94469 23.0652C6.32884 23.0033 6.72187 23.0963 7.03751 23.3239L7.77188 23.882L11.7742 27.6053C11.7518 27.8701 11.6579 28.1239 11.5025 28.3396C11.4545 28.4057 11.4004 28.4672 11.3409 28.5232C11.1343 28.7076 10.8797 28.8298 10.6066 28.8757C10.3418 28.9295 10.0674 28.9091 9.81344 28.817L5.84047 26.0264L5.28969 25.6224C5.00152 25.3921 4.81055 25.0618 4.75477 24.6972C4.69898 24.3325 4.78246 23.9602 4.9886 23.6543ZM3.08657 28.0606C3.20123 27.7978 3.39026 27.5744 3.63037 27.4178C3.87048 27.2612 4.15116 27.1783 4.43782 27.1793C4.63964 27.1777 4.83964 27.2177 5.02532 27.2968H5.08407L8.80001 29.9039C8.80098 30.0978 8.76354 30.29 8.68985 30.4693C8.62573 30.6523 8.52491 30.8203 8.39358 30.963C8.26226 31.1057 8.10318 31.2201 7.9261 31.2992C7.56637 31.4481 7.16223 31.4481 6.8025 31.2992L3.865 30.0287C3.77944 29.991 3.69819 29.9443 3.62266 29.8892C3.43649 29.7408 3.28593 29.5526 3.18204 29.3384L3.13797 29.2576C3.05127 29.0748 3.00325 28.8761 2.99693 28.6739C2.99061 28.4717 3.02613 28.2704 3.10125 28.0826L3.08657 28.0606Z" fill="#C83F3A"/>
<path d="M9.7633 5.65088C9.72223 5.7388 9.71689 5.83923 9.7484 5.93101C9.7799 6.02279 9.8458 6.09876 9.93221 6.14292L11.401 6.87729C11.4516 6.90077 11.5067 6.91328 11.5625 6.91401C11.6458 6.91435 11.7267 6.8864 11.7919 6.83474C11.8572 6.78307 11.903 6.71076 11.9218 6.62967C11.9405 6.54857 11.9312 6.4635 11.8953 6.3884C11.8594 6.3133 11.799 6.25264 11.7241 6.21635L10.2553 5.48198C10.1674 5.44091 10.067 5.43556 9.97521 5.46707C9.88343 5.49858 9.80746 5.56447 9.7633 5.65088Z" fill="#C83F3A"/>
<path d="M12.2969 4.71115C12.3451 4.71174 12.3928 4.70224 12.4371 4.68327C12.4813 4.6643 12.5211 4.63628 12.5539 4.601C12.5891 4.56803 12.617 4.52822 12.6362 4.48401C12.6553 4.4398 12.6652 4.39214 12.6652 4.34397C12.6652 4.29579 12.6553 4.24813 12.6362 4.20392C12.617 4.15972 12.5891 4.1199 12.5539 4.08693L11.0852 2.61818C11.017 2.55002 10.9245 2.51172 10.8281 2.51172C10.7317 2.51172 10.6393 2.55002 10.5711 2.61818C10.5029 2.68635 10.4646 2.77881 10.4646 2.87522C10.4646 2.97162 10.5029 3.06408 10.5711 3.13225L12.0399 4.601C12.0726 4.63628 12.1125 4.6643 12.1567 4.68327C12.201 4.70224 12.2487 4.71174 12.2969 4.71115Z" fill="#C83F3A"/>
<path d="M14.8672 4.34375V3.60938C14.8672 3.51199 14.8285 3.41859 14.7597 3.34973C14.6908 3.28087 14.5974 3.24219 14.5 3.24219C14.4026 3.24219 14.3092 3.28087 14.2404 3.34973C14.1715 3.41859 14.1328 3.51199 14.1328 3.60938V4.34375C14.1328 4.44113 14.1715 4.53453 14.2404 4.60339C14.3092 4.67225 14.4026 4.71094 14.5 4.71094C14.5974 4.71094 14.6908 4.67225 14.7597 4.60339C14.8285 4.53453 14.8672 4.44113 14.8672 4.34375Z" fill="#C83F3A"/>
</svg>
