<svg width="16" height="12" viewBox="0 0 16 12" fill="none" xmlns="http://www.w3.org/2000/svg">
<path d="M16 9.99994C16 10.3507 15.9013 10.6759 15.7433 10.962L10.6914 5.30966L15.6885 0.937654C15.8829 1.24614 16 1.6085 16 2.00009V9.99994ZM8.00002 6.33595L14.9533 0.251998C14.668 0.0957933 14.3467 0 14 0H1.99999C1.65296 0 1.33154 0.0957933 1.04736 0.251998L8.00002 6.33595ZM9.93854 5.96788L8.32904 7.37705C8.2349 7.45906 8.11767 7.50001 8.00002 7.50001C7.88229 7.50001 7.76507 7.45906 7.67092 7.37705L6.06107 5.96781L0.945304 11.6924C1.25194 11.8847 1.61131 12 1.99995 12H14C14.3886 12 14.7482 11.8847 15.0547 11.6924L9.93854 5.96788ZM0.311551 0.937621C0.117194 1.24611 0 1.60847 0 2.00009V9.99997C0 10.3507 0.0982006 10.6759 0.256845 10.962L5.30811 5.3087L0.311551 0.937621Z" fill="white"/>
</svg>
