<svg width="30" height="26" viewBox="0 0 30 26" fill="none" xmlns="http://www.w3.org/2000/svg">
<path d="M14.9508 25.8699C14.5553 25.8708 14.1635 25.7936 13.7979 25.6426C13.4324 25.4915 13.1003 25.2697 12.8208 24.9899L2.52079 14.6899C1.70713 13.8674 1.06528 12.8912 0.632638 11.8181C0.199995 10.7451 -0.0147917 9.59672 0.000791025 8.43986C0.00863074 7.3797 0.22555 6.3315 0.639123 5.35531C1.0527 4.37911 1.6548 3.4941 2.41094 2.75096C3.16708 2.00783 4.0624 1.42117 5.04563 1.02459C6.02885 0.628013 7.08065 0.42931 8.14079 0.439862C9.2199 0.428992 10.2902 0.634938 11.2882 1.04549C12.2863 1.45603 13.1917 2.06282 13.9508 2.82986L14.9508 3.82986L15.7708 3.00986C17.1867 1.55643 19.0814 0.665375 21.1039 0.501736C23.1264 0.338098 25.1396 0.912965 26.7708 2.11986C27.6993 2.83491 28.4648 3.73958 29.0164 4.77362C29.5679 5.80766 29.8928 6.94735 29.9695 8.11678C30.0461 9.28621 29.8727 10.4586 29.4608 11.5557C29.049 12.6529 28.4081 13.6497 27.5808 14.4799L17.0808 24.9899C16.8013 25.2697 16.4692 25.4915 16.1037 25.6426C15.7381 25.7936 15.3463 25.8708 14.9508 25.8699ZM8.10079 2.42986C6.51131 2.42824 4.98355 3.04508 3.84079 4.14986C3.25819 4.71041 2.79488 5.38291 2.47869 6.12699C2.1625 6.87108 1.99994 7.67139 2.00079 8.47986C1.99203 9.36918 2.15988 10.2514 2.49461 11.0753C2.82934 11.8993 3.3243 12.6486 3.95079 13.2799L14.2508 23.5799C14.3438 23.6736 14.4544 23.748 14.5762 23.7988C14.6981 23.8495 14.8288 23.8757 14.9608 23.8757C15.0928 23.8757 15.2235 23.8495 15.3454 23.7988C15.4672 23.748 15.5778 23.6736 15.6708 23.5799L26.1808 13.0599C26.7977 12.4299 27.2744 11.6765 27.5794 10.8493C27.8845 10.022 28.011 9.13953 27.9508 8.25986C27.8974 7.37118 27.6526 6.50452 27.2332 5.71921C26.8138 4.9339 26.2297 4.24848 25.5208 3.70986C24.2769 2.79276 22.7421 2.35912 21.2022 2.48974C19.6623 2.62036 18.2224 3.30634 17.1508 4.41986L15.6608 5.94986C15.5678 6.04359 15.4572 6.11798 15.3354 6.16875C15.2135 6.21952 15.0828 6.24566 14.9508 6.24566C14.8188 6.24566 14.6881 6.21952 14.5662 6.16875C14.4444 6.11798 14.3338 6.04359 14.2408 5.94986L12.5408 4.24986C11.3699 3.08914 9.7895 2.43543 8.14079 2.42986H8.10079Z" fill="#101820"/>
</svg>
