<svg width="86" height="80" viewBox="0 0 86 80" fill="none" xmlns="http://www.w3.org/2000/svg">
<path d="M0.809762 21.8646L42.3836 0.320697L43.0018 0L43.62 0.320697L85.1938 21.8646L85.918 22.2386V23.0383V28.1069V29.4376H84.5769H79.222V74.6786H79.2126V76.0092H6.79505V74.6786H6.787V29.4376H1.47494H0.152627L0.140558 28.1176L0.0963017 23.049L0.0895962 22.2386L0.813785 21.8646H0.809762ZM44.3402 21.9844V25.5546C44.3402 26.1016 44.0076 26.5713 43.5302 26.7762H83.2318V23.8367L43.0005 2.98874L2.76909 23.8367L2.79592 26.7762H42.4667C41.9893 26.5713 41.6567 26.1016 41.6567 25.5546V22.0456C41.5065 22.0137 41.3563 21.9777 41.2101 21.9338L41.1658 21.9192C39.7067 21.4681 38.4837 20.4248 38.1323 18.6816C37.9888 17.9617 38.4595 17.2604 39.1851 17.118C39.9106 16.9757 40.6173 17.4427 40.7608 18.1626C40.8856 18.7894 41.3549 19.1846 41.9209 19.3683L41.9853 19.3869C42.2655 19.4707 42.5713 19.5106 42.8784 19.5093H42.8865L42.8945 19.508H42.9052H42.924L42.9964 19.5053H43.0152H43.0313H43.034L43.1453 19.4973C43.5356 19.4641 43.9057 19.3669 44.2088 19.2166C44.5843 19.0276 44.8525 18.7495 44.8525 18.4235C44.8525 18.1467 44.7975 17.9657 44.7157 17.8579C44.6084 17.7115 44.4113 17.6144 44.2088 17.5545C43.8413 17.4441 43.4296 17.4507 43.0192 17.4574C42.3983 17.468 41.7707 17.48 41.0063 17.2471V17.2458C40.4323 17.0715 39.8462 16.7747 39.3768 16.2771L39.2964 16.1932C38.7975 15.629 38.4622 14.8652 38.4622 13.8405C38.4622 12.3821 39.3406 11.3029 40.5852 10.6788C40.9191 10.5125 41.2798 10.3781 41.658 10.2809V7.396C41.658 6.66145 42.2602 6.0653 42.9991 6.0653C43.7394 6.0653 44.3402 6.66279 44.3402 7.396V10.2197C44.4891 10.249 44.6379 10.2889 44.7828 10.3315C46.2633 10.7706 47.5119 11.8192 47.8673 13.5837C48.0108 14.3036 47.5401 15.0049 46.8145 15.1473C46.089 15.2897 45.3822 14.8226 45.2387 14.1027C45.1087 13.4533 44.6111 13.0528 44.021 12.8785C43.7327 12.7933 43.4149 12.7547 43.0957 12.7574H43.0782H43.0702H43.0595L43.0407 12.7587H43.0353H43.0206H43.0018L42.8529 12.768C42.4627 12.8013 42.0925 12.8984 41.7895 13.0488C41.4139 13.2377 41.1457 13.5159 41.1457 13.8405C41.1457 14.1373 41.2128 14.3276 41.3093 14.4367L41.3429 14.4766C41.4555 14.5831 41.6205 14.6589 41.7895 14.7108L41.7948 14.7122V14.7108C42.1623 14.8226 42.574 14.8146 42.9817 14.808C43.6013 14.7973 44.2249 14.7893 44.988 15.0182C45.6692 15.2231 46.3666 15.6064 46.8668 16.2771C47.2745 16.8213 47.5387 17.5266 47.5387 18.4235C47.5387 19.8832 46.6603 20.9638 45.4158 21.5879C45.0818 21.7542 44.7184 21.8886 44.3415 21.9857L44.3402 21.9844ZM0.0869141 77.3373H85.914V80H0.0869141V77.3373ZM76.5358 73.3479V29.4376H71.1419V73.3479H76.5358ZM68.4597 73.3479V29.4376H65.7802V73.3479H68.4597ZM63.0967 73.3479V29.4376H57.7337V73.3479H63.0967ZM55.0502 73.3479V29.4376H30.932V73.3479H55.0502ZM28.2485 73.3479V29.4376H22.8653V73.3479H28.2485ZM20.1818 73.3479V29.4376H17.5023V73.3479H20.1818ZM14.8188 73.3479V29.4376H9.46784V73.3479H14.8188Z" fill="#C83F3A"/>
</svg>
