<svg width="15" height="16" viewBox="0 0 15 16" fill="none" xmlns="http://www.w3.org/2000/svg">
<path d="M13.5498 14.2781L12.5555 15.2724C12.3779 15.4491 11.8578 15.5608 11.8423 15.5608C8.69462 15.5874 5.66419 14.3514 3.43714 12.1239C1.20371 9.89085 -0.0336414 6.8485 0.000696053 3.6917C0.000696053 3.68986 0.114695 3.18449 0.291862 3.0087L1.28615 2.0135C1.65101 1.64912 2.34953 1.48432 2.8389 1.64728L3.04856 1.71777C3.53793 1.88072 4.04924 2.42089 4.18474 2.91803L4.68554 4.75552C4.82148 5.25359 4.63884 5.9622 4.27445 6.32658L3.60977 6.99127C4.26165 9.4074 6.15634 11.3017 8.57109 11.9544L9.23578 11.2897C9.60019 10.9253 10.3106 10.7431 10.8087 10.8786L12.6462 11.3804C13.1425 11.515 13.6826 12.0258 13.8465 12.5156L13.9161 12.7253C14.079 13.2152 13.9142 13.9138 13.5498 14.2781ZM8.43741 8.06068H9.37492C9.37492 7.0252 8.53538 6.18566 7.49989 6.18566V7.12317C8.01668 7.12317 8.43741 7.5443 8.43741 8.06068ZM12.1875 8.06068C12.1875 5.47151 10.089 3.37309 7.49989 3.37309V4.31063C9.56808 4.31063 11.2499 5.9934 11.2499 8.06068H12.1875ZM7.49989 0.560547V1.49806C11.1181 1.49806 14.0625 4.44244 14.0625 8.06068H15C15 3.91877 11.6418 0.560547 7.49989 0.560547Z" fill="#333333"/>
</svg>
