<svg width="20" height="21" viewBox="0 0 20 21" fill="none" xmlns="http://www.w3.org/2000/svg">
<path d="M20 10.303C20 15.6837 15.6047 20.0454 10.1818 20.0454C8.46022 20.0454 6.84289 19.6054 5.43578 18.8332L0 20.5605L1.77222 15.3334C0.878222 13.8654 0.363333 12.1437 0.363333 10.303C0.363333 4.92232 4.75911 0.560547 10.1818 0.560547C15.6051 0.560547 20 4.92232 20 10.303ZM10.1818 2.1121C5.62978 2.1121 1.92711 5.78655 1.92711 10.303C1.92711 12.0952 2.51133 13.755 3.49956 15.1052L2.46822 18.1472L5.64044 17.139C6.94378 17.9948 8.50511 18.4939 10.182 18.4939C14.7333 18.4939 18.4367 14.8199 18.4367 10.3034C18.4367 5.78699 14.7336 2.1121 10.1818 2.1121ZM15.1398 12.5468C15.0791 12.4474 14.9189 12.3874 14.6784 12.2681C14.4376 12.1488 13.254 11.5708 13.034 11.4914C12.8133 11.4119 12.6524 11.3719 12.4922 11.6108C12.332 11.8499 11.8707 12.3874 11.73 12.5468C11.5896 12.7065 11.4493 12.7265 11.2084 12.607C10.968 12.4877 10.1927 12.2352 9.27333 11.4219C8.558 10.789 8.07489 10.0077 7.93444 9.76832C7.79422 9.52944 7.91978 9.40032 8.04 9.28144C8.14844 9.17432 8.28089 9.00255 8.40111 8.86321C8.52178 8.72366 8.56178 8.62432 8.64156 8.46477C8.72222 8.30544 8.682 8.1661 8.62156 8.04632C8.56156 7.92699 8.07978 6.75188 7.87933 6.27366C7.67889 5.79588 7.47867 5.87544 7.338 5.87544C7.19778 5.87544 7.03711 5.85544 6.87667 5.85544C6.71622 5.85544 6.45533 5.91521 6.23467 6.1541C6.01422 6.39321 5.39267 6.97099 5.39267 8.14588C5.39267 9.32099 6.25467 10.4563 6.37533 10.6154C6.49556 10.7745 8.03978 13.2643 10.4864 14.2205C12.9333 15.1763 12.9333 14.8574 13.3747 14.8174C13.8156 14.7777 14.7982 14.2399 14.9996 13.6825C15.1996 13.1243 15.1996 12.6463 15.1398 12.5468Z" fill="#333333"/>
</svg>
