<svg width="11" height="11" viewBox="0 0 11 11" fill="none" xmlns="http://www.w3.org/2000/svg">
<path d="M2.58824 1.17302V10.6564C2.58824 10.8462 2.44339 11 2.26471 11C2.08603 11 1.94118 10.8462 1.94118 10.6564V1.17302L0.552299 2.64794C0.425953 2.78211 0.221106 2.78211 0.0947596 2.64794C-0.0315865 2.51377 -0.0315865 2.29623 0.0947596 2.16206L2.03594 0.10063C2.16228 -0.0335432 2.36713 -0.0335432 2.49348 0.10063L4.43465 2.16206C4.561 2.29623 4.561 2.51377 4.43465 2.64794C4.30831 2.78211 4.10346 2.78211 3.97711 2.64794L2.58824 1.17302ZM5.5 1.37428C5.32132 1.37428 5.17647 1.22046 5.17647 1.03071C5.17647 0.840964 5.32132 0.687142 5.5 0.687142H10.6765C10.8552 0.687142 11 0.840964 11 1.03071C11 1.22046 10.8552 1.37428 10.6765 1.37428H5.5ZM5.5 4.12285C5.32132 4.12285 5.17647 3.96903 5.17647 3.77928C5.17647 3.58953 5.32132 3.43571 5.5 3.43571H9.38235C9.56103 3.43571 9.70588 3.58953 9.70588 3.77928C9.70588 3.96903 9.56103 4.12285 9.38235 4.12285H5.5ZM5.5 6.87142C5.32132 6.87142 5.17647 6.7176 5.17647 6.52785C5.17647 6.3381 5.32132 6.18428 5.5 6.18428H8.08824C8.26692 6.18428 8.41177 6.3381 8.41177 6.52785C8.41177 6.7176 8.26692 6.87142 8.08824 6.87142H5.5ZM5.5 9.61999C5.32132 9.61999 5.17647 9.46617 5.17647 9.27642C5.17647 9.08667 5.32132 8.93285 5.5 8.93285H6.79412C6.9728 8.93285 7.11765 9.08667 7.11765 9.27642C7.11765 9.46617 6.9728 9.61999 6.79412 9.61999H5.5Z" fill="#444444"/>
</svg>
