<svg width="85" height="60" viewBox="0 0 85 60" fill="none" xmlns="http://www.w3.org/2000/svg">
<path d="M27.5253 59.0083C27.2215 59.0274 26.9168 59.0274 26.6131 59.0083L17.4585 58.0798C17.2679 58.0567 17.0845 57.9922 16.9213 57.891C16.7582 57.7897 16.6191 57.654 16.5137 57.4934C16.4119 57.3295 16.3487 57.1446 16.3289 56.9527C16.3092 56.7608 16.3334 56.5669 16.3997 56.3857C17.1816 54.3495 17.8983 51.9876 18.2567 50.6845C13.5491 47.9153 9.57453 42.7679 6.95196 36.0242H1.7557C1.58386 36.0224 1.41422 35.9853 1.25731 35.9153C1.10039 35.8452 0.959541 35.7437 0.8435 35.6169C0.717975 35.4769 0.625102 35.3107 0.57158 35.1305C0.518059 34.9502 0.505225 34.7603 0.534005 34.5744C0.993268 30.6312 0.828354 26.6403 0.0453279 22.7484C-0.00242204 22.5757 -0.0125904 22.3947 0.0155084 22.2177C0.0436072 22.0406 0.109321 21.8717 0.208221 21.7222C0.305093 21.5709 0.434148 21.4428 0.586189 21.3471C0.738231 21.2513 0.909517 21.1903 1.08784 21.1684L6.21895 20.4842C7.36375 18.4903 8.76579 16.6556 10.389 15.0273C10.7408 14.7191 11.0333 14.3492 11.2523 13.9359C11.0281 12.4573 10.7126 10.9939 10.3075 9.55414C9.86774 7.92522 9.42793 6.14969 9.19988 4.76511C9.18288 4.5318 9.23146 4.29838 9.34014 4.09123C9.44882 3.88408 9.61326 3.71145 9.81489 3.59285C10.0165 3.47424 10.2473 3.41439 10.4812 3.42004C10.715 3.4257 10.9426 3.49664 11.1383 3.62486C11.3338 3.62486 11.8876 3.80404 12.3437 3.90178C15.4702 4.32214 18.4132 5.62133 20.8304 7.6483C24.3937 5.6285 28.4305 4.59399 32.5261 4.65108C32.6908 4.64675 32.8548 4.67492 33.0086 4.73398C33.1624 4.79304 33.3031 4.88183 33.4226 4.99528C33.5421 5.10874 33.6381 5.24463 33.7051 5.3952C33.772 5.54576 33.8087 5.70804 33.8129 5.87277C33.8194 6.0367 33.7933 6.2003 33.7361 6.35405C33.6788 6.5078 33.5916 6.64864 33.4794 6.76837C33.3673 6.88811 33.2324 6.98436 33.0827 7.05152C32.9331 7.11869 32.7715 7.15544 32.6075 7.15962C27.7207 7.32252 23.8928 8.38132 21.4168 10.3034C21.2854 10.4089 21.1338 10.4864 20.9713 10.5312C20.8089 10.576 20.639 10.5872 20.472 10.5641C20.3077 10.5432 20.1492 10.4891 20.0064 10.4051C19.8636 10.3211 19.7394 10.2089 19.6413 10.0754C17.8332 7.68088 14.3147 6.81755 12.0831 6.41032C12.2785 7.25736 12.5066 8.16956 12.7346 9.04918C13.6794 12.7957 13.9563 14.0663 13.6306 14.897C13.2974 15.6616 12.8029 16.3451 12.1808 16.9006C10.5837 18.5377 9.20903 20.3779 8.09221 22.3738C7.99461 22.5358 7.86207 22.674 7.70426 22.7783C7.54644 22.8825 7.36734 22.9502 7.18001 22.9765L2.79821 23.5629C3.28621 26.8461 3.40096 30.174 3.14028 33.483H7.84787C8.10076 33.4844 8.34716 33.5632 8.55392 33.7088C8.76069 33.8544 8.9179 34.0599 9.00441 34.2975C11.5618 41.2693 15.5201 46.433 20.2929 48.9578C20.534 49.0856 20.7276 49.2877 20.845 49.5342C20.9623 49.7806 20.9972 50.0583 20.9444 50.3261C20.7978 50.994 20.13 53.3722 19.3155 55.7667L26.8737 56.5323C27.2735 56.6426 27.6956 56.6426 28.0954 56.5323C28.3687 56.2383 28.5744 55.888 28.6981 55.5061C28.9602 54.998 29.1259 54.4457 29.1868 53.8772C29.2986 53.0868 29.5292 52.318 29.8709 51.5967C29.9852 51.3435 30.1792 51.1348 30.4234 51.0024C30.6676 50.87 30.9484 50.8213 31.2229 50.8636C35.6494 51.285 40.1155 50.8931 44.4009 49.7071L44.9059 49.5931C45.0891 49.5468 45.2807 49.5448 45.4648 49.5872C45.649 49.6297 45.8203 49.7155 45.9647 49.8374C46.1144 49.952 46.2351 50.1002 46.3171 50.2699C46.3992 50.4397 46.4403 50.6263 46.4371 50.8148C46.9275 51.7207 47.5415 52.554 48.2615 53.2907C48.6361 53.7143 49.0271 54.1541 49.3691 54.5939C52.122 53.7794 54.9401 53.0627 57.7418 52.4763C57.3997 51.8736 57.188 51.4664 57.0088 51.0917C56.5022 50.0389 55.8496 49.0628 55.0704 48.1922C54.9354 48.0479 54.836 47.8741 54.7799 47.6846C54.7239 47.4951 54.7129 47.2952 54.7476 47.1007C54.7824 46.9061 54.8621 46.7224 54.9803 46.5641C55.0986 46.4058 55.2521 46.2772 55.4287 46.1886C57.8721 44.9344 59.5662 42.0349 61.1951 39.2331C61.472 38.7607 61.749 38.2721 62.0259 37.816C63.2768 35.6417 64.0346 33.219 64.2457 30.7194C64.4568 28.2199 64.1161 25.7044 63.2476 23.3511C62.2391 20.3459 60.6101 17.5864 58.4661 15.2516C56.3221 12.9168 53.7111 11.0589 50.8026 9.79848C50.4938 9.67525 50.2465 9.43445 50.1152 9.129C49.9838 8.82356 49.9792 8.47846 50.1022 8.16956C50.2254 7.86075 50.4662 7.6135 50.7716 7.48216C51.0771 7.35082 51.4222 7.34613 51.7311 7.46912C54.9784 8.86356 57.8947 10.928 60.2891 13.5273C62.6836 16.1266 64.5021 19.2023 65.6258 22.553C66.6145 25.2487 66.9972 28.1292 66.7466 30.9896C66.4961 33.85 65.6184 36.62 64.1761 39.1028C63.8991 39.5589 63.6385 40.0313 63.3616 40.5037C62.0204 43.2114 60.1544 45.6255 57.8721 47.6058C58.4078 48.3068 58.8717 49.0599 59.2567 49.8537C59.6954 50.7764 60.2131 51.6593 60.8042 52.4926C60.9179 52.6668 60.9877 52.866 61.0075 53.0731C61.0274 53.2802 60.9967 53.489 60.9182 53.6817C60.8378 53.8739 60.7109 54.043 60.5488 54.1738C60.3867 54.3046 60.1945 54.393 59.9897 54.431C56.366 55.1272 52.7825 56.019 49.2551 57.1024C49.0002 57.1832 48.7259 57.1793 48.4734 57.0912C48.2208 57.0031 48.0036 56.8356 47.8542 56.6137C47.4633 56.0599 46.8932 55.4083 46.3556 54.7894C45.5941 53.9809 44.9173 53.0967 44.3358 52.1505C40.2558 53.2109 36.0316 53.6069 31.8256 53.3233C31.7463 53.5559 31.6917 53.7961 31.6627 54.0401C31.5694 54.8343 31.3379 55.6061 30.9786 56.3205C30.6935 57.1515 30.1728 57.8816 29.48 58.4219C28.9024 58.8098 28.221 59.0142 27.5253 59.0083Z" fill="#C83F3A"/>
<path d="M51.4053 20.2885C51.2199 20.2902 51.0365 20.2513 50.8677 20.1745C47.445 18.5988 43.7407 17.7262 39.9745 17.6087C36.2083 17.4912 32.4568 18.1311 28.9424 19.4904C28.7907 19.554 28.6279 19.5867 28.4634 19.5866C28.2989 19.5866 28.1361 19.5537 27.9844 19.4901C27.8328 19.4264 27.6953 19.3331 27.5801 19.2157C27.465 19.0983 27.3743 18.9591 27.3135 18.8062C27.1939 18.499 27.1985 18.1573 27.3261 17.8534C27.4538 17.5494 27.6946 17.307 27.9977 17.1773C31.8363 15.6948 35.9332 14.9972 40.0462 15.1259C44.1591 15.2546 48.2044 16.207 51.9428 17.9266C52.2341 18.0679 52.4594 18.3163 52.5717 18.6199C52.6841 18.9235 52.6747 19.2587 52.5455 19.5555C52.4425 19.7717 52.2812 19.9549 52.0798 20.0843C51.8783 20.2138 51.6447 20.2846 51.4053 20.2885Z" fill="#C83F3A"/>
<path d="M48.571 18.8228C48.3617 18.8198 48.1562 18.7664 47.9719 18.6671C47.7876 18.5679 47.6299 18.4257 47.5122 18.2527C47.3318 17.9731 47.2683 17.6339 47.3353 17.308C47.4023 16.9821 47.5945 16.6954 47.8705 16.5097C48.4367 16.116 48.9065 15.5994 49.245 14.9986C49.5835 14.3978 49.7818 13.7283 49.8253 13.0401C50.0973 10.1766 49.2313 7.321 47.4144 5.09095C46.4409 4.04903 45.2108 3.28099 43.8472 2.86364C42.4837 2.44628 41.0345 2.39424 39.6445 2.71272C38.2953 2.97857 37.0282 3.55992 35.9467 4.40925C34.8652 5.25858 34.0001 6.35178 33.422 7.59949C32.3632 9.87999 33.1777 15.2391 33.6012 16.1676C33.8041 16.4219 33.9002 16.7451 33.8694 17.069C33.8385 17.3928 33.683 17.692 33.4357 17.9034C33.1884 18.1148 32.8686 18.2218 32.5439 18.2018C32.2192 18.1819 31.9149 18.0366 31.6953 17.7966C30.8809 16.9658 30.5551 13.8871 30.4899 12.9098C30.1911 10.7438 30.4145 8.53769 31.1415 6.47554C31.8975 4.88681 33.0144 3.49678 34.403 2.4164C35.7917 1.33602 37.4137 0.595198 39.1395 0.253049C40.9572 -0.150049 42.8488 -0.0704524 44.6263 0.483928C46.4037 1.03831 48.0051 2.04817 49.2714 3.41316C50.4141 4.79352 51.2716 6.38678 51.7945 8.10074C52.3174 9.81471 52.4951 11.6153 52.3175 13.3985C52.2289 14.4454 51.908 15.4593 51.3783 16.3667C50.8486 17.274 50.1233 18.0518 49.2551 18.6436C49.0501 18.7704 48.8118 18.8328 48.571 18.8228Z" fill="#C83F3A"/>
<path d="M67.9064 26.8206C67.1408 26.8244 66.3786 26.7202 65.6422 26.5111C65.3225 26.4182 65.0528 26.2021 64.8924 25.9104C64.732 25.6187 64.6941 25.2752 64.787 24.9555C64.8799 24.6358 65.0959 24.3661 65.3877 24.2057C65.6794 24.0453 66.0229 24.0074 66.3426 24.1003C67.3252 24.3665 68.3588 24.3822 69.3491 24.1461C70.3393 23.9099 71.2546 23.4293 72.0112 22.7483C70.3735 21.8967 69.1086 20.4694 68.4602 18.7411C68.2738 18.1299 68.2358 17.4831 68.3491 16.8543C68.4624 16.2255 68.7238 15.6326 69.1118 15.1249C69.5726 14.4872 70.1927 13.9815 70.9102 13.6585C71.6277 13.3355 72.4174 13.2064 73.2004 13.2842C73.9005 13.3362 74.5733 13.5774 75.1471 13.9819C75.7209 14.3864 76.174 14.9391 76.4582 15.581C76.7896 16.5296 76.9188 17.5371 76.8375 18.5386C76.7561 19.5402 76.466 20.5136 75.9858 21.3963C78.3152 21.5429 80.4328 19.914 82.697 16.6561C82.8849 16.3796 83.175 16.1891 83.5034 16.1265C83.8318 16.0639 84.1716 16.1343 84.4481 16.3222C84.7246 16.5101 84.9151 16.8002 84.9777 17.1286C85.0403 17.457 84.9699 17.7968 84.782 18.0733C83.6906 19.7022 80.7749 23.9048 76.1813 23.9048C75.6333 23.907 75.0868 23.8469 74.5524 23.7256L74.08 24.2632C72.4367 25.8916 70.2198 26.8099 67.9064 26.8206ZM72.7931 15.7765C72.4761 15.7809 72.1643 15.8581 71.8819 16.0021C71.5995 16.1462 71.3539 16.3532 71.1642 16.6072C71.015 16.8076 70.9139 17.0397 70.8687 17.2854C70.8235 17.5312 70.8354 17.784 70.9036 18.0244C71.4205 19.2142 72.3527 20.1754 73.5261 20.7284C73.9034 20.1285 74.1556 19.4585 74.2676 18.7588C74.3795 18.059 74.349 17.3438 74.1777 16.6561C74.0781 16.4182 73.914 16.2128 73.7039 16.0631C73.4938 15.9135 73.246 15.8255 72.9886 15.8091L72.7931 15.7765Z" fill="#C83F3A"/>
<path d="M17.8332 26.6093C17.3494 26.6034 16.8702 26.5153 16.416 26.3487C15.7554 26.1563 15.1657 25.7745 14.7198 25.2505C14.274 24.7265 13.9915 24.0832 13.9075 23.4003C13.8828 22.4605 14.1081 21.531 14.5602 20.7068C15.0124 19.8826 15.6753 19.1932 16.4812 18.709C16.7457 18.5361 17.0646 18.4665 17.3771 18.5136C18.1416 18.3815 18.9281 18.478 19.638 18.791C20.3479 19.1039 20.9497 19.6194 21.3679 20.2728C21.8585 21.0089 22.0939 21.8856 22.038 22.7684C21.9821 23.6512 21.6379 24.4913 21.0584 25.1596C20.6571 25.6193 20.161 25.9869 19.6044 26.2371C19.0477 26.4874 18.4435 26.6143 17.8332 26.6093ZM17.5074 21.0547C17.1669 21.2983 16.8849 21.6148 16.682 21.9811C16.4791 22.3474 16.3604 22.7543 16.3346 23.1723C16.3346 23.3352 16.3346 23.7424 17.2305 24.0519C17.5467 24.1551 17.8862 24.1638 18.2074 24.0771C18.5285 23.9903 18.8174 23.8117 19.0386 23.5632C19.2571 23.3029 19.3887 22.9808 19.415 22.642C19.4413 22.3031 19.3609 21.9646 19.1852 21.6737C19.0186 21.4075 18.7675 21.205 18.4722 21.0987C18.1768 20.9924 17.8542 20.9883 17.5563 21.0873L17.5074 21.0547Z" fill="#C83F3A"/>
</svg>
