<svg width="103" height="49" viewBox="0 0 103 49" fill="none" xmlns="http://www.w3.org/2000/svg">
<path d="M24.7832 46.043V48.043H26.7832V46.043H24.7832ZM15.7305 46.043H13.7305V48.043H15.7305V46.043ZM15.7305 21.2578L13.7309 21.2147L13.7305 21.2362V21.2578H15.7305ZM15.8184 17.1855L13.8194 17.1198L13.8191 17.1311L13.8188 17.1424L15.8184 17.1855ZM15.9648 12.7324L17.9638 12.7982L18.1302 7.73864L14.5506 11.3182L15.9648 12.7324ZM12.8301 15.6914L11.5807 14.1297L11.5773 14.1324L12.8301 15.6914ZM7.9082 19.6465L6.34728 20.8969L7.5996 22.4602L9.16098 21.2055L7.9082 19.6465ZM3.54297 14.1973L2.29723 12.6326L0.727893 13.8821L1.98205 15.4477L3.54297 14.1973ZM17.3418 3.21094V1.21094H16.6429L16.0961 1.64629L17.3418 3.21094ZM24.7832 3.21094H26.7832V1.21094H24.7832V3.21094ZM24.7832 44.043H15.7305V48.043H24.7832V44.043ZM17.7305 46.043V21.2578H13.7305V46.043H17.7305ZM17.73 21.301L17.8179 17.2287L13.8188 17.1424L13.7309 21.2147L17.73 21.301ZM17.8173 17.2513L17.9638 12.7982L13.9659 12.6667L13.8194 17.1198L17.8173 17.2513ZM14.5506 11.3182C13.0369 12.8319 12.067 13.7406 11.5807 14.1297L14.0795 17.2531C14.7651 16.7047 15.885 15.6407 17.3791 14.1466L14.5506 11.3182ZM11.5773 14.1324L6.65542 18.0875L9.16098 21.2055L14.0829 17.2504L11.5773 14.1324ZM9.46912 18.3961L5.10389 12.9469L1.98205 15.4477L6.34728 20.8969L9.46912 18.3961ZM4.78871 15.7619L18.5875 4.77559L16.0961 1.64629L2.29723 12.6326L4.78871 15.7619ZM17.3418 5.21094H24.7832V1.21094H17.3418V5.21094ZM22.7832 3.21094V46.043H26.7832V3.21094H22.7832ZM62.752 41.2383L61.1018 40.1083L61.0976 40.1144L62.752 41.2383ZM40.252 41.0625L38.5932 42.18L38.5973 42.1859L40.252 41.0625ZM40.1641 7.92773L41.8156 9.05581L41.8184 9.05162L40.1641 7.92773ZM62.6348 8.16211L60.9747 9.2775L60.9787 9.28342L62.6348 8.16211ZM46.8438 35.9355L44.9824 36.6673L44.9862 36.677L44.9901 36.6866L46.8438 35.9355ZM55.9844 13.3184L54.1318 14.072L54.1357 14.0815L54.1396 14.0909L55.9844 13.3184ZM46.873 13.3184L48.7289 14.0639L48.7311 14.0584L46.873 13.3184ZM64.4434 24.627C64.4434 31.9615 63.2233 37.0102 61.1018 40.1083L64.4021 42.3683C67.2025 38.2789 68.4434 32.2534 68.4434 24.627H64.4434ZM61.0976 40.1144C59.0972 43.059 56.0109 44.6289 51.4434 44.6289V48.6289C57.0711 48.6289 61.5239 46.6051 64.4063 42.3622L61.0976 40.1144ZM51.4434 44.6289C47.0855 44.6289 44.0115 43.0393 41.9066 39.9391L38.5973 42.1859C41.5315 46.5076 45.9184 48.6289 51.4434 48.6289V44.6289ZM41.9107 39.9451C39.7321 36.7112 38.502 31.6995 38.502 24.627H34.502C34.502 32.0466 35.7718 37.9919 38.5932 42.1799L41.9107 39.9451ZM38.502 24.627C38.502 17.2057 39.715 12.131 41.8156 9.05581L38.5126 6.79966C35.7303 10.8729 34.502 16.931 34.502 24.627H38.502ZM41.8184 9.05162C43.8204 6.10471 46.8986 4.53711 51.4434 4.53711V0.537109C45.8318 0.537109 41.3905 2.56326 38.5097 6.80385L41.8184 9.05162ZM51.4434 4.53711C55.7923 4.53711 58.8659 6.13893 60.9747 9.27749L64.2949 7.04673C61.3645 2.68529 56.9772 0.537109 51.4434 0.537109V4.53711ZM60.9787 9.28342C63.1964 12.5588 64.4434 17.5818 64.4434 24.627H68.4434C68.4434 17.2189 67.1513 11.2654 64.2909 7.04079L60.9787 9.28342ZM43.4961 24.627C43.4961 29.9113 43.9366 34.0072 44.9824 36.6673L48.7051 35.2038C47.9541 33.2936 47.4961 29.8504 47.4961 24.627H43.4961ZM44.9901 36.6866C45.549 38.0661 46.3577 39.2536 47.4936 40.0929C48.6474 40.9454 49.9982 41.334 51.4434 41.334V37.334C50.7401 37.334 50.25 37.1561 49.8706 36.8758C49.4734 36.5823 49.0564 36.0707 48.6974 35.1845L44.9901 36.6866ZM51.4434 41.334C52.8857 41.334 54.229 40.9312 55.3745 40.0648C56.4978 39.2151 57.3019 38.0178 57.8663 36.6306L54.1611 35.1234C53.7879 36.0408 53.3615 36.572 52.9614 36.8746C52.5835 37.1606 52.1104 37.334 51.4434 37.334V41.334ZM57.8663 36.6306C58.9591 33.9439 59.4199 29.8609 59.4199 24.627H55.4199C55.4199 29.7836 54.9432 33.2006 54.1611 35.1234L57.8663 36.6306ZM59.4199 24.627C59.4199 19.3386 58.9507 15.2238 57.8291 12.5458L54.1396 14.0909C54.9321 15.9832 55.4199 19.4074 55.4199 24.627H59.4199ZM57.837 12.5648C57.2738 11.1804 56.474 9.98423 55.3575 9.13425C54.2178 8.26661 52.8803 7.86133 51.4434 7.86133V11.8613C52.0962 11.8613 52.5606 12.0322 52.9345 12.3169C53.3317 12.6193 53.7574 13.1516 54.1318 14.072L57.837 12.5648ZM51.4434 7.86133C49.9959 7.86133 48.6463 8.26159 47.4976 9.13051C46.3699 9.98347 45.5695 11.1861 45.015 12.5783L48.7311 14.0584C49.0945 13.146 49.5148 12.62 49.9106 12.3207C50.2853 12.0372 50.7619 11.8613 51.4434 11.8613V7.86133ZM45.0172 12.5728C43.9461 15.2391 43.4961 19.3413 43.4961 24.627H47.4961C47.4961 19.4048 47.964 15.9679 48.7289 14.0639L45.0172 12.5728ZM82.5859 28.1133H84.5859V26.1133H82.5859V28.1133ZM71.248 28.1133H69.248V30.1133H71.248V28.1133ZM71.248 21.6973V19.6973H69.248V21.6973H71.248ZM82.5859 21.6973V23.6973H84.5859V21.6973H82.5859ZM82.5859 10.2715V8.27148H80.5859V10.2715H82.5859ZM89.002 10.2715H91.002V8.27148H89.002V10.2715ZM89.002 21.6973H87.002V23.6973H89.002V21.6973ZM100.34 21.6973H102.34V19.6973H100.34V21.6973ZM100.34 28.1133V30.1133H102.34V28.1133H100.34ZM89.002 28.1133V26.1133H87.002V28.1133H89.002ZM89.002 39.3926V41.3926H91.002V39.3926H89.002ZM82.5859 39.3926H80.5859V41.3926H82.5859V39.3926ZM82.5859 26.1133H71.248V30.1133H82.5859V26.1133ZM73.248 28.1133V21.6973H69.248V28.1133H73.248ZM71.248 23.6973H82.5859V19.6973H71.248V23.6973ZM84.5859 21.6973V10.2715H80.5859V21.6973H84.5859ZM82.5859 12.2715H89.002V8.27148H82.5859V12.2715ZM87.002 10.2715V21.6973H91.002V10.2715H87.002ZM89.002 23.6973H100.34V19.6973H89.002V23.6973ZM98.3398 21.6973V28.1133H102.34V21.6973H98.3398ZM100.34 26.1133H89.002V30.1133H100.34V26.1133ZM87.002 28.1133V39.3926H91.002V28.1133H87.002ZM89.002 37.3926H82.5859V41.3926H89.002V37.3926ZM84.5859 39.3926V28.1133H80.5859V39.3926H84.5859Z" fill="#C83F3A"/>
</svg>
