<svg width="25" height="22" viewBox="0 0 25 22" fill="none" xmlns="http://www.w3.org/2000/svg">
<path d="M21.7965 3.20359C19.7312 1.13756 16.9846 0 14.0625 0C11.1408 0 8.39425 1.13756 6.32857 3.20359C4.26253 5.26923 3.12498 8.01583 3.12498 10.9375C3.12498 13.8596 4.26253 16.6062 6.32857 18.6714C7.23302 19.5755 8.26759 20.3018 9.3906 20.8328H0.520707C0.233058 20.8328 0 21.0662 0 21.3547C0 21.6415 0.233058 21.875 0.520707 21.875H14.0625C16.9846 21.875 19.7312 20.7374 21.7965 18.6714C23.8625 16.6062 25 13.8596 25 10.9375C25 8.01579 23.8624 5.26918 21.7965 3.20359ZM21.0602 17.9352C19.191 19.8044 16.7053 20.8328 14.0625 20.8328C11.4193 20.8328 8.934 19.8044 7.06519 17.9352C5.19599 16.066 4.16678 13.5803 4.16678 10.9375C4.16678 8.2943 5.19599 5.80903 7.06519 3.94022C8.934 2.07101 11.4193 1.04181 14.0625 1.04181C16.7053 1.04181 19.191 2.07101 21.0602 3.94022C22.9294 5.80898 23.9579 8.2943 23.9579 10.9375C23.9578 13.5803 22.9294 16.066 21.0602 17.9352Z" fill="#101820"/>
<path d="M17.1875 10.9375C17.1875 9.21442 15.7852 7.8125 14.0625 7.8125C12.3394 7.8125 10.9375 9.21442 10.9375 10.9375C10.9375 12.6602 12.3394 14.0625 14.0625 14.0625C15.7852 14.0625 17.1875 12.6602 17.1875 10.9375ZM14.0625 13.0203C12.9139 13.0203 11.9793 12.0865 11.9793 10.9375C11.9793 9.78888 12.9139 8.85431 14.0625 8.85431C15.2115 8.85431 16.1453 9.78888 16.1453 10.9375C16.1453 12.0865 15.2115 13.0203 14.0625 13.0203Z" fill="#101820"/>
<path d="M16.6345 15.4648C16.646 15.4602 16.6567 15.4541 16.6673 15.448C16.675 15.4434 16.6834 15.4373 16.6918 15.432C17.4585 14.9818 18.1002 14.3409 18.5518 13.5757C18.5595 13.565 18.5671 13.5528 18.5732 13.5421C18.577 13.5352 18.5801 13.5284 18.5839 13.5223C19.0203 12.7601 19.2705 11.8773 19.2705 10.9382C19.2705 10.9378 19.2705 10.9378 19.2705 10.9374C19.2705 10.937 19.2705 10.937 19.2705 10.9366C19.2705 9.99744 19.0203 9.11549 18.5839 8.35372C18.5801 8.34684 18.577 8.34 18.5732 8.33311C18.5686 8.32433 18.5625 8.31593 18.5564 8.30719C18.1048 7.53853 17.4624 6.89536 16.6933 6.4437C16.6841 6.43798 16.6765 6.43227 16.6674 6.4269C16.6598 6.4227 16.6529 6.41967 16.646 6.4162C15.8846 5.97904 15.0026 5.72919 14.0627 5.72919C13.1228 5.72919 12.2401 5.97943 11.4782 6.41699C11.4717 6.4204 11.4649 6.42309 11.4584 6.4269C11.4496 6.43188 11.442 6.43759 11.4336 6.44291C10.6638 6.89497 10.0203 7.53887 9.56822 8.30831C9.5629 8.31671 9.55713 8.32472 9.5522 8.33311C9.54839 8.33961 9.54571 8.3461 9.54229 8.35255C9.10474 9.11471 8.85449 9.99744 8.85449 10.9374C8.85449 11.8773 9.10513 12.7608 9.54268 13.523C9.5461 13.5291 9.54878 13.536 9.5522 13.5421C9.5587 13.5528 9.56592 13.5642 9.5732 13.5749C10.0253 14.3409 10.6673 14.9825 11.4344 15.4327C11.4424 15.4373 11.45 15.4434 11.4588 15.4479C11.4691 15.4541 11.4798 15.4602 11.4904 15.4648C12.2495 15.8981 13.1277 16.1453 14.0627 16.1453C14.9973 16.1453 15.8754 15.8982 16.6345 15.4648ZM13.5438 15.0718C13.1589 15.0238 12.79 14.9231 12.4451 14.7774C12.5668 14.5324 12.4795 14.2334 12.2399 14.0945C12.0008 13.9572 11.6982 14.0305 11.5468 14.2563C11.244 14.0266 10.9735 13.7558 10.7435 13.4536C10.9697 13.3025 11.0433 12.9989 10.9052 12.7608C10.7671 12.5213 10.4672 12.4328 10.2227 12.5548C10.077 12.21 9.97628 11.8407 9.92823 11.4566C10.2006 11.4398 10.4169 11.2139 10.4169 10.9374C10.4169 10.6608 10.2006 10.435 9.92823 10.4182C9.97628 10.0337 10.0766 9.66521 10.2223 9.32038C10.2963 9.35739 10.3757 9.37492 10.4539 9.37492C10.6336 9.37492 10.8087 9.28146 10.9051 9.11437C11.0432 8.87555 10.9696 8.57267 10.7434 8.42159C10.9735 8.1191 11.2439 7.84864 11.5464 7.61861C11.6456 7.76739 11.8104 7.84976 11.9798 7.84976C12.0682 7.84976 12.1575 7.82725 12.2395 7.77994C12.4791 7.64146 12.5668 7.34199 12.4451 7.09746C12.79 6.95176 13.1585 6.85102 13.5438 6.80298C13.5606 7.07534 13.7864 7.29165 14.0626 7.29165C14.3387 7.29165 14.5645 7.07534 14.5813 6.80298C14.9667 6.85102 15.3352 6.95176 15.68 7.09746C15.5579 7.34199 15.6464 7.64146 15.886 7.77994C15.9676 7.82725 16.0569 7.84976 16.1454 7.84976C16.3148 7.84976 16.4796 7.76734 16.5787 7.61861C16.8809 7.84864 17.1517 8.1191 17.3814 8.42159C17.1555 8.57267 17.0823 8.87555 17.2196 9.11437C17.3165 9.28146 17.4912 9.37492 17.6713 9.37492C17.7491 9.37492 17.8285 9.35739 17.9032 9.32038C18.0482 9.66521 18.1489 10.0337 18.197 10.4182C17.9246 10.435 17.7079 10.6608 17.7079 10.9374C17.7079 11.2139 17.9246 11.4398 18.197 11.4566C18.149 11.8407 18.0482 12.21 17.9025 12.5548C17.6576 12.4328 17.3585 12.5212 17.2197 12.7608C17.0824 12.9989 17.1556 13.3025 17.3814 13.4536C17.1518 13.7558 16.8809 14.0266 16.5788 14.2563C16.427 14.0304 16.1241 13.9572 15.886 14.0945C15.6464 14.2334 15.5579 14.5325 15.68 14.7774C15.3352 14.9231 14.9659 15.0238 14.5813 15.0718C14.5645 14.7995 14.3387 14.5828 14.0626 14.5828C13.7864 14.5828 13.5606 14.7995 13.5438 15.0718Z" fill="#101820"/>
<path d="M14.0627 3.65519V3.64567C14.1954 3.64567 14.3297 3.59493 14.4304 3.49308C14.6348 3.28975 14.6348 2.96016 14.4304 2.75684C14.3022 2.62827 14.1244 2.58135 13.9589 2.61455C11.7742 2.64126 9.72455 3.50377 8.17659 5.05134C6.62897 6.59935 5.76647 8.64902 5.73976 10.8341C5.70655 10.9992 5.75387 11.1774 5.88204 11.3055C6.08537 11.5093 6.41496 11.5093 6.61867 11.3055C6.72014 11.2041 6.77087 11.0706 6.77087 10.9374H6.78039C6.78039 8.99234 7.53762 7.16356 8.91317 5.78797C10.2888 4.41232 12.1175 3.65519 14.0627 3.65519Z" fill="#101820"/>
<path d="M22.2335 10.5693C22.0305 10.3656 21.7009 10.3656 21.4972 10.5693C21.3958 10.6712 21.3446 10.8047 21.3446 10.9382C21.3446 12.883 20.587 14.7118 19.2122 16.0874C17.8358 17.4622 16.0078 18.2197 14.0624 18.2197C13.9296 18.2197 13.7953 18.2708 13.6946 18.3723C13.4901 18.576 13.4901 18.9056 13.6946 19.1085C13.7953 19.2108 13.9296 19.2611 14.0624 19.2611C16.2855 19.2611 18.376 18.3959 19.9484 16.8236C21.5209 15.2512 22.3861 13.1607 22.3861 10.9375C22.3861 10.8043 22.3357 10.6708 22.2335 10.5693Z" fill="#101820"/>
</svg>
