<svg width="17" height="25" viewBox="0 0 17 25" fill="none" xmlns="http://www.w3.org/2000/svg">
<path d="M16.8303 23.2193L15.7725 9.86508H15.8234C16.2614 9.86508 16.6176 9.5088 16.6176 9.07082V7.21759C16.6176 6.77961 16.2614 6.42334 15.8234 6.42334H14.4553C14.432 5.23603 13.7124 4.18648 12.6079 3.73849C12.3824 3.64703 12.2213 3.44247 12.1873 3.20466C12.1426 2.89057 12.0188 2.58898 11.8293 2.33237C11.6045 2.02804 11.2987 1.79829 10.945 1.66805C10.7478 1.59544 10.5947 1.44411 10.5251 1.25293C10.3541 0.783309 10.0118 0.402564 9.56119 0.180914C8.72664 -0.229765 7.59515 0.0840797 7.09042 0.866031C7.03031 0.959251 6.97791 1.05779 6.93475 1.15898C6.8071 1.45817 6.6357 1.74252 6.42533 2.00411C6.29856 2.16175 6.32361 2.39228 6.48124 2.519C6.63892 2.64582 6.86946 2.62072 6.99618 2.46314C7.24849 2.14934 7.45457 1.80727 7.60848 1.44645C7.63544 1.38331 7.66821 1.32164 7.7059 1.26323C8.01345 0.786678 8.72918 0.58798 9.23787 0.838196C9.51807 0.97605 9.73078 1.2124 9.83685 1.50363C9.98036 1.89771 10.292 2.20823 10.6919 2.35551C10.9111 2.43618 11.1006 2.57868 11.2402 2.76756C11.3594 2.9291 11.4342 3.111 11.4623 3.30813C11.5329 3.80319 11.8664 4.22823 12.3327 4.41736C13.1594 4.75269 13.6997 5.53581 13.7229 6.42343H11.909C11.7067 6.42343 11.5428 6.58741 11.5428 6.78968C11.5428 6.99194 11.7067 7.15592 11.909 7.15592H15.8234C15.8574 7.15592 15.8852 7.18361 15.8852 7.21769V9.07092C15.8852 9.10501 15.8575 9.13269 15.8234 9.13269H1.01198C0.977895 9.13269 0.950159 9.10501 0.950159 9.07092V7.21769C0.950159 7.18361 0.977847 7.15592 1.01198 7.15592H10.298C10.5003 7.15592 10.6642 6.99194 10.6642 6.78968C10.6642 6.58741 10.5003 6.42343 10.298 6.42343H3.36135C3.3925 6.40258 3.424 6.38222 3.45589 6.36244C4.00457 6.02233 4.41671 5.53864 4.64759 4.96374C4.6535 4.94904 4.6595 4.93434 4.6658 4.91935C4.88936 4.38586 5.25272 3.92322 5.71658 3.5814C5.87943 3.46137 5.91415 3.2321 5.79412 3.06929C5.67424 2.90649 5.44487 2.87181 5.28207 2.99175C4.71166 3.41209 4.26499 3.98075 3.99045 4.63593C3.98279 4.65419 3.97532 4.67246 3.96794 4.69077C3.79561 5.11986 3.48509 5.48263 3.07002 5.73993C2.76506 5.92896 2.48793 6.15906 2.24475 6.42348H1.01198C0.574004 6.42348 0.217675 6.77976 0.217675 7.21774V9.07097C0.217675 9.50895 0.574004 9.86523 1.01198 9.86523H1.06286L0.913095 11.7559C0.897127 11.9575 1.04763 12.1339 1.24931 12.1499C1.25912 12.1507 1.26889 12.1511 1.2786 12.1511C1.46778 12.1511 1.6281 12.0055 1.64333 11.8137L1.79764 9.86523H15.0377L16.1 23.2772C16.1205 23.5354 16.035 23.7823 15.8592 23.9725C15.6834 24.1628 15.444 24.2675 15.185 24.2675H1.65017C1.39116 24.2675 1.15179 24.1627 0.975991 23.9725C0.800244 23.7823 0.714739 23.5354 0.735199 23.2772L1.51612 13.4177C1.53209 13.2161 1.38159 13.0397 1.17991 13.0237C0.978286 13.0074 0.801904 13.1582 0.785936 13.3599L0.00510858 23.2193C-0.0311249 23.6768 0.126652 24.1325 0.438104 24.4696C0.749507 24.8067 1.19134 25 1.65022 25H15.185C15.644 25 16.0858 24.8067 16.3973 24.4696C16.7087 24.1325 16.8665 23.6768 16.8303 23.2193Z" fill="black"/>
<path d="M8.41762 20.3092C10.6046 20.3092 12.3838 18.53 12.3838 16.343C12.3838 14.1561 10.6046 12.3768 8.41762 12.3768C6.23067 12.3768 4.45142 14.1561 4.45142 16.343C4.45142 18.53 6.23067 20.3092 8.41762 20.3092ZM11.6513 16.343C11.6513 18.0022 10.3951 19.3729 8.78386 19.5554V16.7093H9.40291C9.60522 16.7093 9.76915 16.5453 9.76915 16.343C9.76915 16.1408 9.60522 15.9768 9.40291 15.9768H8.78386V13.1307C10.3951 13.3132 11.6513 14.6839 11.6513 16.343ZM8.05138 13.1307V15.9768H7.43238C7.23007 15.9768 7.06614 16.1408 7.06614 16.343C7.06614 16.5453 7.23007 16.7093 7.43238 16.7093H8.05138V19.5554C6.44016 19.3729 5.1839 18.0022 5.1839 16.343C5.1839 14.6839 6.44021 13.3132 8.05138 13.1307Z" fill="black"/>
<path d="M2.55789 23.0222H4.67135C4.87366 23.0222 5.03759 22.8582 5.03759 22.656C5.03759 22.4537 4.87366 22.2897 4.67135 22.2897H2.55789C2.35558 22.2897 2.19165 22.4537 2.19165 22.656C2.19165 22.8582 2.35563 23.0222 2.55789 23.0222Z" fill="black"/>
<path d="M2.55789 21.6061H3.61462C3.81693 21.6061 3.98086 21.4421 3.98086 21.2398C3.98086 21.0376 3.81693 20.8736 3.61462 20.8736H2.55789C2.35558 20.8736 2.19165 21.0376 2.19165 21.2398C2.19165 21.4421 2.35563 21.6061 2.55789 21.6061Z" fill="black"/>
<path d="M6.66307 4.93329H6.66483C6.86626 4.93329 7.03005 4.77048 7.03102 4.56876C7.032 4.36649 6.8688 4.20173 6.66649 4.20081H6.66141C6.66083 4.20081 6.66029 4.20081 6.65965 4.20081C6.45822 4.20081 6.29444 4.36361 6.29346 4.56534C6.29248 4.7676 6.45568 4.93236 6.65799 4.93329H6.66307Z" fill="black"/>
<path d="M7.75535 5.55658C7.95767 5.55658 8.1216 5.3926 8.1216 5.19034C8.1216 4.98808 7.95767 4.8241 7.75535 4.8241H7.75028C7.54796 4.8241 7.38403 4.98808 7.38403 5.19034C7.38403 5.3926 7.54796 5.55658 7.75028 5.55658H7.75535Z" fill="black"/>
</svg>
