<svg width="25" height="27" viewBox="0 0 25 27" fill="none" xmlns="http://www.w3.org/2000/svg">
<path d="M19.9153 0.65678V0H0V8.47458V8.8983V11.6525C0 13.0508 1.14407 14.1949 2.54237 14.1949H6.35593C7.28814 14.1949 8.05085 14.9576 8.05085 15.8898V23.3051C8.05085 24.9364 9.38559 26.2712 11.0169 26.2712C12.6483 26.2712 13.9831 24.9364 13.9831 23.3051V15.8898C13.9831 14.9576 14.7458 14.1949 15.678 14.1949H19.4915C20.8898 14.1949 22.0339 13.0508 22.0339 11.6525V8.8983V8.47458V2.54237C22.0339 1.61017 22.7966 0.847458 23.7288 0.847458H25V0H21.6102C20.9534 0 20.3602 0.254237 19.9153 0.65678ZM21.1864 11.6525C21.1864 12.5847 20.4237 13.3475 19.4915 13.3475H15.678C14.2797 13.3475 13.1356 14.4915 13.1356 15.8898V23.3051C13.1356 24.4703 12.1822 25.4237 11.0169 25.4237C9.8517 25.4237 8.8983 24.4703 8.8983 23.3051V15.8898C8.8983 14.4915 7.75424 13.3475 6.35593 13.3475H2.54237C1.61017 13.3475 0.847458 12.5847 0.847458 11.6525V9.32203H21.1864V11.6525ZM21.1864 2.54237V8.47458H0.847458V0.847458H16.9492V2.54237H17.7966V0.847458H19.0678V4.66102H19.9153V2.54237C19.9153 1.61017 20.678 0.847458 21.6102 0.847458H21.8432C21.4407 1.29237 21.1864 1.88559 21.1864 2.54237Z" fill="#101820"/>
</svg>
