<svg width="25" height="25" viewBox="0 0 25 25" fill="none" xmlns="http://www.w3.org/2000/svg">
<path d="M24.5968 12.9032H24.1935V3.62903C24.1935 2.51734 23.2891 1.6129 22.1774 1.6129H14.9194V0.403226C14.9194 0.180645 14.7387 0 14.5161 0H10.4839C10.2613 0 10.0806 0.180645 10.0806 0.403226V1.6129H2.82258C1.71089 1.6129 0.806452 2.51734 0.806452 3.62903V12.9032H0.403226C0.180645 12.9032 0 13.0839 0 13.3065V22.5806C0 23.9149 1.08508 25 2.41935 25H22.5806C23.9149 25 25 23.9149 25 22.5806V13.3065C25 13.0839 24.8194 12.9032 24.5968 12.9032ZM10.8871 0.806452H14.1129V1.6129H10.8871V0.806452ZM1.6129 3.62903C1.6129 2.9621 2.15565 2.41935 2.82258 2.41935H22.1774C22.8444 2.41935 23.3871 2.9621 23.3871 3.62903V12.9032H22.5806V3.62903C22.5806 3.40645 22.4 3.22581 22.1774 3.22581H2.82258C2.6 3.22581 2.41935 3.40645 2.41935 3.62903V12.9032H1.6129V3.62903ZM12.0544 8.2875L11.6935 7.56613V6.45161H13.3065V7.56613L12.9456 8.2875C12.9177 8.34315 12.9032 8.40524 12.9032 8.46774V10.8871H12.0968V8.46774C12.0968 8.40524 12.0823 8.34315 12.0544 8.2875ZM13.7097 11.6935V12.9032H11.2903V11.6935H13.7097ZM10.8871 13.7097H14.1129V15.3226H10.8871V13.7097ZM14.5161 12.9032V11.2903C14.5161 11.0677 14.3355 10.8871 14.1129 10.8871H13.7097V8.5629L14.0706 7.84153C14.0984 7.78589 14.1129 7.72379 14.1129 7.66129V6.04839C14.1129 5.82581 13.9323 5.64516 13.7097 5.64516H11.2903C11.0677 5.64516 10.8871 5.82581 10.8871 6.04839V7.66129C10.8871 7.72379 10.9016 7.78589 10.9294 7.84153L11.2903 8.5629V10.8871H10.8871C10.6645 10.8871 10.4839 11.0677 10.4839 11.2903V12.9032H8.06452V10.7528C9.03992 10.2895 9.67742 9.29919 9.67742 8.20484C9.67742 7.0129 8.92137 5.94435 7.79597 5.54597C7.67218 5.50282 7.53548 5.52097 7.42863 5.59677C7.32177 5.67258 7.25806 5.79556 7.25806 5.92621V8.0379L6.85484 8.44113L6.45161 8.0379V5.92621C6.45161 5.79516 6.3879 5.67258 6.28105 5.59718C6.17419 5.52137 6.0375 5.50323 5.91371 5.54637C4.78831 5.94476 4.03226 7.01331 4.03226 8.20524C4.03226 9.2996 4.66976 10.2899 5.64516 10.7532V12.9032H3.22581V4.03226H21.7742V12.9032H19.3548V10.7528C20.3302 10.2895 20.9677 9.29919 20.9677 8.20484C20.9677 7.0129 20.2117 5.94435 19.0863 5.54597C18.9629 5.50282 18.8258 5.52097 18.719 5.59677C18.6121 5.67258 18.5484 5.79556 18.5484 5.92621V8.0379L18.1452 8.44113L17.7419 8.0379V5.92621C17.7419 5.79516 17.6782 5.67258 17.5714 5.59718C17.4645 5.52137 17.3274 5.50323 17.204 5.54637C16.0786 5.94476 15.3226 7.01331 15.3226 8.20524C15.3226 9.2996 15.9601 10.2899 16.9355 10.7532V12.9032H14.5161ZM4.03226 16.9355H6.45161V17.7419H4.03226V16.9355ZM6.45161 16.129H4.03226V13.7097H6.45161V16.129ZM6.18306 10.1036C5.37903 9.81895 4.83871 9.05605 4.83871 8.20524C4.83871 7.5621 5.14718 6.96936 5.64516 6.59516V8.20524C5.64516 8.3121 5.6875 8.41492 5.76331 8.49032L6.56976 9.29677C6.72742 9.45444 6.98226 9.45444 7.13992 9.29677L7.94637 8.49032C8.02218 8.41452 8.06452 8.3121 8.06452 8.20524V6.59516C8.5625 6.96936 8.87097 7.5621 8.87097 8.20524C8.87097 9.05605 8.33065 9.81895 7.52661 10.1036C7.36573 10.1609 7.25806 10.3129 7.25806 10.4839V12.9032H6.45161V10.4839C6.45161 10.3129 6.34395 10.1609 6.18306 10.1036ZM17.4734 10.1036C16.6694 9.81895 16.129 9.05605 16.129 8.20524C16.129 7.5621 16.4375 6.96936 16.9355 6.59516V8.20524C16.9355 8.3121 16.9778 8.41492 17.0536 8.49032L17.8601 9.29677C18.0177 9.45444 18.2726 9.45444 18.4302 9.29677L19.2367 8.49032C19.3125 8.41452 19.3548 8.3121 19.3548 8.20524V6.59516C19.8528 6.96936 20.1613 7.5621 20.1613 8.20524C20.1613 9.05605 19.621 9.81895 18.8169 10.1036C18.656 10.1609 18.5484 10.3129 18.5484 10.4839V12.9032H17.7419V10.4839C17.7419 10.3129 17.6343 10.1609 17.4734 10.1036ZM18.5484 16.9355H20.9677V17.7419H18.5484V16.9355ZM20.9677 16.129H18.5484V13.7097H20.9677V16.129ZM24.1935 22.5806C24.1935 23.4702 23.4702 24.1935 22.5806 24.1935H2.41935C1.52984 24.1935 0.806452 23.4702 0.806452 22.5806V13.7097H3.22581V18.1452C3.22581 18.3677 3.40645 18.5484 3.62903 18.5484H6.85484C7.07742 18.5484 7.25806 18.3677 7.25806 18.1452V13.7097H10.0806V15.7258C10.0806 15.9484 10.2613 16.129 10.4839 16.129H14.5161C14.7387 16.129 14.9194 15.9484 14.9194 15.7258V13.7097H17.7419V18.1452C17.7419 18.3677 17.9226 18.5484 18.1452 18.5484H21.371C21.5935 18.5484 21.7742 18.3677 21.7742 18.1452V13.7097H24.1935V22.5806Z" fill="#101820"/>
</svg>
