<svg width="16" height="28" viewBox="0 0 16 28" fill="none" xmlns="http://www.w3.org/2000/svg">
<path d="M16 3.56257V4.75587H11.3718V3.56257H16ZM14.0591 6.16335H11.3718V7.35665H14.0591V6.16335ZM11.3718 9.95743H16V8.76413H11.3718V9.95743ZM14.0591 11.3655H11.3718V12.5588H14.0591V11.3655ZM11.3718 15.1596H16V13.9663H11.3718V15.1596ZM12.0932 21.959C12.0932 25.29 9.38071 28 6.04658 28C2.71245 28 0 25.29 0 21.959C0 19.8003 1.13467 17.8385 2.98597 16.7532V3.05781C2.98597 1.37169 4.35891 0 6.04658 0C7.73425 0 9.1072 1.37169 9.1072 3.05781V16.7532C10.9585 17.8373 12.0932 19.7997 12.0932 21.959ZM10.8988 21.959C10.8988 20.1273 9.87996 18.4716 8.23947 17.6392L7.91281 17.4734V3.05841C7.91281 2.02979 7.07554 1.19389 6.04658 1.19389C5.01762 1.19389 4.18035 2.02979 4.18035 3.05841V17.4734L3.85369 17.6392C2.2132 18.4722 1.19439 20.1279 1.19439 21.959C1.19439 24.6319 3.37116 26.8067 6.04658 26.8067C8.72201 26.8067 10.8988 24.6319 10.8988 21.959ZM9.90385 21.959C9.90385 24.0836 8.17378 25.8121 6.04658 25.8121C3.91998 25.8121 2.18991 24.0836 2.18991 21.959C2.18991 20.2174 3.36757 18.6881 5.05405 18.2401L5.2756 18.181V4.91756H6.81815V18.1804L7.03971 18.2401C8.72678 18.6881 9.90385 20.2179 9.90385 21.959ZM6.23768 19.3904C6.14571 18.9823 5.73485 18.7138 5.31621 18.8093C3.85428 19.1398 2.83308 20.4172 2.83308 21.916C2.83308 22.3402 3.17886 22.6857 3.60346 22.6857C4.02807 22.6857 4.37384 22.3402 4.37384 21.916C4.37384 21.1541 4.91251 20.4787 5.65602 20.311C6.06927 20.2162 6.33084 19.8033 6.23768 19.3904Z" fill="#101820"/>
</svg>
