<svg width="25" height="25" viewBox="0 0 25 25" fill="none" xmlns="http://www.w3.org/2000/svg">
<path d="M20.5684 10.7563C20.4692 10.4565 20.1889 10.2539 19.873 10.2539H5.12698C4.81113 10.2539 4.53094 10.4565 4.43157 10.7563L0.0370555 24.0375C-0.0367586 24.2607 0.00100673 24.5057 0.138717 24.6965C0.276427 24.887 0.497297 24.9999 0.732472 24.9999H24.2675C24.5027 24.9999 24.7236 24.887 24.8613 24.6965C24.999 24.5057 25.0368 24.2607 24.9629 24.0375L20.5684 10.7563ZM20.8141 16.1621H13.2324V11.7187H19.3439L20.8141 16.1621ZM5.65608 11.7187H11.7676V16.1621H4.1859L5.65608 11.7187ZM3.70125 17.6269H11.7676V23.5351H1.74622L3.70125 17.6269ZM13.2324 23.5351V17.6269H21.2988L23.2538 23.5351H13.2324Z" fill="#101820"/>
<path d="M16.1621 6.59183C16.1621 6.99638 16.49 7.32425 16.8945 7.32425C17.2991 7.32425 17.6269 6.99638 17.6269 6.59183C17.6269 5.38029 18.6126 4.39457 19.8242 4.39457C20.2287 4.39457 20.5566 4.0667 20.5566 3.66215C20.5566 3.25761 20.2287 2.92974 19.8242 2.92974C18.6126 2.92974 17.6269 1.94402 17.6269 0.73248C17.6269 0.327933 17.2991 6.10352e-05 16.8945 6.10352e-05C16.49 6.10352e-05 16.1621 0.327933 16.1621 0.73248C16.1621 1.94402 15.1764 2.92974 13.9648 2.92974C13.5603 2.92974 13.2324 3.25761 13.2324 3.66215C13.2324 4.0667 13.5603 4.39457 13.9648 4.39457C15.1764 4.39457 16.1621 5.38029 16.1621 6.59183ZM16.8945 2.92745C17.1036 3.20573 17.3511 3.4533 17.6292 3.66215C17.3509 3.8712 17.1036 4.11877 16.8945 4.39686C16.6857 4.11858 16.4381 3.8712 16.1598 3.66215C16.4381 3.4533 16.6857 3.20573 16.8945 2.92745Z" fill="#101820"/>
<path d="M5.17578 5.85942C6.38732 5.85942 7.37303 6.84513 7.37303 8.05667C7.37303 8.46122 7.70091 8.78909 8.10545 8.78909C8.51 8.78909 8.83787 8.46122 8.83787 8.05667C8.83787 6.84513 9.82359 5.85942 11.0351 5.85942C11.4397 5.85942 11.7675 5.53155 11.7675 5.127C11.7675 4.72245 11.4397 4.39458 11.0351 4.39458C9.82359 4.39458 8.83787 3.40887 8.83787 2.19732C8.83787 1.79278 8.51 1.4649 8.10545 1.4649C7.70091 1.4649 7.37303 1.79278 7.37303 2.19732C7.37303 3.40887 6.38732 4.39458 5.17578 4.39458C4.77123 4.39458 4.44336 4.72245 4.44336 5.127C4.44336 5.53155 4.77123 5.85942 5.17578 5.85942ZM8.10545 4.39229C8.3145 4.67057 8.56207 4.91814 8.84016 5.127C8.56188 5.33604 8.3145 5.58362 8.10545 5.86171C7.8966 5.58343 7.64903 5.33604 7.37075 5.127C7.64903 4.91814 7.8966 4.67057 8.10545 4.39229Z" fill="#101820"/>
</svg>
