<svg width="80" height="80" viewBox="0 0 80 80" fill="none" xmlns="http://www.w3.org/2000/svg">
<circle cx="40" cy="40" r="30" fill="#AF2621"/>
<circle cx="40" cy="40" r="34.5" stroke="#C83F3A" stroke-opacity="0.8"/>
<circle cx="40" cy="40" r="39.5" stroke="#C83F3A" stroke-opacity="0.5"/>
<path d="M29.8333 38.1166H36.1166C36.3839 38.1166 36.6 37.9 36.6 37.6332C36.6 37.3664 36.3839 37.1499 36.1166 37.1499H29.8333C29.566 37.1499 29.35 37.3664 29.35 37.6332C29.35 37.9 29.566 38.1166 29.8333 38.1166Z" fill="white"/>
<path d="M42.4 40.05H29.8333C29.566 40.05 29.35 40.2666 29.35 40.5334C29.35 40.8002 29.566 41.0167 29.8333 41.0167H42.4C42.6673 41.0167 42.8833 40.8002 42.8833 40.5334C42.8833 40.2666 42.6673 40.05 42.4 40.05Z" fill="white"/>
<path d="M42.4 42.95H29.8333C29.566 42.95 29.35 43.1665 29.35 43.4333C29.35 43.7001 29.566 43.9166 29.8333 43.9166H42.4C42.6673 43.9166 42.8833 43.7001 42.8833 43.4333C42.8833 43.1665 42.6673 42.95 42.4 42.95Z" fill="white"/>
<path d="M51.1348 27.0338L34.6328 27C33.0523 27 31.7667 28.2857 31.7667 29.8662V32.3428L27.8662 32.351C26.2857 32.351 25 33.6367 25 35.2171V45.4353C25 47.0158 26.2857 48.301 27.8662 48.301H30.8V53.1343C30.8 53.3339 30.9228 53.5133 31.1093 53.5853C31.1659 53.607 31.2248 53.6177 31.2833 53.6177C31.4167 53.6177 31.5477 53.5621 31.641 53.4596L36.3313 48.3L44.3672 48.2672C45.9477 48.2672 47.2333 46.9815 47.2333 45.4015V45.3469L49.7757 48.1434C49.8689 48.2459 49.9999 48.3015 50.1333 48.3015C50.1918 48.3015 50.2508 48.2908 50.3073 48.2691C50.4939 48.1971 50.6167 48.0177 50.6167 47.8181V42.9848H51.1338C52.7143 42.9848 54 41.6991 54 40.1191V29.9C54 28.32 52.7148 27.0343 51.1348 27.0338ZM46.2667 45.401C46.2667 46.4484 45.4146 47.3 44.3652 47.3L36.1147 47.3338C35.9794 47.3343 35.8499 47.3918 35.759 47.4919L31.7667 51.8839V47.8172C31.7667 47.5504 31.5506 47.3338 31.2833 47.3338H27.8662C26.8188 47.3338 25.9667 46.4817 25.9667 45.4348V35.2167C25.9667 34.1693 26.8188 33.3172 27.8671 33.3172L32.25 33.308C32.2505 33.308 32.2505 33.308 32.251 33.308L44.3672 33.2828C45.4145 33.2828 46.2667 34.135 46.2667 35.1824V44.0955V45.401ZM53.0333 40.1182C53.0333 41.1655 52.1812 42.0172 51.1338 42.0172H50.1333C49.866 42.0172 49.65 42.2337 49.65 42.5005V46.5673L47.2333 43.9089V35.1828C47.2333 33.6023 45.9477 32.3167 44.3662 32.3167L32.7333 32.3404V29.8657C32.7333 28.8183 33.5854 27.9662 34.6319 27.9662L51.1333 28C51.1338 28 51.1338 28 51.1343 28C52.1817 28 53.0338 28.8521 53.0338 29.8995V40.1182H53.0333Z" fill="white"/>
</svg>
