<svg width="16" height="16" viewBox="0 0 16 16" fill="none" xmlns="http://www.w3.org/2000/svg">
<path d="M8 16C6.41775 16 4.87103 15.5308 3.55544 14.6518C2.23985 13.7727 1.21447 12.5233 0.608967 11.0615C0.00346628 9.59966 -0.15496 7.99113 0.153721 6.43928C0.462403 4.88743 1.22433 3.46197 2.34315 2.34315C3.46197 1.22433 4.88743 0.462403 6.43928 0.153721C7.99113 -0.15496 9.59966 0.00346628 11.0615 0.608967C12.5233 1.21447 13.7727 2.23985 14.6518 3.55544C15.5308 4.87103 16 6.41775 16 8C16 10.1217 15.1571 12.1566 13.6569 13.6569C12.1566 15.1571 10.1217 16 8 16ZM8 1.23077C6.66117 1.23077 5.35241 1.62778 4.23922 2.37159C3.12603 3.11541 2.2584 4.17262 1.74605 5.40953C1.2337 6.64644 1.09965 8.00751 1.36084 9.32061C1.62203 10.6337 2.26674 11.8399 3.21343 12.7866C4.16013 13.7333 5.36629 14.378 6.67939 14.6392C7.99249 14.9004 9.35356 14.7663 10.5905 14.254C11.8274 13.7416 12.8846 12.874 13.6284 11.7608C14.3722 10.6476 14.7692 9.33883 14.7692 8C14.7692 6.20469 14.056 4.48291 12.7866 3.21343C11.5171 1.94396 9.79531 1.23077 8 1.23077Z" fill="white"/>
<path d="M11.3846 11.9999C11.3036 12.0004 11.2233 11.9848 11.1484 11.9542C11.0734 11.9236 11.0052 11.8785 10.9477 11.8214L7.56308 8.43681C7.50605 8.37931 7.46093 8.31111 7.4303 8.23614C7.39968 8.16116 7.38416 8.08087 7.38462 7.99989V3.07681C7.38462 2.9136 7.44946 2.75707 7.56487 2.64167C7.68027 2.52626 7.8368 2.46143 8.00001 2.46143C8.16322 2.46143 8.31974 2.52626 8.43515 2.64167C8.55056 2.75707 8.61539 2.9136 8.61539 3.07681V7.74758L11.8215 10.9476C11.8792 11.0048 11.925 11.0728 11.9562 11.1478C11.9875 11.2228 12.0036 11.3033 12.0036 11.3845C12.0036 11.4657 11.9875 11.5462 11.9562 11.6212C11.925 11.6962 11.8792 11.7642 11.8215 11.8214C11.764 11.8785 11.6959 11.9236 11.6209 11.9542C11.5459 11.9848 11.4656 12.0004 11.3846 11.9999Z" fill="white"/>
</svg>
