<svg width="16" height="15" viewBox="0 0 16 15" fill="none" xmlns="http://www.w3.org/2000/svg">
<path d="M15.5824 10.4144H7.51713V8.92659H13.4943C13.7292 8.92659 13.938 8.71778 13.938 8.48287V5.66395C13.938 5.42904 13.7292 5.22023 13.4943 5.22023H11.5106V3.88907C12.0065 3.28874 12.7635 2.323 12.7635 1.69657C12.7635 0.756933 12.0065 0 11.0669 0C10.1272 0 9.37031 0.756933 9.37031 1.69657C9.37031 2.323 10.1272 3.31485 10.6232 3.88907V5.66395C10.6232 5.89886 10.832 6.10767 11.0669 6.10767H13.0506V8.06525H7.07341C6.8385 8.06525 6.62969 8.27406 6.62969 8.50897V10.8842C6.62969 11.1191 6.8385 11.3279 7.07341 11.3279H15.1387V13.416H3.02773V12.2936C3.75856 11.4584 5.16803 9.73573 5.16803 8.69168C5.16803 7.28222 4.01958 6.10767 2.58401 6.10767C1.17455 6.10767 0 7.25612 0 8.69168C0 9.73573 1.40946 11.4584 2.14029 12.2936V13.8597C2.14029 14.0946 2.3491 14.3034 2.58401 14.3034H15.5563C15.7912 14.3034 16 14.0946 16 13.8597V10.8581C16 10.5971 15.8173 10.4144 15.5824 10.4144ZM11.0669 1.14845C11.3801 1.14845 11.615 1.40946 11.615 1.69657C11.615 2.00979 11.354 2.2447 11.0669 2.2447C10.7537 2.2447 10.4927 1.98369 10.4927 1.69657C10.4927 1.40946 10.7537 1.14845 11.0669 1.14845ZM1.72268 8.58728C1.72268 8.09135 2.11419 7.69984 2.61011 7.69984C3.10604 7.69984 3.49755 8.09135 3.49755 8.58728C3.49755 9.0832 3.10604 9.47471 2.61011 9.47471C2.11419 9.44861 1.72268 9.0571 1.72268 8.58728Z" fill="#101820"/>
</svg>
