<svg width="16" height="16" viewBox="0 0 16 16" fill="none" xmlns="http://www.w3.org/2000/svg">
<path d="M14.4531 14.6321L13.3925 15.6927C13.2031 15.8812 12.6483 16.0003 12.6318 16.0003C9.27426 16.0286 6.0418 14.7103 3.66628 12.3342C1.28396 9.95233 -0.0358842 6.70715 0.000742456 3.3399C0.000742456 3.33793 0.122342 2.79888 0.311319 2.61137L1.3719 1.54982C1.76107 1.16115 2.50617 0.985357 3.02816 1.15918L3.2518 1.23437C3.77379 1.40819 4.31919 1.98437 4.46373 2.51465L4.99791 4.47464C5.14291 5.00592 4.94809 5.76176 4.55942 6.15044L3.85042 6.85944C4.54576 9.43665 6.56676 11.4572 9.1425 12.1535L9.8515 11.4445C10.2402 11.0558 10.998 10.8614 11.5293 11.006L13.4893 11.5411C14.0186 11.6847 14.5948 12.2296 14.7696 12.7521L14.8439 12.9757C15.0175 13.4983 14.8418 14.2434 14.4531 14.6321ZM8.9999 8.00014H9.99992C9.99992 6.89563 9.10441 6.00012 7.99989 6.00012V7.00013C8.55113 7.00013 8.9999 7.44934 8.9999 8.00014ZM13 8.00014C13 5.23836 10.7616 3.00004 7.99989 3.00004V4.00009C10.206 4.00009 11.9999 5.79504 11.9999 8.00014H13ZM7.99989 0V1.00001C11.8593 1.00001 15 4.14069 15 8.00014H16C16 3.5821 12.4179 0 7.99989 0Z" fill="#101820"/>
</svg>
