<svg width="145" height="120" viewBox="0 0 145 120" fill="none" xmlns="http://www.w3.org/2000/svg">
<path d="M19.5459 59.7988H20.6104V63.0801H19.1504V61H13.8965V53.8613H15.4102V59.7402H18.0371V53.8613H19.5459V59.7988ZM25.8203 61H21.709V53.8613H25.8203V55.1016H23.2227V56.6689H25.6396V57.9092H23.2227V59.75H25.8203V61ZM33.1641 61H31.6553V57.9189H28.8281V61H27.3145V53.8613H28.8281V56.6592H31.6553V53.8613H33.1641V61ZM37.7246 61H36.2109V55.1211H34.2725V53.8613H39.6631V55.1211H37.7246V61ZM42.2754 57.2207H42.7734C43.2389 57.2207 43.5872 57.1296 43.8184 56.9473C44.0495 56.7617 44.165 56.4932 44.165 56.1416C44.165 55.7868 44.0674 55.5247 43.8721 55.3555C43.68 55.1862 43.3773 55.1016 42.9639 55.1016H42.2754V57.2207ZM45.6934 56.0879C45.6934 56.8561 45.4525 57.4437 44.9707 57.8506C44.4922 58.2575 43.8102 58.4609 42.9248 58.4609H42.2754V61H40.7617V53.8613H43.042C43.9079 53.8613 44.5654 54.0485 45.0146 54.4229C45.4671 54.7939 45.6934 55.349 45.6934 56.0879ZM52.6709 55.0186C52.1012 55.0186 51.6602 55.2334 51.3477 55.6631C51.0352 56.0895 50.8789 56.6852 50.8789 57.4502C50.8789 59.042 51.4762 59.8379 52.6709 59.8379C53.1722 59.8379 53.7793 59.7126 54.4922 59.4619V60.7314C53.9062 60.9756 53.252 61.0977 52.5293 61.0977C51.4909 61.0977 50.6966 60.7835 50.1465 60.1553C49.5964 59.5238 49.3213 58.6188 49.3213 57.4404C49.3213 56.6982 49.4564 56.0488 49.7266 55.4922C49.9967 54.9323 50.3841 54.5042 50.8887 54.208C51.3965 53.9085 51.9906 53.7588 52.6709 53.7588C53.3643 53.7588 54.0609 53.9264 54.7607 54.2617L54.2725 55.4922C54.0055 55.3652 53.737 55.2546 53.4668 55.1602C53.1966 55.0658 52.9313 55.0186 52.6709 55.0186ZM58.7695 61H57.2559V55.1211H55.3174V53.8613H60.708V55.1211H58.7695V61ZM63.3203 57.2207H63.8184C64.2839 57.2207 64.6322 57.1296 64.8633 56.9473C65.0944 56.7617 65.21 56.4932 65.21 56.1416C65.21 55.7868 65.1123 55.5247 64.917 55.3555C64.7249 55.1862 64.4222 55.1016 64.0088 55.1016H63.3203V57.2207ZM66.7383 56.0879C66.7383 56.8561 66.4974 57.4437 66.0156 57.8506C65.5371 58.2575 64.8551 58.4609 63.9697 58.4609H63.3203V61H61.8066V53.8613H64.0869C64.9528 53.8613 65.6104 54.0485 66.0596 54.4229C66.512 54.7939 66.7383 55.349 66.7383 56.0879ZM74.5654 57.4209C74.5654 58.6025 74.2725 59.5107 73.6865 60.1455C73.1006 60.7803 72.2607 61.0977 71.167 61.0977C70.0732 61.0977 69.2334 60.7803 68.6475 60.1455C68.0615 59.5107 67.7686 58.5993 67.7686 57.4111C67.7686 56.223 68.0615 55.3164 68.6475 54.6914C69.2367 54.0632 70.0798 53.749 71.1768 53.749C72.2738 53.749 73.112 54.0648 73.6914 54.6963C74.2741 55.3278 74.5654 56.236 74.5654 57.4209ZM69.3555 57.4209C69.3555 58.2184 69.5068 58.819 69.8096 59.2227C70.1123 59.6263 70.5648 59.8281 71.167 59.8281C72.3747 59.8281 72.9785 59.0257 72.9785 57.4209C72.9785 55.8128 72.3779 55.0088 71.1768 55.0088C70.5745 55.0088 70.1204 55.2122 69.8145 55.6191C69.5085 56.0228 69.3555 56.6234 69.3555 57.4209ZM76.0449 53.8613H77.4072V57.3086L77.3877 58.2314L77.3389 59.2812H77.3682L80.6641 53.8613H82.4756V61H81.1279V57.5723C81.1279 57.1133 81.1572 56.4329 81.2158 55.5312H81.1768L77.8662 61H76.0449V53.8613ZM87.0312 61H85.5176V55.1211H83.5791V53.8613H88.9697V55.1211H87.0312V61ZM94.1797 61H90.0684V53.8613H94.1797V55.1016H91.582V56.6689H93.999V57.9092H91.582V59.75H94.1797V61ZM101.323 61H99.8145V55.1211H98.0664L97.9883 55.7754C97.7865 57.4388 97.6074 58.6058 97.4512 59.2764C97.2982 59.9437 97.0752 60.4141 96.7822 60.6875C96.4925 60.9609 96.0905 61.0977 95.5762 61.0977C95.3027 61.0977 95.0618 61.0618 94.8535 60.9902V59.75C95.0423 59.8151 95.2197 59.8477 95.3857 59.8477C95.5583 59.8477 95.695 59.7695 95.7959 59.6133C95.8968 59.4538 95.9912 59.1608 96.0791 58.7344C96.1702 58.3047 96.2891 57.6032 96.4355 56.6299C96.5853 55.6533 96.7122 54.7305 96.8164 53.8613H101.323V61ZM108.154 58.7686C108.154 60.2562 107.171 61 105.205 61H103.125V53.8613H104.639V56.6006H105.234C106.165 56.6006 106.885 56.7894 107.393 57.167C107.9 57.5446 108.154 58.0785 108.154 58.7686ZM104.639 59.7598H105.146C105.658 59.7598 106.032 59.6784 106.27 59.5156C106.507 59.3496 106.626 59.1006 106.626 58.7686C106.626 58.4398 106.506 58.2038 106.265 58.0605C106.024 57.9141 105.61 57.8408 105.024 57.8408H104.639V59.7598ZM115.361 61H113.853V57.9189H111.025V61H109.512V53.8613H111.025V56.6592H113.853V53.8613H115.361V61ZM122.051 58.7686C122.051 59.5107 121.803 60.069 121.309 60.4434C120.817 60.8145 120.088 61 119.121 61H117.168V53.8613H118.682V56.6006H119.17C120.085 56.6006 120.793 56.791 121.294 57.1719C121.799 57.5495 122.051 58.0817 122.051 58.7686ZM118.682 59.7598H119.077C119.575 59.7598 119.94 59.6784 120.171 59.5156C120.402 59.3496 120.518 59.1006 120.518 58.7686C120.518 58.4365 120.405 58.1989 120.181 58.0557C119.959 57.9124 119.569 57.8408 119.009 57.8408H118.682V59.7598ZM124.429 61H122.92V53.8613H124.429V61ZM132.002 61H130.273L128.613 58.2998L126.953 61H125.332L127.7 57.3184L125.483 53.8613H127.153L128.691 56.4297L130.2 53.8613H131.831L129.59 57.4014L132.002 61ZM40.9521 75L39.2334 69.3994H39.1895C39.2513 70.5387 39.2822 71.2988 39.2822 71.6797V75H37.9297V67.8613H39.9902L41.6797 73.3203H41.709L43.501 67.8613H45.5615V75H44.1504V71.6211C44.1504 71.4616 44.152 71.2777 44.1553 71.0693C44.1618 70.861 44.1846 70.3076 44.2236 69.4092H44.1797L42.3389 75H40.9521ZM51.7334 75L51.2158 73.3008H48.6133L48.0957 75H46.4648L48.9844 67.832H50.835L53.3643 75H51.7334ZM50.8545 72.0312C50.376 70.4915 50.1058 69.6208 50.0439 69.4189C49.9854 69.2171 49.943 69.0576 49.917 68.9404C49.8096 69.3571 49.502 70.3874 48.9941 72.0312H50.8545ZM56.6797 75H55.166V69.1211H53.2275V67.8613H58.6182V69.1211H56.6797V75ZM63.8281 75H59.7168V67.8613H63.8281V69.1016H61.2305V70.6689H63.6475V71.9092H61.2305V73.75H63.8281V75ZM66.8359 71.2207H67.334C67.7995 71.2207 68.1478 71.1296 68.3789 70.9473C68.61 70.7617 68.7256 70.4932 68.7256 70.1416C68.7256 69.7868 68.6279 69.5247 68.4326 69.3555C68.2406 69.1862 67.9378 69.1016 67.5244 69.1016H66.8359V71.2207ZM70.2539 70.0879C70.2539 70.8561 70.013 71.4437 69.5312 71.8506C69.0527 72.2575 68.3708 72.4609 67.4854 72.4609H66.8359V75H65.3223V67.8613H67.6025C68.4684 67.8613 69.126 68.0485 69.5752 68.4229C70.0277 68.7939 70.2539 69.349 70.2539 70.0879ZM71.6016 67.8613H72.9639V71.3086L72.9443 72.2314L72.8955 73.2812H72.9248L76.2207 67.8613H78.0322V75H76.6846V71.5723C76.6846 71.1133 76.7139 70.4329 76.7725 69.5312H76.7334L73.4229 75H71.6016V67.8613ZM84.2041 75L83.6865 73.3008H81.084L80.5664 75H78.9355L81.4551 67.832H83.3057L85.835 75H84.2041ZM83.3252 72.0312C82.8467 70.4915 82.5765 69.6208 82.5146 69.4189C82.4561 69.2171 82.4137 69.0576 82.3877 68.9404C82.2803 69.3571 81.9727 70.3874 81.4648 72.0312H83.3252ZM92.3877 75H90.8789V69.1211H89.1309L89.0527 69.7754C88.8509 71.4388 88.6719 72.6058 88.5156 73.2764C88.3626 73.9437 88.1396 74.4141 87.8467 74.6875C87.557 74.9609 87.1549 75.0977 86.6406 75.0977C86.3672 75.0977 86.1263 75.0618 85.918 74.9902V73.75C86.1068 73.8151 86.2842 73.8477 86.4502 73.8477C86.6227 73.8477 86.7594 73.7695 86.8604 73.6133C86.9613 73.4538 87.0557 73.1608 87.1436 72.7344C87.2347 72.3047 87.3535 71.6032 87.5 70.6299C87.6497 69.6533 87.7767 68.7305 87.8809 67.8613H92.3877V75ZM100.669 71.4209C100.669 72.6025 100.376 73.5107 99.79 74.1455C99.2041 74.7803 98.3643 75.0977 97.2705 75.0977C96.1768 75.0977 95.3369 74.7803 94.751 74.1455C94.165 73.5107 93.8721 72.5993 93.8721 71.4111C93.8721 70.223 94.165 69.3164 94.751 68.6914C95.3402 68.0632 96.1833 67.749 97.2803 67.749C98.3773 67.749 99.2155 68.0648 99.7949 68.6963C100.378 69.3278 100.669 70.236 100.669 71.4209ZM95.459 71.4209C95.459 72.2184 95.6104 72.819 95.9131 73.2227C96.2158 73.6263 96.6683 73.8281 97.2705 73.8281C98.4782 73.8281 99.082 73.0257 99.082 71.4209C99.082 69.8128 98.4814 69.0088 97.2803 69.0088C96.6781 69.0088 96.224 69.2122 95.918 69.6191C95.612 70.0228 95.459 70.6234 95.459 71.4209ZM102.148 67.8613H104.37C105.382 67.8613 106.117 68.0062 106.572 68.2959C107.031 68.5824 107.261 69.0397 107.261 69.668C107.261 70.0944 107.16 70.4443 106.958 70.7178C106.759 70.9912 106.494 71.1556 106.162 71.2109V71.2598C106.615 71.3607 106.94 71.5495 107.139 71.8262C107.34 72.1029 107.441 72.4707 107.441 72.9297C107.441 73.5807 107.205 74.0885 106.733 74.4531C106.265 74.8177 105.627 75 104.819 75H102.148V67.8613ZM103.662 70.6885H104.541C104.951 70.6885 105.247 70.625 105.43 70.498C105.615 70.3711 105.708 70.1611 105.708 69.8682C105.708 69.5947 105.607 69.3994 105.405 69.2822C105.207 69.1618 104.891 69.1016 104.458 69.1016H103.662V70.6885ZM103.662 71.8896V73.75H104.648C105.065 73.75 105.373 73.6702 105.571 73.5107C105.77 73.3512 105.869 73.1071 105.869 72.7783C105.869 72.1859 105.446 71.8896 104.6 71.8896H103.662Z" fill="#101820"/>
<g clip-path="url(#clip0)">
<path d="M61.8528 37.3762C62.1429 37.6595 62.4779 37.8927 62.8442 38.0665C62.9678 40.5128 63.4938 42.9221 64.4011 45.1973C64.7841 46.1064 64.9838 47.0822 64.9886 48.0687V50.6684C64.9886 51.2527 65.2207 51.8131 65.6339 52.2262C66.047 52.6394 66.6074 52.8715 67.1917 52.8715H76.0042C76.5885 52.8715 77.1489 52.6394 77.5621 52.2262C77.9752 51.8131 78.2073 51.2527 78.2073 50.6684C78.2084 49.4103 78.6384 48.1902 79.4264 47.2095L84.2219 41.2317C84.3027 41.1435 84.3761 41.0481 84.4495 40.9599C84.523 40.8718 84.5964 40.8057 84.6625 40.7176C84.7286 40.6295 84.802 40.5193 84.8681 40.4165L85.0517 40.1521C85.1178 40.042 85.1619 39.9318 85.2206 39.829C85.2794 39.7262 85.3234 39.6381 85.3675 39.5426C85.4116 39.4471 85.463 39.3076 85.507 39.1901L85.6172 38.9037C85.6172 38.7789 85.6833 38.654 85.7127 38.5218C85.742 38.3896 85.7641 38.3382 85.7861 38.2428C85.8081 38.1473 85.7861 37.971 85.8375 37.8389C85.8889 37.7067 85.8375 37.6553 85.8816 37.5598C85.9256 37.4643 85.8816 37.2514 85.8816 37.0971C85.8816 36.9429 85.8816 36.9503 85.8816 36.8695C85.8741 36.6382 85.852 36.4076 85.8155 36.1792L85.7567 35.8267L85.0223 31.0679C84.9403 30.5612 84.7921 30.0674 84.5817 29.5992C84.57 29.5684 84.5553 29.5389 84.5377 29.511C83.8815 28.1238 82.7085 27.0484 81.2697 26.5148L78.9784 25.6996L81.5267 23.2028L84.0823 20.559C84.1686 20.4756 84.2739 20.4146 84.3891 20.3814C84.5043 20.3481 84.6259 20.3435 84.7433 20.3681C86.5429 20.7484 88.4198 20.4396 90.0026 19.5027C91.5855 18.5657 92.7591 17.0689 93.2914 15.3082C93.5816 14.3579 93.674 13.3582 93.5631 12.3707C93.5318 12.0945 93.4227 11.8328 93.2485 11.6161C93.0743 11.3994 92.8422 11.2366 92.5792 11.1466C92.3161 11.0566 92.0329 11.0431 91.7625 11.1077C91.4921 11.1723 91.2456 11.3123 91.0516 11.5115L89.01 13.5971C88.9417 13.666 88.8605 13.7206 88.771 13.7579C88.6815 13.7952 88.5855 13.8144 88.4886 13.8144C88.3917 13.8144 88.2957 13.7952 88.2062 13.7579C88.1167 13.7206 88.0355 13.666 87.9672 13.5971L85.9109 11.5482C85.8411 11.4779 85.7862 11.3941 85.7496 11.302C85.713 11.2098 85.6954 11.1112 85.698 11.0121C85.6974 10.9137 85.7166 10.8162 85.7545 10.7254C85.7923 10.6346 85.848 10.5523 85.9183 10.4834L87.9672 8.39776C88.163 8.20164 88.2993 7.95414 88.3603 7.68385C88.4214 7.41356 88.4048 7.1315 88.3123 6.87026C88.2188 6.61441 88.0559 6.38962 87.8419 6.22103C87.6279 6.05243 87.3713 5.94667 87.1006 5.91557C86.1127 5.81212 85.114 5.90699 84.1631 6.19464C82.4108 6.73421 80.9237 7.90979 79.9942 9.49024C79.0646 11.0707 78.7599 12.9417 79.14 14.7354C79.1675 14.8567 79.1637 14.983 79.1291 15.1025C79.0944 15.222 79.0299 15.3307 78.9417 15.4184L74.6677 19.6043C74.3289 19.1582 73.8696 18.8182 73.3439 18.6245C72.8182 18.4308 72.2482 18.3915 71.7009 18.5111C71.1536 18.6308 70.652 18.9044 70.2551 19.2998C69.8582 19.6952 69.5827 20.1958 69.4609 20.7426C69.0239 20.6188 68.5642 20.5981 68.1178 20.682C67.6715 20.7659 67.2506 20.9521 66.8884 21.2261C66.5262 21.5001 66.2324 21.8544 66.0302 22.2611C65.828 22.6677 65.7228 23.1158 65.723 23.5699C65.7207 23.9186 65.7829 24.2647 65.9066 24.5907H65.7303C65.2713 24.6641 64.8362 24.8454 64.4608 25.1198C64.0855 25.3941 63.7806 25.7535 63.5713 26.1686C63.362 26.5837 63.2541 27.0426 63.2567 27.5075C63.2592 27.9723 63.3721 28.43 63.5859 28.8428C62.8577 29.0704 62.2467 29.5725 61.8821 30.2428C61.5175 30.913 61.428 31.6988 61.6325 32.4339C61.053 33.1355 60.7547 34.0273 60.7954 34.9364C60.8361 35.8455 61.2129 36.7071 61.8528 37.3542V37.3762ZM62.4623 33.8292L62.5945 33.9246C62.6652 33.992 62.7414 34.0534 62.8222 34.1082C62.9663 34.2068 63.1186 34.2928 63.2775 34.3653L66.215 35.6284C66.3456 35.6858 66.4807 35.7324 66.6189 35.7679L66.0241 36.3554C65.9307 36.4445 65.83 36.5256 65.723 36.5978L65.6202 36.6639L65.3778 36.7887L65.2456 36.8474L64.9666 36.9282H64.7536H64.6361C64.3531 36.9444 64.0696 36.9096 63.7989 36.8254C63.4751 36.7224 63.1806 36.5436 62.9397 36.304C62.6161 35.9819 62.4006 35.5672 62.323 35.1172C62.2454 34.6673 62.3095 34.2044 62.5064 33.7924L62.4623 33.8292ZM82.2023 28.784C82.9148 29.4523 83.3849 30.3383 83.5389 31.3029L84.3688 36.4435C84.3968 36.6161 84.4139 36.7902 84.4202 36.9649C84.4433 37.5709 84.3426 38.1752 84.1241 38.7409C83.9057 39.3066 83.5741 39.8218 83.1497 40.2549L83.0983 40.3064L78.2808 46.2621C77.276 47.5102 76.7314 49.0661 76.7386 50.6684C76.7386 50.8632 76.6612 51.0499 76.5235 51.1877C76.3858 51.3254 76.199 51.4028 76.0042 51.4028H67.1917C66.997 51.4028 66.8102 51.3254 66.6724 51.1877C66.5347 51.0499 66.4573 50.8632 66.4573 50.6684V48.0687C66.4438 46.8856 66.1941 45.7171 65.723 44.6318C64.9323 42.6539 64.4517 40.5657 64.2983 38.441H64.4231C64.5758 38.4373 64.7279 38.4226 64.8784 38.397C64.9396 38.4006 65.0009 38.4006 65.062 38.397C65.237 38.3652 65.409 38.3185 65.5761 38.2574L65.7597 38.206C65.9448 38.1288 66.124 38.0379 66.2958 37.9343L66.4133 37.8756C66.6212 37.7406 66.8155 37.5856 66.9934 37.4129L71.1133 33.3665C71.5875 33.2375 72.0186 32.9839 72.3617 32.6321L72.4058 32.5954C72.5136 32.4845 72.6142 32.3668 72.7069 32.2429C72.9464 31.9152 73.1118 31.5394 73.1916 31.1414C73.421 31.1452 73.6501 31.1231 73.8745 31.0753C74.4073 31.5968 75.0495 31.9931 75.7545 32.2356L77.5023 32.9039C77.6975 32.9721 77.8696 33.0935 77.9994 33.2544C78.1292 33.4154 78.2114 33.6093 78.2367 33.8145C78.2641 34.0662 78.2067 34.3199 78.0737 34.5354C77.9407 34.7508 77.7396 34.9158 77.5023 35.0042C73.5661 36.4729 71.3409 38.9992 70.893 42.4874C70.8634 42.6792 70.9108 42.8749 71.0251 43.0318C71.1393 43.1886 71.3109 43.2939 71.5025 43.3246H71.598C71.7773 43.3262 71.9509 43.262 72.0862 43.1443C72.2215 43.0266 72.309 42.8635 72.3323 42.6857C72.7289 39.7482 74.5869 37.6773 78.0164 36.3921C78.5582 36.1828 79.0152 35.7996 79.3156 35.3025C79.616 34.8053 79.7428 34.2226 79.6761 33.6456C79.6173 33.1862 79.4354 32.7512 79.1497 32.3867C78.864 32.0222 78.4851 31.7416 78.0531 31.5746L76.2833 30.8403C75.6455 30.618 75.0814 30.2241 74.653 29.702C74.5591 29.5898 74.4755 29.4694 74.4033 29.3421C74.3592 29.276 74.3152 29.2099 74.2784 29.1439C74.1996 29.0071 74.1309 28.8647 74.0728 28.7179C74.0361 28.6224 73.9994 28.527 73.97 28.4242C73.9406 28.3214 73.9186 28.2406 73.8966 28.1524C73.8745 28.0643 73.8598 27.9321 73.8452 27.822C73.8379 27.7266 73.8379 27.6309 73.8452 27.5356C73.8415 27.5063 73.8415 27.4767 73.8452 27.4474C73.8342 27.313 73.8342 27.178 73.8452 27.0435C73.8416 26.9946 73.8416 26.9456 73.8452 26.8967C73.8411 26.8576 73.8411 26.8182 73.8452 26.7792C73.8742 26.5748 73.9209 26.3733 73.9847 26.177C74.0467 25.9951 74.1776 25.8448 74.3492 25.7583C74.5209 25.6718 74.7195 25.656 74.9027 25.7143L80.7189 27.9028C81.2654 28.0984 81.7691 28.3977 82.2023 28.784ZM79.9478 16.4318C80.2053 16.1731 80.3944 15.8544 80.4983 15.5045C80.6021 15.1545 80.6174 14.7843 80.5427 14.427C80.3494 13.5415 80.3695 12.6227 80.6014 11.7465C80.8476 10.7744 81.3407 9.88229 82.0329 9.15665C82.7251 8.43101 83.5929 7.89642 84.5523 7.60464C85.3187 7.36491 86.127 7.28983 86.9244 7.38432L84.8755 9.46995C84.6701 9.67463 84.5071 9.91783 84.3959 10.1856C84.2847 10.4534 84.2275 10.7405 84.2275 11.0305C84.2275 11.3205 84.2847 11.6076 84.3959 11.8754C84.5071 12.1432 84.6701 12.3864 84.8755 12.591L86.9538 14.684C87.3744 15.0849 87.9332 15.3086 88.5143 15.3086C89.0954 15.3086 89.6542 15.0849 90.0749 14.684L92.1605 12.5617C92.2467 13.3514 92.1743 14.1503 91.9475 14.9117C91.6587 15.8852 91.1194 16.7658 90.3835 17.4656C89.6477 18.1654 88.741 18.6598 87.7542 18.8993C86.8711 19.1351 85.9443 19.1552 85.0517 18.9581C84.6933 18.8821 84.3216 18.8967 83.9703 19.0006C83.6189 19.1044 83.299 19.2943 83.0395 19.5529L77.8255 24.6935V24.6495C77.761 24.4567 77.6747 24.272 77.5684 24.0987L75.4902 20.8601L79.9478 16.4318ZM71.5466 20.1037C71.7095 20.0005 71.8913 19.9304 72.0813 19.8974C72.2714 19.8644 72.4661 19.8692 72.6543 19.9115C72.8425 19.9538 73.0206 20.0327 73.1783 20.1438C73.336 20.2549 73.4703 20.396 73.5734 20.559L73.9333 21.1245L76.1364 24.6054L75.402 24.3337C75.1287 24.2384 74.8389 24.199 74.55 24.2179C74.2611 24.2368 73.9789 24.3137 73.7203 24.4439C73.6492 24.4811 73.5806 24.5228 73.5147 24.5687L70.9077 21.6679C70.8434 21.3753 70.8702 21.07 70.9844 20.7931C71.0986 20.5161 71.2948 20.2807 71.5466 20.1184V20.1037ZM67.625 22.5198C67.7617 22.381 67.9246 22.2708 68.1042 22.1956C68.2839 22.1204 68.4767 22.0816 68.6715 22.0816C68.8663 22.0816 69.0591 22.1204 69.2387 22.1956C69.4184 22.2708 69.5813 22.381 69.718 22.5198L72.5967 25.729C72.56 25.8465 72.5306 25.964 72.4939 26.0889C72.2064 27.2243 72.3152 28.4239 72.8023 29.489L68.8 25.751L67.625 24.576C67.3514 24.3009 67.1979 23.9286 67.1979 23.5406C67.1979 23.1525 67.3514 22.7803 67.625 22.5051V22.5198ZM64.9886 26.6543C65.2167 26.3391 65.5605 26.1272 65.9447 26.0652C66.3288 26.0033 66.7219 26.0963 67.0375 26.3239L67.7719 26.882L71.7742 30.6053C71.7518 30.8701 71.6579 31.1239 71.5025 31.3396C71.4545 31.4057 71.4004 31.4672 71.3409 31.5232C71.1343 31.7076 70.8797 31.8298 70.6066 31.8757C70.3418 31.9295 70.0674 31.9091 69.8134 31.817L65.8405 29.0264L65.2897 28.6224C65.0015 28.3921 64.8106 28.0618 64.7548 27.6972C64.699 27.3325 64.7825 26.9602 64.9886 26.6543ZM63.0866 31.0606C63.2012 30.7978 63.3903 30.5744 63.6304 30.4178C63.8705 30.2612 64.1512 30.1783 64.4378 30.1793C64.6396 30.1777 64.8396 30.2177 65.0253 30.2968H65.0841L68.8 32.9039C68.801 33.0978 68.7635 33.29 68.6898 33.4693C68.6257 33.6523 68.5249 33.8203 68.3936 33.963C68.2623 34.1057 68.1032 34.2201 67.9261 34.2992C67.5664 34.4481 67.1622 34.4481 66.8025 34.2992L63.865 33.0287C63.7794 32.991 63.6982 32.9443 63.6227 32.8892C63.4365 32.7408 63.2859 32.5526 63.182 32.3384L63.138 32.2576C63.0513 32.0748 63.0032 31.8761 62.9969 31.6739C62.9906 31.4717 63.0261 31.2704 63.1013 31.0826L63.0866 31.0606Z" fill="#C83F3A"/>
<path d="M69.7633 8.65088C69.7222 8.7388 69.7169 8.83923 69.7484 8.93101C69.7799 9.02279 69.8458 9.09876 69.9322 9.14292L71.4009 9.87729C71.4516 9.90077 71.5067 9.91328 71.5625 9.91401C71.6457 9.91435 71.7266 9.8864 71.7919 9.83474C71.8572 9.78307 71.903 9.71076 71.9217 9.62967C71.9405 9.54857 71.9312 9.4635 71.8953 9.3884C71.8594 9.3133 71.799 9.25264 71.7241 9.21635L70.2553 8.48198C70.1674 8.44091 70.067 8.43556 69.9752 8.46707C69.8834 8.49858 69.8074 8.56447 69.7633 8.65088Z" fill="#C83F3A"/>
<path d="M72.2968 7.71115C72.345 7.71174 72.3928 7.70224 72.437 7.68327C72.4813 7.6643 72.5211 7.63628 72.5539 7.601C72.589 7.56803 72.617 7.52822 72.6361 7.48401C72.6553 7.4398 72.6651 7.39214 72.6651 7.34397C72.6651 7.29579 72.6553 7.24813 72.6361 7.20392C72.617 7.15972 72.589 7.1199 72.5539 7.08693L71.0851 5.61818C71.017 5.55002 70.9245 5.51172 70.8281 5.51172C70.7317 5.51172 70.6392 5.55002 70.5711 5.61818C70.5029 5.68635 70.4646 5.77881 70.4646 5.87522C70.4646 5.97162 70.5029 6.06408 70.5711 6.13225L72.0398 7.601C72.0726 7.63628 72.1124 7.6643 72.1567 7.68327C72.2009 7.70224 72.2487 7.71174 72.2968 7.71115Z" fill="#C83F3A"/>
<path d="M74.8672 7.34375V6.60938C74.8672 6.51199 74.8285 6.41859 74.7596 6.34973C74.6908 6.28087 74.5974 6.24219 74.5 6.24219C74.4026 6.24219 74.3092 6.28087 74.2404 6.34973C74.1715 6.41859 74.1328 6.51199 74.1328 6.60938V7.34375C74.1328 7.44113 74.1715 7.53453 74.2404 7.60339C74.3092 7.67225 74.4026 7.71094 74.5 7.71094C74.5974 7.71094 74.6908 7.67225 74.7596 7.60339C74.8285 7.53453 74.8672 7.44113 74.8672 7.34375Z" fill="#C83F3A"/>
</g>
<path fill-rule="evenodd" clip-rule="evenodd" d="M72.5 120C72.5 120 87 106.496 87 96.25C87 92.4707 85.4723 88.8461 82.753 86.1737C80.0338 83.5013 76.3456 82 72.5 82C68.6544 82 64.9662 83.5013 62.247 86.1737C59.5277 88.8461 58 92.4707 58 96.25C58 106.496 72.5 120 72.5 120ZM72.5 103.375C74.4228 103.375 76.2669 102.624 77.6265 101.288C78.9862 99.9519 79.75 98.1397 79.75 96.25C79.75 94.3603 78.9862 92.5481 77.6265 91.2119C76.2669 89.8757 74.4228 89.125 72.5 89.125C70.5772 89.125 68.7331 89.8757 67.3735 91.2119C66.0138 92.5481 65.25 94.3603 65.25 96.25C65.25 98.1397 66.0138 99.9519 67.3735 101.288C68.7331 102.624 70.5772 103.375 72.5 103.375Z" fill="#C83F3A"/>
<defs>
<clipPath id="clip0">
<rect width="47" height="47" fill="white" transform="translate(51)"/>
</clipPath>
</defs>
</svg>
