<svg width="81" height="44" viewBox="0 0 81 44" fill="none" xmlns="http://www.w3.org/2000/svg">
<path d="M42.728 37.1486C47.4883 37.1517 52.2486 37.1612 57.0089 37.136C57.3765 37.136 57.7877 36.9443 58.1055 36.7337C64.14 32.692 70.162 28.6346 76.1903 24.5834C77.3399 23.8103 77.9038 23.9172 78.6639 25.0392C78.6639 25.2592 78.6639 25.476 78.6639 25.696C78.2651 26.0857 77.9131 26.554 77.4583 26.862C71.377 30.9729 65.2927 35.0774 59.1834 39.1412C58.6351 39.5057 57.8936 39.7383 57.2363 39.7446C52.5352 39.798 47.8309 39.776 43.1298 39.776C42.8931 39.776 42.6532 39.776 42.3229 39.776C42.3229 40.1217 42.3261 40.4109 42.3229 40.7C42.3136 41.8723 41.8058 42.394 40.6375 42.394C37.3383 42.4003 34.0423 42.394 30.7462 42.394C26.6931 42.394 22.6399 42.3909 18.5868 42.3972C16.674 42.4003 16.403 42.1457 16.3531 40.1877C16.35 40.084 16.3344 39.9772 16.3157 39.7729C16.0166 39.7729 15.73 39.7729 15.4434 39.7729C11.1722 39.7729 6.90414 39.754 2.63295 39.7886C1.78557 39.7949 1.18118 39.534 0.779297 38.7923C0.779297 38.5723 0.779297 38.3554 0.779297 38.1386C1.17807 37.378 1.81049 37.1392 2.64541 37.1423C6.91037 37.1674 11.1753 37.1549 15.4372 37.1549C15.7238 37.1549 16.0104 37.1549 16.2908 37.1549C16.2908 36.2277 16.2908 35.4043 16.2908 34.5369C15.8796 34.5369 15.5306 34.5369 15.1817 34.5369C10.9978 34.5369 6.8138 34.518 2.63295 34.5526C1.78245 34.5589 1.18118 34.2917 0.779297 33.5532C0.779297 33.3363 0.779297 33.1163 0.779297 32.8994C1.17495 32.1357 1.81672 31.8969 2.64541 31.9C6.77641 31.9252 10.9074 31.9126 15.0353 31.9157C15.459 31.9157 15.8796 31.9157 16.2939 31.9157C16.2939 30.9792 16.2939 30.1526 16.2939 29.2977C11.6987 29.2977 7.16272 29.2789 2.62984 29.3134C1.78245 29.3197 1.18118 29.0526 0.779297 28.314C0.779297 28.0972 0.779297 27.8772 0.779297 27.6603C1.17495 26.8966 1.8136 26.664 2.64541 26.6672C6.85741 26.6892 11.0694 26.6766 15.2814 26.6766C15.621 26.6766 15.9637 26.6766 16.2939 26.6766C16.2939 25.7463 16.2939 24.9197 16.2939 24.0586C11.7018 24.0586 7.16584 24.0397 2.63295 24.0743C1.78557 24.0806 1.18118 23.8197 0.779297 23.078C0.779297 22.858 0.779297 22.638 0.779297 22.4212C1.18118 21.6669 1.8136 21.4249 2.64541 21.428C6.91037 21.4532 11.1753 21.4406 15.4403 21.4406C15.7238 21.4406 16.0104 21.4406 16.2939 21.4406C16.2939 20.5009 16.2939 19.6774 16.2939 18.8257C11.7236 18.8257 7.2188 18.8069 2.71395 18.8414C1.84476 18.8477 1.19676 18.6183 0.779297 17.8389C0.779297 17.6189 0.779297 17.402 0.779297 17.1852C1.17807 16.7892 1.5301 16.324 1.98495 16.016C8.10668 11.8737 14.2378 7.74401 20.3906 3.64573C20.8735 3.32516 21.5371 3.13658 22.1197 3.12716C25.4687 3.08001 28.8209 3.11773 32.1699 3.08944C32.5718 3.0863 33.0734 2.98258 33.3538 2.73116C35.5376 0.785727 38.0549 0.355155 40.9148 0.433727C47.1487 0.600298 53.395 0.484012 59.6351 0.484012C59.7161 0.484012 59.7971 0.484012 59.8781 0.48087C60.5791 0.446298 61.2302 0.518584 61.6103 1.24144C61.9966 1.97373 61.5791 2.47658 61.0495 3.05801C61.3922 3.07687 61.6446 3.10515 61.8938 3.10515C66.8379 3.10515 71.7851 3.11773 76.7293 3.0863C77.5953 3.08001 78.2465 3.3063 78.6639 4.08887C78.6639 4.30573 78.6639 4.52573 78.6639 4.74258C78.2651 5.13544 77.9131 5.60373 77.4583 5.91173C71.3303 10.0572 65.193 14.1932 59.0339 18.2914C58.551 18.612 57.8843 18.788 57.2986 18.7974C54.4356 18.8509 51.5663 18.8194 48.7001 18.8194C46.6004 18.8194 44.4975 18.8194 42.3666 18.8194C42.3666 20.1646 42.3666 21.428 42.3666 22.7103C42.5192 22.726 42.6251 22.7449 42.728 22.7449C47.4883 22.748 52.2455 22.7543 57.0058 22.7292C57.3547 22.7292 57.741 22.5657 58.0369 22.3677C64.0933 18.3134 70.1402 14.2372 76.1903 10.1703C77.3305 9.4003 77.9006 9.51344 78.6639 10.6354C78.6639 10.8554 78.6639 11.0723 78.6639 11.2892C78.3119 11.6537 78.0066 12.0937 77.5953 12.3703C71.4051 16.5566 65.2055 20.7272 58.9871 24.8726C58.5416 25.1649 57.9373 25.3472 57.4045 25.3503C52.6785 25.3849 47.9493 25.3692 43.2202 25.3692C42.9367 25.3692 42.6501 25.3692 42.3821 25.3692C42.3821 27.1794 42.3821 28.8797 42.3821 30.6052C47.3356 30.6052 52.2236 30.6146 57.1117 30.5863C57.4544 30.5863 57.8251 30.3757 58.1242 30.1746C64.1524 26.1329 70.1714 22.0817 76.1934 18.0337C77.3399 17.2606 77.9038 17.3706 78.6639 18.4926C78.6639 18.7126 78.6639 18.9294 78.6639 19.1494C78.2651 19.5423 77.9131 20.0074 77.4551 20.3154C71.3739 24.4326 65.2833 28.5372 59.1678 32.6009C58.6195 32.9654 57.8749 33.1854 57.2176 33.198C54.0274 33.2577 50.8373 33.2263 47.644 33.2263C45.8963 33.2263 44.1455 33.2263 42.3666 33.2263C42.3666 34.5714 42.3666 35.8349 42.3666 37.1172C42.5223 37.1329 42.6251 37.1486 42.728 37.1486ZM22.372 5.74515C22.0511 5.75144 21.696 5.91173 21.4187 6.09716C16.621 9.30287 11.8358 12.5243 7.04433 15.7457C6.89168 15.8494 6.76395 15.9877 6.54587 16.1794C9.86999 16.1794 13.057 16.1794 16.4279 16.1794C15.9201 14.3912 17.0728 13.6714 18.2504 12.8952C21.5496 10.7172 24.8207 8.48887 28.1012 6.27944C28.3037 6.1443 28.4969 5.99658 28.8645 5.72944C26.5342 5.72944 24.4531 5.71373 22.372 5.74515ZM37.8898 3.12716C37.572 3.1303 37.2262 3.32201 36.9458 3.51058C31.1605 7.38573 25.3877 11.2797 19.5993 15.1517C19.1133 15.4754 18.9358 15.8117 18.9389 16.3994C18.9607 21.8554 18.9513 27.3114 18.9513 32.7674C18.9513 35.0774 18.9513 37.3874 18.9513 39.7352C25.8924 39.7352 32.7494 39.7352 39.7216 39.7352C39.7216 39.3517 39.7216 39.028 39.7216 38.7043C39.7216 31.0672 39.7465 23.43 39.6967 15.7929C39.6873 14.6017 40.1079 13.8883 41.0643 13.2566C45.8776 10.0697 50.6566 6.83258 55.445 3.61116C55.6256 3.49173 55.7876 3.34401 56.0774 3.11144C49.8933 3.11144 43.89 3.10516 37.8898 3.12716ZM54.2642 16.2392C56.5042 16.324 58.336 15.7709 60.1741 14.4572C64.3145 11.4934 68.595 8.73715 72.9939 5.77973C72.6917 5.74515 72.5951 5.7263 72.4955 5.7263C67.4672 5.7263 62.4421 5.7263 57.4139 5.73887C57.1615 5.73887 56.8718 5.8143 56.6631 5.95258C52.0056 9.0703 47.3543 12.2006 42.7124 15.3466C42.5005 15.4912 42.4102 15.8274 42.1921 16.1952C46.3761 16.1952 50.3264 16.0883 54.2642 16.2392ZM29.3162 24.0492C30.9082 24.134 32.2603 24.6903 33.2915 25.938C35.5906 28.7132 34.522 32.8774 31.1792 34.188C31.0048 34.2572 30.8334 34.3263 30.6745 34.3892C30.5188 36.6017 30.2508 37.1454 29.3443 37.1234C28.4314 37.0983 28.1666 36.5672 27.9953 34.3703C26.5342 33.9114 25.341 33.044 24.7055 31.592C24.4064 30.9132 24.2537 30.14 24.1727 29.3952C24.0979 28.6974 24.6681 28.0814 25.3005 28.0312C26.0295 27.9746 26.4656 28.3674 26.6775 29.04C26.7304 29.2192 26.7336 29.414 26.7647 29.6026C27.0077 31.0483 28.1822 32.0163 29.5561 31.8969C30.8646 31.7869 31.9176 30.6397 31.9207 29.326C31.9238 27.9212 30.8957 26.7772 29.444 26.6986C27.5342 26.5949 25.9859 25.8689 24.9516 24.2126C23.2225 21.4437 24.3939 17.842 27.4065 16.5754C27.6028 16.4937 27.8053 16.4214 27.986 16.3523C28.1884 14.1146 28.4564 13.5237 29.3349 13.6306C31.0453 13.8443 30.5156 15.2743 30.6714 16.3554C32.1388 16.8363 33.3351 17.7006 33.9737 19.1494C34.2635 19.8063 34.4161 20.5512 34.5002 21.2709C34.5906 22.0126 34.0267 22.6412 33.3662 22.7103C32.6902 22.7794 32.1014 22.2954 31.9456 21.5349C31.9238 21.428 31.93 21.318 31.9145 21.2112C31.7026 19.7529 30.5499 18.7472 29.1947 18.8352C27.8489 18.9232 26.7647 20.0734 26.7523 21.4249C26.7367 22.8329 27.8146 23.9674 29.3162 24.0492Z" fill="#C83F3A"/>
</svg>
