<svg width="75" height="51" viewBox="0 0 75 51" fill="none" xmlns="http://www.w3.org/2000/svg">
<g clip-path="url(#clip0)">
<path d="M68.9206 0H6.11088C4.49017 0 2.93585 0.644651 1.78983 1.79214C0.643823 2.93962 0 4.49595 0 6.11874L0 44.8813C0 45.6848 0.158063 46.4804 0.465163 47.2228C0.772263 47.9652 1.22239 48.6397 1.78983 49.2079C2.35728 49.776 3.03094 50.2267 3.77235 50.5342C4.51375 50.8417 5.30839 51 6.11088 51H68.9206C70.5413 51 72.0957 50.3554 73.2417 49.2079C74.3877 48.0604 75.0315 46.5041 75.0315 44.8813V6.11874C75.0315 4.49595 74.3877 2.93962 73.2417 1.79214C72.0957 0.644651 70.5413 0 68.9206 0V0ZM3.14994 11.7644H71.8501V19.2078H3.14994V11.7644ZM6.11088 3.15399H68.9206C69.7059 3.15399 70.459 3.46635 71.0143 4.02234C71.5696 4.57834 71.8816 5.33244 71.8816 6.11874V8.61039H3.14994V6.11874C3.14994 5.33244 3.46189 4.57834 4.01718 4.02234C4.57246 3.46635 5.32559 3.15399 6.11088 3.15399ZM68.9206 47.846H6.11088C5.32559 47.846 4.57246 47.5337 4.01718 46.9777C3.46189 46.4217 3.14994 45.6676 3.14994 44.8813V22.3618H71.8501V44.8497C71.8542 45.2391 71.7818 45.6254 71.6368 45.9867C71.4918 46.348 71.2772 46.6772 71.0051 46.9554C70.7331 47.2336 70.409 47.4555 70.0514 47.6083C69.6937 47.7611 69.3095 47.8419 68.9206 47.846Z" fill="#C83F3A"/>
<path d="M61.2034 30.8771C60.3454 30.8771 59.4972 31.0599 58.7151 31.4134C57.9331 31.7668 57.2351 32.2829 56.6675 32.9272C55.8442 31.9956 54.7568 31.3375 53.5503 31.0405C52.3439 30.7435 51.0756 30.8217 49.9147 31.2648C48.7538 31.7079 47.7554 32.4948 47.0525 33.5205C46.3496 34.5463 45.9757 35.7622 45.9805 37.0062C45.9854 38.2502 46.3688 39.4631 47.0797 40.4833C47.7905 41.5035 48.7951 42.2826 49.9594 42.7166C51.1237 43.1506 52.3925 43.2189 53.5966 42.9125C54.8007 42.606 55.883 41.9394 56.699 41.0014C57.376 41.7558 58.2306 42.3288 59.185 42.6685C60.1394 43.0081 61.1634 43.1036 62.164 42.9463C63.1646 42.7889 64.1101 42.3838 64.9146 41.7676C65.7191 41.1513 66.3571 40.3436 66.7706 39.4178C67.1841 38.492 67.36 37.4774 67.2824 36.4662C67.2048 35.455 66.876 34.4792 66.326 33.6275C65.7761 32.7759 65.0223 32.0753 64.1332 31.5895C63.2441 31.1036 62.2478 30.8479 61.2349 30.8456L61.2034 30.8771ZM52.1631 39.9291C51.5775 39.9291 51.005 39.7552 50.5181 39.4294C50.0312 39.1036 49.6517 38.6406 49.4276 38.0989C49.2035 37.5571 49.1448 36.961 49.2591 36.3859C49.3733 35.8108 49.6553 35.2826 50.0694 34.8679C50.4835 34.4533 51.0111 34.1709 51.5855 34.0565C52.1598 33.9421 52.7552 34.0009 53.2962 34.2252C53.8373 34.4496 54.2997 34.8296 54.6251 35.3172C54.9504 35.8047 55.1241 36.3779 55.1241 36.9643C55.1241 37.7506 54.8121 38.5047 54.2568 39.0607C53.7015 39.6167 52.9484 39.9291 52.1631 39.9291ZM61.2034 39.9291C60.6178 39.9291 60.0454 39.7552 59.5584 39.4294C59.0715 39.1036 58.692 38.6406 58.4679 38.0989C58.2438 37.5571 58.1851 36.961 58.2994 36.3859C58.4136 35.8108 58.6956 35.2826 59.1097 34.8679C59.5238 34.4533 60.0514 34.1709 60.6258 34.0565C61.2002 33.9421 61.7955 34.0009 62.3365 34.2252C62.8776 34.4496 63.34 34.8296 63.6654 35.3172C63.9907 35.8047 64.1644 36.3779 64.1644 36.9643C64.1644 37.7506 63.8524 38.5047 63.2971 39.0607C62.7419 39.6167 61.9887 39.9291 61.2034 39.9291Z" fill="#C83F3A"/>
</g>
<defs>
<clipPath id="clip0">
<rect width="75" height="51" fill="white"/>
</clipPath>
</defs>
</svg>
