<svg width="21" height="21" viewBox="0 0 21 21" fill="none" xmlns="http://www.w3.org/2000/svg">
<path d="M18.9883 18.9503L17.6625 20.276C17.4257 20.5116 16.7323 20.6606 16.7116 20.6606C12.5147 20.6959 8.47412 19.048 5.50473 16.0779C2.52682 13.1006 0.87702 9.04409 0.922803 4.83503C0.922803 4.83257 1.0748 4.15875 1.31102 3.92437L2.63675 2.59743C3.12322 2.11159 4.05459 1.89185 4.70708 2.10913L4.98662 2.20312C5.63911 2.42039 6.32086 3.14062 6.50153 3.80346L7.16926 6.25346C7.35052 6.91755 7.10699 7.86236 6.62115 8.3482L5.7349 9.23445C6.60408 12.456 9.13032 14.9816 12.35 15.852L13.2363 14.9657C13.7221 14.4798 14.6694 14.2369 15.3335 14.4176L17.7835 15.0866C18.4452 15.2661 19.1654 15.9472 19.3839 16.6003L19.4767 16.8798C19.6938 17.533 19.4741 18.4644 18.9883 18.9503ZM12.1718 10.6603H13.4218C13.4218 9.27969 12.3024 8.1603 10.9217 8.1603V9.41032C11.6108 9.41032 12.1718 9.97183 12.1718 10.6603ZM17.1718 10.6603C17.1718 7.20811 14.3739 4.41021 10.9217 4.41021V5.66027C13.6793 5.66027 15.9218 7.90396 15.9218 10.6603H17.1718ZM10.9217 0.660156V1.91017C15.746 1.91017 19.6719 5.83602 19.6719 10.6603H20.9219C20.9219 5.13778 16.4443 0.660156 10.9217 0.660156Z" fill="white"/>
</svg>
