<svg width="16" height="16" viewBox="0 0 16 16" fill="none" xmlns="http://www.w3.org/2000/svg">
<path d="M14.8966 6.89655H9.10345V1.10345C9.10345 0.496552 8.6069 0 8 0C7.3931 0 6.89655 0.496552 6.89655 1.10345V6.89655H1.10345C0.496552 6.89655 0 7.3931 0 8C0 8.6069 0.496552 9.10345 1.10345 9.10345H6.89655V14.8966C6.89655 15.5034 7.3931 16 8 16C8.6069 16 9.10345 15.5034 9.10345 14.8966V9.10345H14.8966C15.5034 9.10345 16 8.6069 16 8C16 7.3931 15.5034 6.89655 14.8966 6.89655Z" fill="#333333"/>
</svg>
