<svg width="24" height="24" viewBox="0 0 24 24" fill="none" xmlns="http://www.w3.org/2000/svg">
<path d="M22.3448 10.3448H13.6552V1.65517C13.6552 0.744828 12.9103 0 12 0C11.0897 0 10.3448 0.744828 10.3448 1.65517V10.3448H1.65517C0.744828 10.3448 0 11.0897 0 12C0 12.9103 0.744828 13.6552 1.65517 13.6552H10.3448V22.3448C10.3448 23.2552 11.0897 24 12 24C12.9103 24 13.6552 23.2552 13.6552 22.3448V13.6552H22.3448C23.2552 13.6552 24 12.9103 24 12C24 11.0897 23.2552 10.3448 22.3448 10.3448Z" fill="white"/>
</svg>
