<svg width="20" height="21" viewBox="0 0 20 21" fill="none" xmlns="http://www.w3.org/2000/svg">
<path d="M19.9902 10.5572C19.9902 11.9592 19.962 13.3653 19.9983 14.7673C20.0588 17.249 18.4987 19.1667 16.5114 20.0208C15.7132 20.3633 14.8748 20.5446 14.0081 20.5446C11.2951 20.5486 8.57819 20.5849 5.86525 20.5325C3.82149 20.4922 2.14052 19.6381 0.935216 17.9541C0.302333 17.0677 0 16.0605 0 14.9687C0 12.0801 0 9.19548 0 6.30684C0 3.94999 1.14886 2.30222 3.1886 1.23056C4.07544 0.767248 5.03888 0.569838 6.04262 0.565809C8.67493 0.565809 11.3113 0.549694 13.9436 0.573867C15.9874 0.589982 17.6925 1.37157 18.9502 3.01531C19.6516 3.93388 19.9902 4.98942 19.9902 6.14971C19.9902 7.61619 19.9902 9.0867 19.9902 10.5572ZM1.48748 10.5572C1.48748 12.0358 1.48748 13.5103 1.48748 14.9889C1.48748 15.6496 1.64066 16.27 1.9833 16.83C2.88224 18.3005 4.24072 19.0177 5.92572 19.0459C8.63059 19.0862 11.3395 19.062 14.0484 19.0539C14.7135 19.0539 15.3585 18.917 15.9591 18.6309C17.5958 17.8493 18.5108 16.6044 18.5028 14.7351C18.4866 11.8746 18.4987 9.01418 18.4987 6.15374C18.4987 5.34395 18.269 4.60266 17.7893 3.94999C16.8621 2.69704 15.5802 2.08063 14.0484 2.06452C11.3476 2.03229 8.64671 2.05243 5.94588 2.05646C5.36943 2.05646 4.81314 2.1733 4.27297 2.37474C2.78952 2.92668 1.41089 4.32467 1.47538 6.38338C1.52376 7.77734 1.48748 9.16728 1.48748 10.5572Z" fill="#333333"/>
<path d="M10.0173 14.8277C7.41723 14.8277 5.32105 12.7569 5.31702 10.1785C5.31299 7.64032 7.42529 5.56147 10.0092 5.56147C12.6012 5.55744 14.7055 7.63227 14.7095 10.1905C14.7095 12.7448 12.6093 14.8237 10.0173 14.8277ZM10.0173 13.337C11.7869 13.337 13.222 11.9229 13.218 10.1825C13.214 8.45817 11.7789 7.04809 10.0173 7.04809C8.24764 7.04809 6.8045 8.45414 6.8045 10.1905C6.80853 11.931 8.24764 13.3411 10.0173 13.337Z" fill="#333333"/>
<path d="M15.2537 4.15143C15.7979 4.15143 16.2413 4.61474 16.2413 5.1828C16.2373 5.75086 15.7898 6.21014 15.2456 6.20611C14.7095 6.20208 14.2701 5.7428 14.2701 5.18683C14.2661 4.61877 14.7095 4.15143 15.2537 4.15143Z" fill="#333333"/>
</svg>
