<svg width="11" height="21" viewBox="0 0 11 21" fill="none" xmlns="http://www.w3.org/2000/svg">
<path d="M6.71958 20.5447C6.62036 20.5486 6.55685 20.5566 6.49335 20.5566C5.13594 20.5566 3.78249 20.5526 2.42508 20.5605C2.23457 20.5605 2.18297 20.5089 2.18297 20.3184C2.18694 17.1591 2.18694 13.9958 2.18694 10.8364C2.18694 10.7531 2.18694 10.6697 2.18694 10.5625C1.4487 10.5625 0.730303 10.5625 0 10.5625C0 9.43533 0 8.32797 0 7.18885C0.0754117 7.18885 0.146854 7.18885 0.214328 7.18885C0.809684 7.18885 1.40504 7.18488 2.0004 7.19282C2.15122 7.19282 2.19091 7.14916 2.19091 7.00231C2.18297 6.11721 2.18297 5.22815 2.19091 4.34305C2.19488 3.72388 2.2941 3.12059 2.57988 2.56095C2.98869 1.77111 3.63564 1.25911 4.45326 0.941585C5.12006 0.679628 5.82258 0.584371 6.52907 0.572464C7.68009 0.556588 8.83111 0.564526 9.98213 0.560557C10.0893 0.560557 10.1766 0.556588 10.1766 0.707411C10.1726 1.7989 10.1726 2.89038 10.1726 3.98187C10.1726 3.99378 10.1687 4.00568 10.1528 4.05728C10.0853 4.05728 10.0099 4.05728 9.93451 4.05728C9.22008 4.05728 8.50565 4.05331 7.79122 4.05728C7.37844 4.05728 7.04505 4.22398 6.83469 4.58516C6.77118 4.69233 6.73149 4.83124 6.73149 4.95825C6.71958 5.63299 6.73149 6.30773 6.72355 6.98246C6.72355 7.14122 6.77118 7.18488 6.92597 7.18488C7.91823 7.17695 8.91049 7.18091 9.90275 7.18091C9.98213 7.18091 10.0575 7.18091 10.1925 7.18091C10.0536 8.31606 9.91863 9.42739 9.77971 10.5506C8.74776 10.5506 7.7436 10.5506 6.71958 10.5506C6.71958 13.8886 6.71958 17.2067 6.71958 20.5447Z" fill="#333333"/>
</svg>
