<svg width="11" height="10" viewBox="0 0 11 10" fill="none" xmlns="http://www.w3.org/2000/svg">
<path d="M2.38557 9.65766C2.32997 9.73357 2.24019 9.78287 2.13889 9.78287C2.03759 9.78287 1.9478 9.73357 1.89221 9.65766L0.0894952 7.85495C-0.0298317 7.73562 -0.0298317 7.54216 0.0894952 7.42283C0.208822 7.3035 0.402289 7.3035 0.521616 7.42283L1.83333 8.73455V0.305556C1.83333 0.136802 1.97014 0 2.13889 0C2.30764 0 2.44444 0.136802 2.44444 0.305556V8.73455L3.75616 7.42283C3.87549 7.3035 4.06896 7.3035 4.18828 7.42283C4.30761 7.54216 4.30761 7.73562 4.18828 7.85495L2.38557 9.65766ZM5.80556 1.22222C5.6368 1.22222 5.5 1.08542 5.5 0.916667C5.5 0.747913 5.6368 0.611111 5.80556 0.611111H10.6944C10.8632 0.611111 11 0.747913 11 0.916667C11 1.08542 10.8632 1.22222 10.6944 1.22222H5.80556ZM5.80556 3.66667C5.6368 3.66667 5.5 3.52986 5.5 3.36111C5.5 3.19236 5.6368 3.05556 5.80556 3.05556H9.47222C9.64098 3.05556 9.77778 3.19236 9.77778 3.36111C9.77778 3.52986 9.64098 3.66667 9.47222 3.66667H5.80556ZM5.80556 6.11111C5.6368 6.11111 5.5 5.97431 5.5 5.80556C5.5 5.6368 5.6368 5.5 5.80556 5.5H8.25C8.41875 5.5 8.55556 5.6368 8.55556 5.80556C8.55556 5.97431 8.41875 6.11111 8.25 6.11111H5.80556ZM5.80556 8.55556C5.6368 8.55556 5.5 8.41875 5.5 8.25C5.5 8.08125 5.6368 7.94444 5.80556 7.94444H7.02778C7.19653 7.94444 7.33333 8.08125 7.33333 8.25C7.33333 8.41875 7.19653 8.55556 7.02778 8.55556H5.80556Z" fill="#444444"/>
</svg>
