<svg width="11" height="11" viewBox="0 0 11 11" fill="none" xmlns="http://www.w3.org/2000/svg">
<path d="M10.2695 5L9.75391 3.67285H8.05469L7.54492 5H7L8.67285 0.699219H9.15918L10.8291 5H10.2695ZM9.59277 3.19531L9.1123 1.89746L8.90723 1.25586C8.84863 1.49023 8.78711 1.7041 8.72266 1.89746L8.23633 3.19531H9.59277Z" fill="#444444"/>
<path d="M8.87207 9.22461L7.76172 11H7.13184L8.33301 9.12793C8.03027 9.03027 7.80762 8.88086 7.66504 8.67969C7.52246 8.47852 7.45117 8.22363 7.45117 7.91504C7.45117 7.52832 7.58398 7.23242 7.84961 7.02734C8.11719 6.82031 8.51758 6.7168 9.05078 6.7168H10.252V11H9.71289V9.22461H8.87207ZM9.71289 7.17676H9.06543C8.70801 7.17676 8.44238 7.23926 8.26855 7.36426C8.09473 7.48926 8.00781 7.68164 8.00781 7.94141C8.00781 8.49219 8.36816 8.76758 9.08887 8.76758H9.71289V7.17676Z" fill="#444444"/>
<path d="M3.29621 10.5324C3.24062 10.6083 3.15083 10.6576 3.04953 10.6576C2.94823 10.6576 2.85845 10.6083 2.80285 10.5324L1.00014 8.72971C0.880813 8.61038 0.880813 8.41691 1.00014 8.29758C1.11947 8.17826 1.31293 8.17826 1.43226 8.29758L2.74398 9.6093V1.18031C2.74398 1.01156 2.88078 0.874756 3.04953 0.874756C3.21829 0.874756 3.35509 1.01156 3.35509 1.18031V9.6093L4.66681 8.29758C4.78613 8.17826 4.9796 8.17826 5.09893 8.29758C5.21825 8.41691 5.21825 8.61038 5.09893 8.72971L3.29621 10.5324Z" fill="#444444"/>
</svg>
